<svg width="272" height="398" viewBox="0 0 272 398" fill="none" xmlns="http://www.w3.org/2000/svg">
<mask id="mask0_217_336" style="mask-type:alpha" maskUnits="userSpaceOnUse" x="0" y="0" width="272" height="398">
<rect width="272" height="398" fill="#D9D9D9"/>
</mask>
<g mask="url(#mask0_217_336)">
<mask id="path-2-outside-1_217_336" maskUnits="userSpaceOnUse" x="9" y="3" width="388" height="388" fill="black">
<rect fill="white" x="9" y="3" width="388" height="388"/>
<path fill-rule="evenodd" clip-rule="evenodd" d="M202.476 387H202.862C205.4 387 207.918 386.939 210.434 386.837C223.995 386.268 236.113 377.743 241.291 365.11L244.94 356.239L244.949 356.241L247.48 350.066L249.694 344.685L249.687 344.683L335.954 134.25H307.413L270.731 227.363L233.804 134.25H203.597L255.384 261.338L223.287 339.42L223.263 339.415L216.828 355.04C215.55 358.133 212.628 360.228 209.338 360.369C207.165 360.452 204.974 360.513 202.761 360.513C129.516 360.474 64.4328 310.377 45.2086 240.324L45.2169 240.322C41.3687 226.207 39.4228 211.641 39.4308 197.011C39.4308 129.959 81.4119 68.6613 143.916 44.4734L143.913 44.466C162.689 37.1995 182.519 33.508 202.888 33.508C264.133 33.508 319.756 67.3191 348.014 121.739C359.888 144.423 366.587 170 366.587 197.4C366.587 260.541 330.907 315.324 278.672 342.565L291.687 365.644C351.926 333.838 393 270.432 393 197.4C393 166.103 384.823 135.525 371.459 109.492L371.46 109.492C338.634 46.2632 274.04 7 202.888 7C177.676 7 153.194 11.8836 130.114 21.4638L130.117 21.472C59.8715 50.6697 13 120.635 13 197.011L13 197.088C13 211.174 14.5603 225.207 17.6466 238.933L17.6237 238.938C26.9411 280.337 50.3275 317.913 83.478 344.767C117.013 371.925 159.258 386.918 202.476 387ZM146.188 157.808C161.515 157.808 174 166.006 180.414 180.308L180.922 181.427L206.661 172.659L206.113 171.336C196.146 146.985 173.187 131.849 146.189 131.849C127.208 131.849 111.78 137.953 99.0306 150.484C86.3644 162.935 79.9489 178.598 79.9489 197.05C79.9489 215.339 86.3644 230.924 99.0306 243.373C111.78 255.906 127.208 262.008 146.189 262.008C173.187 262.008 196.146 246.872 206.113 222.541L206.663 221.22L180.882 212.43L180.394 213.591C174.649 227.648 161.86 236.049 146.188 236.049C135.511 236.049 126.497 232.307 119.35 224.942C112.126 217.475 108.471 208.097 108.471 197.071C108.471 185.963 112.044 176.768 119.352 168.957C126.477 161.55 135.509 157.808 146.188 157.808Z"/>
</mask>
<g filter="url(#filter0_iii_217_336)">
<path fill-rule="evenodd" clip-rule="evenodd" d="M202.476 387H202.862C205.4 387 207.918 386.939 210.434 386.837C223.995 386.268 236.113 377.743 241.291 365.11L244.94 356.239L244.949 356.241L247.48 350.066L249.694 344.685L249.687 344.683L335.954 134.25H307.413L270.731 227.363L233.804 134.25H203.597L255.384 261.338L223.287 339.42L223.263 339.415L216.828 355.04C215.55 358.133 212.628 360.228 209.338 360.369C207.165 360.452 204.974 360.513 202.761 360.513C129.516 360.474 64.4328 310.377 45.2086 240.324L45.2169 240.322C41.3687 226.207 39.4228 211.641 39.4308 197.011C39.4308 129.959 81.4119 68.6613 143.916 44.4734L143.913 44.466C162.689 37.1995 182.519 33.508 202.888 33.508C264.133 33.508 319.756 67.3191 348.014 121.739C359.888 144.423 366.587 170 366.587 197.4C366.587 260.541 330.907 315.324 278.672 342.565L291.687 365.644C351.926 333.838 393 270.432 393 197.4C393 166.103 384.823 135.525 371.459 109.492L371.46 109.492C338.634 46.2632 274.04 7 202.888 7C177.676 7 153.194 11.8836 130.114 21.4638L130.117 21.472C59.8715 50.6697 13 120.635 13 197.011L13 197.088C13 211.174 14.5603 225.207 17.6466 238.933L17.6237 238.938C26.9411 280.337 50.3275 317.913 83.478 344.767C117.013 371.925 159.258 386.918 202.476 387ZM146.188 157.808C161.515 157.808 174 166.006 180.414 180.308L180.922 181.427L206.661 172.659L206.113 171.336C196.146 146.985 173.187 131.849 146.189 131.849C127.208 131.849 111.78 137.953 99.0306 150.484C86.3644 162.935 79.9489 178.598 79.9489 197.05C79.9489 215.339 86.3644 230.924 99.0306 243.373C111.78 255.906 127.208 262.008 146.189 262.008C173.187 262.008 196.146 246.872 206.113 222.541L206.663 221.22L180.882 212.43L180.394 213.591C174.649 227.648 161.86 236.049 146.188 236.049C135.511 236.049 126.497 232.307 119.35 224.942C112.126 217.475 108.471 208.097 108.471 197.071C108.471 185.963 112.044 176.768 119.352 168.957C126.477 161.55 135.509 157.808 146.188 157.808Z" fill="#121212"/>
</g>
<path d="M202.476 387L202.468 391H202.476V387ZM210.434 386.837L210.596 390.833L210.601 390.833L210.434 386.837ZM241.291 365.11L237.592 363.588L237.59 363.593L241.291 365.11ZM244.94 356.239L245.718 352.316L242.492 351.677L241.241 354.718L244.94 356.239ZM244.949 356.241L244.171 360.165L247.401 360.805L248.65 357.758L244.949 356.241ZM247.48 350.066L243.781 348.544L243.779 348.549L247.48 350.066ZM249.694 344.685L253.393 346.207L255.245 341.706L250.47 340.761L249.694 344.685ZM249.687 344.683L245.986 343.166L244.142 347.664L248.91 348.607L249.687 344.683ZM335.954 134.25L339.655 135.767L341.917 130.25H335.954V134.25ZM307.413 134.25V130.25H304.689L303.691 132.784L307.413 134.25ZM270.731 227.363L267.012 228.838L270.743 238.245L274.452 228.829L270.731 227.363ZM233.804 134.25L237.522 132.775L236.521 130.25H233.804V134.25ZM203.597 134.25V130.25H197.648L199.893 135.759L203.597 134.25ZM255.384 261.338L259.083 262.858L259.706 261.344L259.088 259.828L255.384 261.338ZM223.287 339.42L222.503 343.343L225.734 343.988L226.987 340.941L223.287 339.42ZM223.263 339.415L224.047 335.493L220.818 334.848L219.564 337.892L223.263 339.415ZM216.828 355.04L220.525 356.567L220.527 356.563L216.828 355.04ZM209.338 360.369L209.491 364.366L209.5 364.366L209.51 364.365L209.338 360.369ZM202.761 360.513L202.759 364.513H202.761V360.513ZM45.2086 240.324L44.144 236.468L40.2943 237.531L41.3512 241.383L45.2086 240.324ZM45.2169 240.322L46.2815 244.178L50.1248 243.116L49.076 239.27L45.2169 240.322ZM39.4308 197.011L43.4308 197.013V197.011H39.4308ZM143.916 44.4734L145.36 48.2038L149.086 46.7617L147.648 43.0337L143.916 44.4734ZM143.913 44.466L142.469 40.7356L138.743 42.1778L140.181 45.9057L143.913 44.466ZM348.014 121.739L344.464 123.583L344.47 123.594L348.014 121.739ZM278.672 342.565L276.822 339.018L273.157 340.929L275.188 344.53L278.672 342.565ZM291.687 365.644L288.203 367.609L290.114 370.998L293.554 369.181L291.687 365.644ZM371.459 109.492L369.633 105.933L366.074 107.76L367.901 111.319L371.459 109.492ZM371.46 109.492L373.286 113.05L376.862 111.216L375.01 107.649L371.46 109.492ZM130.114 21.4638L128.58 17.7694L124.889 19.3013L126.418 22.9937L130.114 21.4638ZM130.117 21.472L131.652 25.1656L135.341 23.6326L133.813 19.9421L130.117 21.472ZM13 197.011L17 197.012V197.011H13ZM13 197.088L9 197.087V197.088H13ZM17.6466 238.933L18.5293 242.834L22.4255 241.953L21.5491 238.055L17.6466 238.933ZM17.6237 238.938L16.741 235.037L12.844 235.918L13.7213 239.816L17.6237 238.938ZM83.478 344.767L80.9602 347.875L80.9606 347.875L83.478 344.767ZM180.414 180.308L176.765 181.945L176.768 181.953L176.772 181.96L180.414 180.308ZM180.922 181.427L177.279 183.079L178.778 186.383L182.212 185.214L180.922 181.427ZM206.661 172.659L207.951 176.445L211.989 175.07L210.357 171.129L206.661 172.659ZM206.113 171.336L202.412 172.852L202.415 172.859L202.418 172.867L206.113 171.336ZM99.0306 150.484L96.2267 147.631L96.2265 147.631L99.0306 150.484ZM99.0306 243.373L101.835 240.521L101.834 240.52L99.0306 243.373ZM206.113 222.541L202.42 221.006L202.416 221.015L202.412 221.025L206.113 222.541ZM206.663 221.22L210.356 222.756L211.995 218.813L207.954 217.434L206.663 221.22ZM180.882 212.43L182.173 208.644L178.642 207.44L177.195 210.879L180.882 212.43ZM180.394 213.591L176.707 212.039L176.699 212.058L176.691 212.077L180.394 213.591ZM119.35 224.942L116.476 227.723L116.48 227.727L119.35 224.942ZM119.352 168.957L116.469 166.184L116.45 166.204L116.431 166.224L119.352 168.957ZM202.862 383H202.476V391H202.862V383ZM202.862 391C205.464 391 208.037 390.938 210.596 390.833L210.271 382.84C207.799 382.941 205.336 383 202.862 383V391ZM210.601 390.833C225.733 390.199 239.226 380.697 244.992 366.627L237.59 363.593C233.001 374.789 222.257 382.338 210.266 382.84L210.601 390.833ZM244.99 366.632L248.639 357.761L241.241 354.718L237.592 363.588L244.99 366.632ZM244.163 360.163L244.171 360.165L245.726 352.317L245.718 352.316L244.163 360.163ZM248.65 357.758L251.181 351.584L243.779 348.549L241.247 354.724L248.65 357.758ZM251.179 351.588L253.393 346.207L245.995 343.163L243.781 348.544L251.179 351.588ZM250.47 340.761L250.463 340.76L248.91 348.607L248.917 348.609L250.47 340.761ZM253.388 346.201L339.655 135.767L332.253 132.733L245.986 343.166L253.388 346.201ZM335.954 130.25H307.413V138.25H335.954V130.25ZM303.691 132.784L267.009 225.897L274.452 228.829L311.134 135.716L303.691 132.784ZM274.449 225.889L237.522 132.775L230.086 135.724L267.012 228.838L274.449 225.889ZM233.804 130.25H203.597V138.25H233.804V130.25ZM199.893 135.759L251.679 262.847L259.088 259.828L207.301 132.74L199.893 135.759ZM251.684 259.817L219.587 337.899L226.987 340.941L259.083 262.858L251.684 259.817ZM224.071 335.498L224.047 335.493L222.479 343.338L222.503 343.343L224.071 335.498ZM219.564 337.892L213.13 353.517L220.527 356.563L226.962 340.939L219.564 337.892ZM213.131 353.513C212.427 355.216 210.848 356.3 209.167 356.372L209.51 364.365C214.407 364.155 218.673 361.05 220.525 356.567L213.131 353.513ZM209.185 356.372C207.038 356.454 204.903 356.513 202.761 356.513V364.513C205.045 364.513 207.292 364.45 209.491 364.366L209.185 356.372ZM202.763 356.513C131.327 356.475 67.8158 307.59 49.066 239.266L41.3512 241.383C61.0498 313.164 127.705 364.473 202.759 364.513L202.763 356.513ZM46.2732 244.18L46.2815 244.178L44.1523 236.466L44.144 236.468L46.2732 244.18ZM49.076 239.27C45.3215 225.498 43.423 211.287 43.4308 197.013L35.4308 197.009C35.4226 211.995 37.4159 226.915 41.3577 241.374L49.076 239.27ZM43.4308 197.011C43.4308 131.609 84.3976 71.7949 145.36 48.2038L142.472 40.743C78.4262 65.5276 35.4308 128.308 35.4308 197.011H43.4308ZM147.648 43.0337L147.645 43.0263L140.181 45.9057L140.184 45.913L147.648 43.0337ZM145.357 48.1964C163.668 41.1097 183.008 37.508 202.888 37.508V29.508C182.03 29.508 161.71 33.2893 142.469 40.7356L145.357 48.1964ZM202.888 37.508C262.638 37.508 316.893 70.4858 344.464 123.583L351.564 119.896C322.619 64.1523 265.628 29.508 202.888 29.508V37.508ZM344.47 123.594C356.054 145.723 362.587 170.665 362.587 197.4H370.587C370.587 169.334 363.723 143.123 351.558 119.884L344.47 123.594ZM362.587 197.4C362.587 258.997 327.784 312.441 276.822 339.018L280.522 346.112C334.03 318.206 370.587 262.085 370.587 197.4H362.587ZM275.188 344.53L288.203 367.609L295.171 363.679L282.156 340.6L275.188 344.53ZM293.554 369.181C355.057 336.708 397 271.968 397 197.4H389C389 268.895 348.794 330.968 289.819 362.107L293.554 369.181ZM397 197.4C397 165.421 388.649 134.22 375.018 107.665L367.901 111.319C380.996 136.829 389 166.784 389 197.4H397ZM373.285 113.051L373.286 113.05L369.633 105.933L369.633 105.933L373.285 113.051ZM375.01 107.649C341.497 43.0964 275.535 3 202.888 3V11C272.545 11 335.771 49.43 367.91 111.335L375.01 107.649ZM202.888 3C177.152 3 152.148 7.98672 128.58 17.7694L131.647 25.1581C154.24 15.7805 178.2 11 202.888 11V3ZM126.418 22.9937L126.421 23.0019L133.813 19.9421L133.809 19.9338L126.418 22.9937ZM128.582 17.7784C56.8467 47.5951 9.00002 119.016 9.00002 197.011H17C17 122.254 62.8963 53.7442 131.652 25.1656L128.582 17.7784ZM9.00002 197.01L9 197.087L17 197.089L17 197.012L9.00002 197.01ZM9 197.088C9 211.469 10.593 225.797 13.744 239.81L21.5491 238.055C18.5276 224.618 17 210.878 17 197.088H9ZM16.7639 235.031L16.741 235.037L18.5064 242.839L18.5293 242.834L16.7639 235.031ZM13.7213 239.816C23.2376 282.099 47.1148 320.458 80.9602 347.875L85.9958 341.658C53.5401 315.367 30.6447 278.576 21.5261 238.06L13.7213 239.816ZM80.9606 347.875C115.207 375.609 158.338 390.917 202.468 391L202.483 383C160.178 382.92 118.819 368.24 85.9954 341.658L80.9606 347.875ZM184.064 178.671C177.023 162.971 163.134 153.808 146.188 153.808V161.808C159.896 161.808 170.978 169.041 176.765 181.945L184.064 178.671ZM184.565 179.775L184.057 178.656L176.772 181.96L177.279 183.079L184.565 179.775ZM205.371 168.873L179.632 177.641L182.212 185.214L207.951 176.445L205.371 168.873ZM202.418 172.867L202.965 174.189L210.357 171.129L209.809 169.806L202.418 172.867ZM146.189 135.849C171.618 135.849 193.079 150.053 202.412 172.852L209.815 169.821C199.212 143.917 174.756 127.849 146.189 127.849V135.849ZM101.834 153.337C113.787 141.588 128.187 135.849 146.189 135.849V127.849C126.229 127.849 109.772 134.317 96.2267 147.631L101.834 153.337ZM83.9489 197.05C83.9489 179.623 89.9667 165.003 101.835 153.336L96.2265 147.631C82.7621 160.867 75.9489 177.573 75.9489 197.05H83.9489ZM101.834 240.52C89.9593 228.848 83.9489 214.303 83.9489 197.05H75.9489C75.9489 216.375 82.7695 232.999 96.2266 246.226L101.834 240.52ZM146.189 258.008C128.187 258.008 113.787 252.27 101.835 240.521L96.2265 246.226C109.773 259.541 126.23 266.008 146.189 266.008V258.008ZM202.412 221.025C193.08 243.803 171.618 258.008 146.189 258.008V266.008C174.756 266.008 199.211 249.94 209.815 224.058L202.412 221.025ZM202.969 219.685L202.42 221.006L209.807 224.077L210.356 222.756L202.969 219.685ZM179.591 216.216L205.372 225.006L207.954 217.434L182.173 208.644L179.591 216.216ZM184.081 215.142L184.569 213.981L177.195 210.879L176.707 212.039L184.081 215.142ZM146.188 240.049C163.417 240.049 177.712 230.726 184.096 215.104L176.691 212.077C171.586 224.569 160.302 232.049 146.188 232.049V240.049ZM116.48 227.727C124.41 235.9 134.473 240.049 146.188 240.049V232.049C136.548 232.049 128.585 228.714 122.221 222.156L116.48 227.727ZM104.471 197.071C104.471 209.062 108.48 219.46 116.476 227.723L122.225 222.16C115.771 215.491 112.471 207.132 112.471 197.071H104.471ZM116.431 166.224C108.405 174.803 104.471 184.986 104.471 197.071H112.471C112.471 186.941 115.684 178.733 122.273 171.69L116.431 166.224ZM146.188 153.808C134.473 153.808 124.383 157.956 116.469 166.184L122.234 171.73C128.57 165.144 136.545 161.808 146.188 161.808V153.808Z" fill="#4FB38D" mask="url(#path-2-outside-1_217_336)"/>
</g>
<defs>
<filter id="filter0_iii_217_336" x="9" y="3" width="390" height="390" filterUnits="userSpaceOnUse" color-interpolation-filters="sRGB">
<feFlood flood-opacity="0" result="BackgroundImageFix"/>
<feBlend mode="normal" in="SourceGraphic" in2="BackgroundImageFix" result="shape"/>
<feColorMatrix in="SourceAlpha" type="matrix" values="0 0 0 0 0 0 0 0 0 0 0 0 0 0 0 0 0 0 127 0" result="hardAlpha"/>
<feOffset/>
<feGaussianBlur stdDeviation="10"/>
<feComposite in2="hardAlpha" operator="arithmetic" k2="-1" k3="1"/>
<feColorMatrix type="matrix" values="0 0 0 0 0.592157 0 0 0 0 0.870588 0 0 0 0 0.752941 0 0 0 1 0"/>
<feBlend mode="normal" in2="shape" result="effect1_innerShadow_217_336"/>
<feColorMatrix in="SourceAlpha" type="matrix" values="0 0 0 0 0 0 0 0 0 0 0 0 0 0 0 0 0 0 127 0" result="hardAlpha"/>
<feOffset dx="2" dy="2"/>
<feGaussianBlur stdDeviation="6"/>
<feComposite in2="hardAlpha" operator="arithmetic" k2="-1" k3="1"/>
<feColorMatrix type="matrix" values="0 0 0 0 0.0352941 0 0 0 0 0.160784 0 0 0 0 0.247059 0 0 0 1 0"/>
<feBlend mode="normal" in2="effect1_innerShadow_217_336" result="effect2_innerShadow_217_336"/>
<feColorMatrix in="SourceAlpha" type="matrix" values="0 0 0 0 0 0 0 0 0 0 0 0 0 0 0 0 0 0 127 0" result="hardAlpha"/>
<feOffset/>
<feGaussianBlur stdDeviation="8"/>
<feComposite in2="hardAlpha" operator="arithmetic" k2="-1" k3="1"/>
<feColorMatrix type="matrix" values="0 0 0 0 0.309804 0 0 0 0 0.701961 0 0 0 0 0.552941 0 0 0 1 0"/>
<feBlend mode="normal" in2="effect2_innerShadow_217_336" result="effect3_innerShadow_217_336"/>
</filter>
</defs>
</svg>
