<svg width="292" height="407" viewBox="0 0 292 407" fill="none" xmlns="http://www.w3.org/2000/svg">
<mask id="mask0_199_229" style="mask-type:alpha" maskUnits="userSpaceOnUse" x="0" y="0" width="292" height="407">
<rect width="292" height="407" fill="#D9D9D9"/>
</mask>
<g mask="url(#mask0_199_229)">
<mask id="path-2-outside-1_199_229" maskUnits="userSpaceOnUse" x="4" y="-27" width="278" height="371" fill="black">
<rect fill="white" x="4" y="-27" width="278" height="371"/>
<path fill-rule="evenodd" clip-rule="evenodd" d="M10 -1.20101L29.799 -21L92.1061 41.3071L92.0811 41.3322L139.927 89.1788C151.78 85.1788 165.364 87.8619 174.807 97.3055C184.3 106.809 186.962 120.509 182.863 132.4L232.002 181.543C243.889 177.444 257.61 180.092 267.1 189.603C280.375 202.867 280.375 224.371 267.1 237.642C263.945 240.798 260.199 243.302 256.077 245.01C251.954 246.719 247.535 247.598 243.073 247.598C238.611 247.598 234.192 246.719 230.069 245.01C225.947 243.302 222.201 240.798 219.046 237.642C214.308 232.899 211.078 226.86 209.762 220.286C208.447 213.711 209.105 206.895 211.654 200.693L165.831 154.87L165.824 275.473C169.149 277.11 172.184 279.278 174.811 281.893C188.079 295.157 188.079 316.654 174.811 329.946C161.539 343.211 140.029 343.211 126.772 329.946C113.504 316.657 113.504 295.161 126.772 281.893C129.953 278.712 133.733 276.194 137.894 274.482V152.762C133.729 151.058 129.947 148.537 126.772 145.349C116.721 135.305 114.301 120.554 119.456 108.206L72.3318 61.0814L72.3071 61.1061L10 -1.20101Z"/>
</mask>
<g filter="url(#filter0_i_199_229)">
<path fill-rule="evenodd" clip-rule="evenodd" d="M10 -1.20101L29.799 -21L92.1061 41.3071L92.0811 41.3322L139.927 89.1788C151.78 85.1788 165.364 87.8619 174.807 97.3055C184.3 106.809 186.962 120.509 182.863 132.4L232.002 181.543C243.889 177.444 257.61 180.092 267.1 189.603C280.375 202.867 280.375 224.371 267.1 237.642C263.945 240.798 260.199 243.302 256.077 245.01C251.954 246.719 247.535 247.598 243.073 247.598C238.611 247.598 234.192 246.719 230.069 245.01C225.947 243.302 222.201 240.798 219.046 237.642C214.308 232.899 211.078 226.86 209.762 220.286C208.447 213.711 209.105 206.895 211.654 200.693L165.831 154.87L165.824 275.473C169.149 277.11 172.184 279.278 174.811 281.893C188.079 295.157 188.079 316.654 174.811 329.946C161.539 343.211 140.029 343.211 126.772 329.946C113.504 316.657 113.504 295.161 126.772 281.893C129.953 278.712 133.733 276.194 137.894 274.482V152.762C133.729 151.058 129.947 148.537 126.772 145.349C116.721 135.305 114.301 120.554 119.456 108.206L72.3318 61.0814L72.3071 61.1061L10 -1.20101Z" fill="#121212"/>
</g>
<path d="M10 -1.20101L7.17157 -4.02944L4.34315 -1.20101L7.17157 1.62742L10 -1.20101ZM29.799 -21L32.6274 -23.8284L29.799 -26.6569L26.9706 -23.8284L29.799 -21ZM92.1061 41.3071L94.9345 44.1356L97.763 41.3071L94.9345 38.4787L92.1061 41.3071ZM92.0811 41.3322L89.2526 38.5038L86.4242 41.3322L89.2526 44.1606L92.0811 41.3322ZM139.927 89.1788L137.099 92.0073L138.854 93.7626L141.206 92.9688L139.927 89.1788ZM174.807 97.3055L177.637 94.4786L177.636 94.477L174.807 97.3055ZM182.863 132.4L179.082 131.097L178.267 133.461L180.035 135.228L182.863 132.4ZM232.002 181.543L229.173 184.371L230.941 186.139L233.305 185.324L232.002 181.543ZM267.1 189.603L264.268 192.428L264.272 192.432L267.1 189.603ZM267.1 237.642L264.271 234.813L264.27 234.814L267.1 237.642ZM230.069 245.01L231.6 241.315L231.6 241.315L230.069 245.01ZM219.046 237.642L216.216 240.469L216.217 240.47L219.046 237.642ZM209.762 220.286L205.84 221.07L205.84 221.07L209.762 220.286ZM211.654 200.693L215.354 202.214L216.367 199.749L214.482 197.865L211.654 200.693ZM165.831 154.87L168.659 152.041L161.831 145.213L161.831 154.869L165.831 154.87ZM165.824 275.473L161.824 275.472L161.824 277.962L164.057 279.061L165.824 275.473ZM174.811 281.893L177.639 279.064L177.633 279.058L174.811 281.893ZM174.811 329.946L177.638 332.775L177.642 332.772L174.811 329.946ZM126.772 329.946L123.941 332.772L123.942 332.774L126.772 329.946ZM126.772 281.893L123.944 279.063L123.943 279.064L126.772 281.893ZM137.894 274.482L139.415 278.182L141.894 277.162V274.482H137.894ZM137.894 152.762H141.894V150.077L139.408 149.06L137.894 152.762ZM126.772 145.349L129.606 142.526L129.599 142.519L126.772 145.349ZM119.456 108.206L123.148 109.748L124.18 107.274L122.285 105.378L119.456 108.206ZM72.3318 61.0814L75.1603 58.253L72.3318 55.4245L69.5034 58.253L72.3318 61.0814ZM72.3071 61.1061L69.4787 63.9345L72.3071 66.763L75.1356 63.9345L72.3071 61.1061ZM12.8284 1.62742L32.6274 -18.1716L26.9706 -23.8284L7.17157 -4.02944L12.8284 1.62742ZM94.9345 38.4787L32.6274 -23.8284L26.9706 -18.1716L89.2777 44.1356L94.9345 38.4787ZM94.9095 44.1606L94.9345 44.1356L89.2777 38.4787L89.2526 38.5038L94.9095 44.1606ZM142.756 86.3504L94.9095 38.5038L89.2526 44.1606L137.099 92.0073L142.756 86.3504ZM177.636 94.477C167.071 83.9121 151.878 80.9238 138.648 85.3889L141.206 92.9688C151.681 89.4337 163.657 91.8117 171.979 100.134L177.636 94.477ZM186.645 133.704C191.221 120.428 188.255 105.109 177.637 94.4786L171.977 100.132C180.344 108.509 182.703 120.59 179.082 131.097L186.645 133.704ZM234.83 178.714L185.692 129.572L180.035 135.228L229.173 184.371L234.83 178.714ZM269.931 186.777C259.31 176.133 243.966 173.187 230.698 177.761L233.305 185.324C243.813 181.701 255.91 184.052 264.268 192.428L269.931 186.777ZM269.928 240.471C284.765 225.638 284.766 201.6 269.927 186.773L264.272 192.432C275.983 204.134 275.984 223.104 264.271 234.813L269.928 240.471ZM257.608 248.706C262.216 246.796 266.403 243.998 269.929 240.47L264.27 234.814C261.487 237.599 258.183 239.808 254.546 241.315L257.608 248.706ZM243.073 251.598C248.061 251.598 253 250.615 257.608 248.706L254.546 241.315C250.908 242.822 247.01 243.598 243.073 243.598V251.598ZM228.538 248.706C233.146 250.615 238.085 251.598 243.073 251.598V243.598C239.136 243.598 235.238 242.822 231.6 241.315L228.538 248.706ZM216.217 240.47C219.743 243.998 223.93 246.796 228.538 248.706L231.6 241.315C227.963 239.808 224.659 237.599 221.876 234.814L216.217 240.47ZM205.84 221.07C207.31 228.418 210.92 235.168 216.216 240.469L221.876 234.815C217.695 230.63 214.845 225.302 213.685 219.501L205.84 221.07ZM207.954 199.173C205.106 206.104 204.37 213.722 205.84 221.07L213.685 219.501C212.524 213.7 213.105 207.685 215.354 202.214L207.954 199.173ZM163.002 157.698L208.825 203.522L214.482 197.865L168.659 152.041L163.002 157.698ZM169.824 275.473L169.831 154.87L161.831 154.869L161.824 275.472L169.824 275.473ZM177.633 279.058C174.698 276.136 171.306 273.713 167.59 271.884L164.057 279.061C166.992 280.506 169.671 282.42 171.989 284.727L177.633 279.058ZM177.642 332.772C192.467 317.92 192.471 293.892 177.639 279.064L171.983 284.721C183.686 296.422 183.691 315.388 171.98 327.12L177.642 332.772ZM123.942 332.774C138.763 347.602 162.806 347.6 177.638 332.775L171.983 327.117C160.273 338.821 141.295 338.819 129.601 327.119L123.942 332.774ZM123.943 279.064C109.112 293.896 109.115 317.923 123.941 332.772L129.602 327.12C117.892 315.391 117.895 296.426 129.6 284.721L123.943 279.064ZM136.372 270.783C131.723 272.696 127.499 275.51 123.944 279.063L129.599 284.722C132.407 281.915 135.744 279.692 139.415 278.182L136.372 270.783ZM133.894 152.762V274.482H141.894V152.762H133.894ZM123.937 148.171C127.489 151.738 131.72 154.558 136.379 156.464L139.408 149.06C135.738 147.558 132.405 145.337 129.606 142.526L123.937 148.171ZM115.765 106.665C110.009 120.453 112.702 136.944 123.944 148.178L129.599 142.519C120.739 133.666 118.593 120.656 123.148 109.748L115.765 106.665ZM69.5034 63.9098L116.628 111.035L122.285 105.378L75.1603 58.253L69.5034 63.9098ZM75.1356 63.9345L75.1603 63.9098L69.5034 58.253L69.4787 58.2777L75.1356 63.9345ZM7.17157 1.62742L69.4787 63.9345L75.1356 58.2777L12.8284 -4.02944L7.17157 1.62742Z" fill="#F34F29" mask="url(#path-2-outside-1_199_229)"/>
</g>
<defs>
<filter id="filter0_i_199_229" x="4.34277" y="-26.6567" width="276.713" height="370.552" filterUnits="userSpaceOnUse" color-interpolation-filters="sRGB">
<feFlood flood-opacity="0" result="BackgroundImageFix"/>
<feBlend mode="normal" in="SourceGraphic" in2="BackgroundImageFix" result="shape"/>
<feColorMatrix in="SourceAlpha" type="matrix" values="0 0 0 0 0 0 0 0 0 0 0 0 0 0 0 0 0 0 127 0" result="hardAlpha"/>
<feOffset/>
<feGaussianBlur stdDeviation="20"/>
<feComposite in2="hardAlpha" operator="arithmetic" k2="-1" k3="1"/>
<feColorMatrix type="matrix" values="0 0 0 0 0.952941 0 0 0 0 0.309804 0 0 0 0 0.160784 0 0 0 1 0"/>
<feBlend mode="normal" in2="shape" result="effect1_innerShadow_199_229"/>
</filter>
</defs>
</svg>
