<svg width="301" height="410" viewBox="0 0 301 410" fill="none" xmlns="http://www.w3.org/2000/svg">
<mask id="mask0_209_303" style="mask-type:alpha" maskUnits="userSpaceOnUse" x="0" y="0" width="301" height="410">
<rect width="301" height="410" fill="#D9D9D9"/>
</mask>
<g mask="url(#mask0_209_303)">
<mask id="path-2-outside-1_209_303" maskUnits="userSpaceOnUse" x="37" y="13" width="358" height="392" fill="black">
<rect fill="white" x="37" y="13" width="358" height="392"/>
<path fill-rule="evenodd" clip-rule="evenodd" d="M216.07 17C212.687 17 209.307 17.4785 206.038 18.4334C197.135 21.0125 189.647 26.9389 185.218 34.9095C180.789 42.88 179.783 52.242 182.421 60.9368L101.534 106.5C99.2241 104.124 96.5332 102.12 93.658 100.5C89.3059 98.0289 84.4597 96.5024 79.4492 96.0246C74.4388 95.5467 69.3817 96.1288 64.6223 97.7311C59.8629 99.3335 55.5128 101.919 51.8683 105.31C48.2238 108.702 45.3703 112.821 43.5021 117.386C41.634 121.952 40.795 126.857 41.0423 131.767C41.2896 136.678 42.6174 141.479 44.9353 145.843C47.2531 150.208 50.5067 154.033 54.4744 157.059C58.4422 160.085 63.0309 162.241 67.9284 163.379V254.566C61.8186 256.026 56.2223 259.061 51.724 263.355C47.2256 267.649 43.9901 273.043 42.3555 278.975C40.7209 284.907 40.7471 291.158 42.4314 297.077C44.1156 302.995 47.3961 308.364 51.9303 312.621C55.2587 315.734 59.1835 318.174 63.4796 319.803C67.7757 321.431 72.3587 322.216 76.9659 322.111C81.573 322.006 86.1136 321.014 90.3275 319.192C94.5413 317.37 98.3455 314.754 101.522 311.493L182.409 357.057C180.855 362.162 180.544 367.551 181.5 372.795C182.456 378.039 184.653 382.992 187.916 387.26C191.178 391.528 195.417 394.993 200.293 397.378C205.169 399.764 210.549 401.004 216.003 401C221.551 400.999 227.021 399.711 231.961 397.244C236.901 394.777 241.171 391.2 244.42 386.807C247.67 382.415 249.805 377.332 250.652 371.976C251.498 366.621 251.031 361.146 249.289 356.001L329.672 310.689C333.374 314.724 338.002 317.845 343.176 319.797C348.35 321.75 353.924 322.479 359.442 321.924C364.96 321.369 370.265 319.547 374.923 316.605C379.581 313.664 383.46 309.688 386.243 305.001C388.993 300.397 390.6 295.227 390.934 289.907C391.269 284.587 390.322 279.264 388.169 274.365C386.016 269.467 382.717 265.13 378.537 261.702C374.358 258.274 369.413 255.851 364.101 254.626V163.439C369.403 162.186 374.333 159.745 378.501 156.31C382.669 152.874 385.962 148.538 388.117 143.644C390.272 138.751 391.232 133.435 390.919 128.117C390.607 122.799 389.031 117.624 386.317 113.004C383.567 108.401 379.76 104.486 375.194 101.568C370.628 98.6505 365.43 96.8097 360.011 96.1916C354.592 95.5736 349.099 96.1951 343.968 98.0071C338.837 99.8191 334.208 102.772 330.446 106.632L249.621 61.0088V60.9968C251.431 55.0853 251.569 48.8058 250.022 42.8237C248.475 36.8416 245.299 31.3797 240.832 27.0168C236.364 22.6539 230.771 19.5526 224.646 18.0415C221.829 17.3467 218.949 17 216.07 17ZM241.179 75.0726C241.073 75.1766 240.973 75.2806 240.873 75.3846C240.674 75.5926 240.475 75.8005 240.221 76.0085L346.076 255.01C346.183 254.981 346.294 254.951 346.407 254.921C346.76 254.827 347.126 254.729 347.415 254.638V163.331C342.957 162.255 338.76 160.329 335.065 157.666C331.37 155.002 328.25 151.652 325.884 147.808C323.518 143.964 321.951 139.702 321.275 135.265C320.599 130.829 320.826 126.306 321.944 121.956C321.974 121.77 322.024 121.566 322.073 121.362C322.122 121.158 322.171 120.954 322.202 120.768L241.179 75.0726ZM191.772 76.0085L190.814 75.0726L109.791 120.696C112.357 129.406 111.277 138.756 106.789 146.689C102.301 154.623 94.772 160.492 85.8556 163.007L84.5777 163.319V254.626L85.9907 254.998L191.846 75.9965L191.772 76.0085ZM331.663 263.074L225.82 84.1324C219.435 85.8826 212.68 85.8826 206.296 84.1324L100.441 263.134C105.245 267.634 108.636 273.442 110.295 279.826H321.808C323.406 273.454 326.797 267.634 331.663 263.074ZM241.941 343.749L322.447 298.317C322.202 297.565 321.989 296.813 321.808 296.061H110.234L109.853 297.369L190.814 342.993C194.078 339.682 197.995 337.051 202.328 335.256C206.661 333.462 211.321 332.543 216.027 332.553C226.336 332.553 235.552 336.873 241.941 343.749Z"/>
</mask>
<g filter="url(#filter0_i_209_303)">
<path fill-rule="evenodd" clip-rule="evenodd" d="M216.07 17C212.687 17 209.307 17.4785 206.038 18.4334C197.135 21.0125 189.647 26.9389 185.218 34.9095C180.789 42.88 179.783 52.242 182.421 60.9368L101.534 106.5C99.2241 104.124 96.5332 102.12 93.658 100.5C89.3059 98.0289 84.4597 96.5024 79.4492 96.0246C74.4388 95.5467 69.3817 96.1288 64.6223 97.7311C59.8629 99.3335 55.5128 101.919 51.8683 105.31C48.2238 108.702 45.3703 112.821 43.5021 117.386C41.634 121.952 40.795 126.857 41.0423 131.767C41.2896 136.678 42.6174 141.479 44.9353 145.843C47.2531 150.208 50.5067 154.033 54.4744 157.059C58.4422 160.085 63.0309 162.241 67.9284 163.379V254.566C61.8186 256.026 56.2223 259.061 51.724 263.355C47.2256 267.649 43.9901 273.043 42.3555 278.975C40.7209 284.907 40.7471 291.158 42.4314 297.077C44.1156 302.995 47.3961 308.364 51.9303 312.621C55.2587 315.734 59.1835 318.174 63.4796 319.803C67.7757 321.431 72.3587 322.216 76.9659 322.111C81.573 322.006 86.1136 321.014 90.3275 319.192C94.5413 317.37 98.3455 314.754 101.522 311.493L182.409 357.057C180.855 362.162 180.544 367.551 181.5 372.795C182.456 378.039 184.653 382.992 187.916 387.26C191.178 391.528 195.417 394.993 200.293 397.378C205.169 399.764 210.549 401.004 216.003 401C221.551 400.999 227.021 399.711 231.961 397.244C236.901 394.777 241.171 391.2 244.42 386.807C247.67 382.415 249.805 377.332 250.652 371.976C251.498 366.621 251.031 361.146 249.289 356.001L329.672 310.689C333.374 314.724 338.002 317.845 343.176 319.797C348.35 321.75 353.924 322.479 359.442 321.924C364.96 321.369 370.265 319.547 374.923 316.605C379.581 313.664 383.46 309.688 386.243 305.001C388.993 300.397 390.6 295.227 390.934 289.907C391.269 284.587 390.322 279.264 388.169 274.365C386.016 269.467 382.717 265.13 378.537 261.702C374.358 258.274 369.413 255.851 364.101 254.626V163.439C369.403 162.186 374.333 159.745 378.501 156.31C382.669 152.874 385.962 148.538 388.117 143.644C390.272 138.751 391.232 133.435 390.919 128.117C390.607 122.799 389.031 117.624 386.317 113.004C383.567 108.401 379.76 104.486 375.194 101.568C370.628 98.6505 365.43 96.8097 360.011 96.1916C354.592 95.5736 349.099 96.1951 343.968 98.0071C338.837 99.8191 334.208 102.772 330.446 106.632L249.621 61.0088V60.9968C251.431 55.0853 251.569 48.8058 250.022 42.8237C248.475 36.8416 245.299 31.3797 240.832 27.0168C236.364 22.6539 230.771 19.5526 224.646 18.0415C221.829 17.3467 218.949 17 216.07 17ZM241.179 75.0726C241.073 75.1766 240.973 75.2806 240.873 75.3846C240.674 75.5926 240.475 75.8005 240.221 76.0085L346.076 255.01C346.183 254.981 346.294 254.951 346.407 254.921C346.76 254.827 347.126 254.729 347.415 254.638V163.331C342.957 162.255 338.76 160.329 335.065 157.666C331.37 155.002 328.25 151.652 325.884 147.808C323.518 143.964 321.951 139.702 321.275 135.265C320.599 130.829 320.826 126.306 321.944 121.956C321.974 121.77 322.024 121.566 322.073 121.362C322.122 121.158 322.171 120.954 322.202 120.768L241.179 75.0726ZM191.772 76.0085L190.814 75.0726L109.791 120.696C112.357 129.406 111.277 138.756 106.789 146.689C102.301 154.623 94.772 160.492 85.8556 163.007L84.5777 163.319V254.626L85.9907 254.998L191.846 75.9965L191.772 76.0085ZM331.663 263.074L225.82 84.1324C219.435 85.8826 212.68 85.8826 206.296 84.1324L100.441 263.134C105.245 267.634 108.636 273.442 110.295 279.826H321.808C323.406 273.454 326.797 267.634 331.663 263.074ZM241.941 343.749L322.447 298.317C322.202 297.565 321.989 296.813 321.808 296.061H110.234L109.853 297.369L190.814 342.993C194.078 339.682 197.995 337.051 202.328 335.256C206.661 333.462 211.321 332.543 216.027 332.553C226.336 332.553 235.552 336.873 241.941 343.749Z" fill="#121212"/>
</g>
<path d="M206.038 18.4334L207.151 22.2754L207.159 22.273L206.038 18.4334ZM185.218 34.9095L181.721 32.9667L181.721 32.9667L185.218 34.9095ZM182.421 60.9368L184.385 64.4219L187.181 62.8467L186.249 59.7754L182.421 60.9368ZM101.534 106.5L98.6662 109.288L100.813 111.497L103.497 109.985L101.534 106.5ZM93.658 100.5L91.6828 103.979L91.6945 103.985L93.658 100.5ZM79.4492 96.0246L79.0695 100.006L79.0695 100.006L79.4492 96.0246ZM64.6223 97.7311L63.346 93.9402L63.346 93.9402L64.6223 97.7311ZM51.8683 105.31L49.1432 102.382L49.1432 102.382L51.8683 105.31ZM43.5021 117.386L47.2042 118.901L47.2042 118.901L43.5021 117.386ZM41.0423 131.767L45.0372 131.566L45.0372 131.566L41.0423 131.767ZM44.9353 145.843L48.468 143.967L48.468 143.967L44.9353 145.843ZM54.4744 157.059L52.0487 160.24L52.0487 160.24L54.4744 157.059ZM67.9284 163.379H71.9284V160.203L68.8341 159.483L67.9284 163.379ZM67.9284 254.566L68.8581 258.456L71.9284 257.723V254.566H67.9284ZM51.724 263.355L48.9622 260.461L48.9621 260.461L51.724 263.355ZM42.3555 278.975L46.2118 280.037L46.2118 280.037L42.3555 278.975ZM42.4314 297.077L38.5841 298.172L38.5841 298.172L42.4314 297.077ZM51.9303 312.621L49.1923 315.537L49.1981 315.543L51.9303 312.621ZM63.4796 319.803L62.0618 323.543L62.0619 323.543L63.4796 319.803ZM76.9659 322.111L76.8749 318.112L76.8749 318.112L76.9659 322.111ZM90.3275 319.192L88.74 315.521L88.74 315.521L90.3275 319.192ZM101.522 311.493L103.485 308.008L100.804 306.498L98.6566 308.702L101.522 311.493ZM182.409 357.057L186.236 358.221L187.171 355.148L184.372 353.571L182.409 357.057ZM181.5 372.795L177.565 373.513L177.565 373.513L181.5 372.795ZM187.916 387.26L184.738 389.69L184.738 389.69L187.916 387.26ZM200.293 397.378L198.535 400.972L198.535 400.972L200.293 397.378ZM216.003 401L216.002 397L216 397L216.003 401ZM231.961 397.244L230.174 393.666L230.174 393.666L231.961 397.244ZM244.42 386.807L241.205 384.429L241.205 384.429L244.42 386.807ZM249.289 356.001L247.325 352.516L244.437 354.144L245.5 357.283L249.289 356.001ZM329.672 310.689L332.62 307.985L330.473 305.646L327.708 307.205L329.672 310.689ZM359.442 321.924L359.042 317.944L359.042 317.944L359.442 321.924ZM374.923 316.605L372.787 313.223L372.787 313.223L374.923 316.605ZM386.243 305.001L382.809 302.95L382.804 302.959L386.243 305.001ZM390.934 289.907L386.942 289.656L386.942 289.656L390.934 289.907ZM388.169 274.365L384.507 275.975L384.507 275.975L388.169 274.365ZM378.537 261.702L376.001 264.795L376.001 264.795L378.537 261.702ZM364.101 254.626H360.101V257.809L363.203 258.524L364.101 254.626ZM364.101 163.439L363.181 159.547L360.101 160.274V163.439H364.101ZM378.501 156.31L375.957 153.223L375.957 153.223L378.501 156.31ZM390.919 128.117L386.926 128.351L386.926 128.351L390.919 128.117ZM386.317 113.004L389.766 110.978L389.758 110.965L389.751 110.953L386.317 113.004ZM375.194 101.568L373.04 104.939L373.04 104.939L375.194 101.568ZM360.011 96.1916L359.558 100.166L359.558 100.166L360.011 96.1916ZM343.968 98.0071L342.636 94.2354L342.636 94.2354L343.968 98.0071ZM330.446 106.632L328.48 110.115L331.162 111.629L333.311 109.424L330.446 106.632ZM249.621 61.0088H245.621V63.3442L247.654 64.4921L249.621 61.0088ZM249.621 60.9968L245.796 59.8257L245.621 60.3981V60.9968H249.621ZM240.832 27.0168L238.037 29.8785L238.037 29.8785L240.832 27.0168ZM224.646 18.0415L223.688 21.9251L223.688 21.9251L224.646 18.0415ZM240.873 75.3846L237.986 72.6169L237.985 72.6169L240.873 75.3846ZM241.179 75.0726L243.144 71.5885L240.531 70.1146L238.385 72.2109L241.179 75.0726ZM240.221 76.0085L237.686 72.9141L235.03 75.0895L236.778 78.0446L240.221 76.0085ZM346.076 255.01L342.633 257.046L344.183 259.668L347.123 258.87L346.076 255.01ZM346.407 254.921L345.375 251.057L345.375 251.057L346.407 254.921ZM347.415 254.638L348.617 258.453L351.415 257.572V254.638H347.415ZM347.415 163.331H351.415V160.182L348.354 159.443L347.415 163.331ZM335.065 157.666L332.726 160.91L332.726 160.91L335.065 157.666ZM325.884 147.808L322.478 149.905L322.478 149.905L325.884 147.808ZM321.275 135.265L317.321 135.868L317.321 135.868L321.275 135.265ZM321.944 121.956L325.818 122.951L325.862 122.781L325.89 122.608L321.944 121.956ZM322.073 121.362L325.961 122.299L325.962 122.298L322.073 121.362ZM322.202 120.768L326.148 121.42L326.604 118.659L324.167 117.284L322.202 120.768ZM190.814 75.0726L193.608 72.2109L191.463 70.1161L188.851 71.5871L190.814 75.0726ZM191.772 76.0085L188.977 78.8703L190.422 80.281L192.415 79.9566L191.772 76.0085ZM109.791 120.696L107.829 117.21L105.055 118.772L105.954 121.826L109.791 120.696ZM106.789 146.689L103.308 144.72L103.308 144.72L106.789 146.689ZM85.8556 163.007L86.8043 166.893L86.8733 166.876L86.9416 166.857L85.8556 163.007ZM84.5777 163.319L83.6289 159.433L80.5777 160.178V163.319H84.5777ZM84.5777 254.626H80.5777V257.709L83.5593 258.494L84.5777 254.626ZM85.9907 254.998L84.9723 258.866L87.8952 259.636L89.4337 257.034L85.9907 254.998ZM191.846 75.9965L195.289 78.0326L199.64 70.6753L191.203 72.0485L191.846 75.9965ZM225.82 84.1324L229.263 82.096L227.708 79.4673L224.763 80.2747L225.82 84.1324ZM331.663 263.074L334.398 265.993L336.739 263.799L335.106 261.038L331.663 263.074ZM206.296 84.1324L207.353 80.2747L204.407 79.4673L202.853 82.0963L206.296 84.1324ZM100.441 263.134L96.9976 261.098L95.3642 263.86L97.7062 266.053L100.441 263.134ZM110.295 279.826L106.424 280.832L107.202 283.826H110.295V279.826ZM321.808 279.826V283.826H324.929L325.688 280.798L321.808 279.826ZM322.447 298.317L324.413 301.801L327.268 300.19L326.25 297.075L322.447 298.317ZM241.941 343.749L239.011 346.472L241.159 348.783L243.907 347.232L241.941 343.749ZM321.808 296.061L325.698 295.129L324.963 292.061H321.808V296.061ZM110.234 296.061V292.061H107.232L106.393 294.943L110.234 296.061ZM109.853 297.369L106.012 296.251L105.125 299.297L107.889 300.854L109.853 297.369ZM190.814 342.993L188.85 346.478L191.514 347.979L193.662 345.801L190.814 342.993ZM216.027 332.553L216.018 336.553H216.027V332.553ZM216.07 13C212.31 13 208.553 13.5318 204.916 14.5937L207.159 22.273C210.062 21.4252 213.064 21 216.07 21V13ZM204.924 14.5914C195.027 17.4588 186.672 24.0565 181.721 32.9667L188.714 36.8523C192.621 29.8214 199.244 24.5661 207.151 22.2754L204.924 14.5914ZM181.721 32.9667C176.769 41.8806 175.64 52.3624 178.594 62.0981L186.249 59.7754C183.927 52.1217 184.81 43.8794 188.714 36.8523L181.721 32.9667ZM180.458 57.4516L99.571 103.015L103.497 109.985L184.385 64.4219L180.458 57.4516ZM104.402 103.712C101.796 101.031 98.7912 98.8012 95.6215 97.0153L91.6945 103.985C94.2753 105.439 96.6522 107.217 98.6662 109.288L104.402 103.712ZM95.6331 97.0219C90.7878 94.2705 85.3975 92.5737 79.829 92.0426L79.0695 100.006C83.5219 100.431 87.824 101.787 91.6828 103.979L95.6331 97.0219ZM79.829 92.0426C74.2605 91.5116 68.6391 92.1582 63.346 93.9402L65.8986 101.522C70.1243 100.099 74.617 99.5819 79.0695 100.006L79.829 92.0426ZM63.346 93.9402C58.0527 95.7223 53.2076 98.5996 49.1432 102.382L54.5933 108.238C57.818 105.237 61.673 102.945 65.8986 101.522L63.346 93.9402ZM49.1432 102.382C45.0786 106.165 41.8898 110.764 39.8001 115.871L47.2042 118.901C48.8508 114.877 51.3689 111.239 54.5933 108.238L49.1432 102.382ZM39.8001 115.871C37.7103 120.979 36.7704 126.469 37.0474 131.968L45.0372 131.566C44.8196 127.244 45.5577 122.925 47.2042 118.901L39.8001 115.871ZM37.0474 131.968C37.3243 137.468 38.8112 142.84 41.4026 147.719L48.468 143.967C46.4236 140.118 45.2549 135.888 45.0372 131.566L37.0474 131.968ZM41.4026 147.719C43.9938 152.598 47.6268 156.867 52.0487 160.24L56.9001 153.879C53.3865 151.199 50.5125 147.817 48.468 143.967L41.4026 147.719ZM52.0487 160.24C56.4703 163.612 61.578 166.01 67.0227 167.275L68.8341 159.483C64.4839 158.472 60.414 156.558 56.9001 153.878L52.0487 160.24ZM63.9284 163.379V254.566H71.9284V163.379H63.9284ZM66.9987 250.676C60.2082 252.298 53.9778 255.674 48.9622 260.461L54.4857 266.249C58.4669 262.449 63.4291 259.754 68.8581 258.456L66.9987 250.676ZM48.9621 260.461C43.9458 265.249 40.3284 271.274 38.4993 277.912L46.2118 280.037C47.6519 274.812 50.5053 270.048 54.4858 266.249L48.9621 260.461ZM38.4993 277.912C36.67 284.55 36.6993 291.548 38.5841 298.172L46.2786 295.982C44.7949 290.768 44.7719 285.263 46.2118 280.037L38.4993 277.912ZM38.5841 298.172C40.4687 304.794 44.1363 310.79 49.1923 315.537L54.6684 309.705C50.6559 305.938 47.7625 301.196 46.2786 295.982L38.5841 298.172ZM49.1981 315.543C52.9103 319.014 57.2825 321.732 62.0618 323.543L64.8974 316.063C61.0844 314.617 57.6071 312.454 54.6625 309.7L49.1981 315.543ZM62.0619 323.543C66.841 325.355 71.9364 326.226 77.0568 326.11L76.8749 318.112C72.7811 318.205 68.7105 317.508 64.8974 316.063L62.0619 323.543ZM77.0568 326.11C82.1772 325.993 87.2262 324.891 91.915 322.864L88.74 315.521C85.001 317.137 80.9687 318.019 76.8749 318.112L77.0568 326.11ZM91.915 322.864C96.6039 320.836 100.843 317.922 104.387 314.284L98.6566 308.702C95.8478 311.585 92.4787 313.904 88.74 315.521L91.915 322.864ZM99.5587 314.978L180.446 360.542L184.372 353.571L103.485 308.008L99.5587 314.978ZM178.582 355.892C176.843 361.606 176.494 367.641 177.565 373.513L185.435 372.078C184.594 367.462 184.867 362.718 186.236 358.221L178.582 355.892ZM177.565 373.513C178.635 379.384 181.094 384.923 184.738 389.69L191.093 384.831C188.212 381.062 186.277 376.694 185.435 372.078L177.565 373.513ZM184.738 389.69C188.381 394.456 193.108 398.316 198.535 400.972L202.051 393.785C197.726 391.669 193.975 388.601 191.093 384.831L184.738 389.69ZM198.535 400.972C203.962 403.626 209.944 405.004 216.006 405L216 397C211.153 397.003 206.376 395.901 202.051 393.785L198.535 400.972ZM216.004 405C222.169 404.998 228.25 403.568 233.748 400.823L230.174 393.666C225.791 395.854 220.933 396.999 216.002 397L216.004 405ZM233.748 400.823C239.246 398.077 244.008 394.091 247.636 389.186L241.205 384.429C238.334 388.309 234.556 391.477 230.174 393.666L233.748 400.823ZM247.636 389.186C251.265 384.28 253.655 378.597 254.603 372.601L246.701 371.352C245.955 376.067 244.074 380.549 241.205 384.429L247.636 389.186ZM254.603 372.601C255.55 366.604 255.027 360.475 253.078 354.718L245.5 357.283C247.035 361.816 247.446 366.637 246.701 371.352L254.603 372.601ZM251.253 359.485L331.637 314.174L327.708 307.205L247.325 352.516L251.253 359.485ZM326.725 313.394C330.855 317.894 336.01 321.368 341.763 323.54L344.588 316.055C339.994 314.321 335.894 311.553 332.62 307.985L326.725 313.394ZM341.763 323.54C347.517 325.711 353.712 326.52 359.842 325.904L359.042 317.944C354.136 318.437 349.183 317.789 344.588 316.055L341.763 323.54ZM359.842 325.904C365.973 325.288 371.873 323.262 377.059 319.988L372.787 313.223C368.657 315.831 363.947 317.451 359.042 317.944L359.842 325.904ZM377.059 319.988C382.245 316.713 386.574 312.279 389.682 307.044L382.804 302.959C380.347 307.096 376.917 310.616 372.787 313.223L377.059 319.988ZM389.677 307.052C392.752 301.905 394.552 296.118 394.927 290.158L386.942 289.656C386.648 294.336 385.235 298.889 382.809 302.95L389.677 307.052ZM394.927 290.158C395.301 284.197 394.24 278.237 391.83 272.756L384.507 275.975C386.404 280.291 387.236 284.976 386.942 289.656L394.927 290.158ZM391.83 272.756C389.422 267.276 385.735 262.432 381.074 258.609L376.001 264.795C379.699 267.828 382.61 271.659 384.507 275.975L391.83 272.756ZM381.074 258.609C376.414 254.787 370.907 252.09 365 250.728L363.203 258.524C367.919 259.611 372.302 261.761 376.001 264.795L381.074 258.609ZM368.101 254.626V163.439H360.101V254.626H368.101ZM365.021 167.332C370.914 165.939 376.4 163.225 381.045 159.396L375.957 153.223C372.265 156.266 367.892 158.433 363.181 159.547L365.021 167.332ZM381.045 159.396C385.691 155.567 389.368 150.728 391.778 145.257L384.456 142.032C382.556 146.347 379.648 150.18 375.957 153.223L381.045 159.396ZM391.778 145.257C394.188 139.785 395.262 133.836 394.912 127.882L386.926 128.351C387.201 133.034 386.357 137.717 384.456 142.032L391.778 145.257ZM394.912 127.882C394.563 121.928 392.799 116.141 389.766 110.978L382.868 115.03C385.264 119.108 386.651 123.669 386.926 128.351L394.912 127.882ZM389.751 110.953C386.68 105.811 382.431 101.447 377.348 98.1979L373.04 104.939C377.088 107.526 380.455 110.992 382.883 115.055L389.751 110.953ZM377.348 98.1979C372.265 94.9495 366.485 92.9041 360.464 92.2174L359.558 100.166C364.376 100.715 368.991 102.351 373.04 104.939L377.348 98.1979ZM360.464 92.2174C354.444 91.5308 348.341 92.2209 342.636 94.2354L345.3 101.779C349.858 100.169 354.74 99.6164 359.558 100.166L360.464 92.2174ZM342.636 94.2354C336.931 96.25 331.776 99.5359 327.582 103.841L333.311 109.424C336.639 106.008 340.743 103.388 345.3 101.779L342.636 94.2354ZM332.413 103.149L251.587 57.5254L247.654 64.4921L328.48 110.115L332.413 103.149ZM253.621 61.0088V60.9968H245.621V61.0088H253.621ZM253.445 62.1678C255.471 55.5508 255.627 48.5193 253.894 41.822L246.149 43.8254C247.512 49.0923 247.39 54.6198 245.796 59.8257L253.445 62.1678ZM253.894 41.822C252.162 35.1253 248.61 29.0223 243.626 24.1551L238.037 29.8785C241.988 33.737 244.787 38.5578 246.149 43.8254L253.894 41.822ZM243.626 24.1551C238.643 19.2886 232.414 15.838 225.604 14.1579L223.688 21.9251C229.129 23.2673 234.085 26.0193 238.037 29.8785L243.626 24.1551ZM225.604 14.158C222.472 13.3853 219.27 13 216.07 13V21C218.628 21 221.187 21.3081 223.688 21.9251L225.604 14.158ZM243.761 78.1522C243.868 78.0414 243.922 77.9847 243.974 77.9343L238.385 72.2109C238.223 72.3684 238.079 72.5197 237.986 72.6169L243.761 78.1522ZM242.755 79.103C243.22 78.7222 243.574 78.3482 243.761 78.1522L237.985 72.6169C237.775 72.8369 237.729 72.8789 237.686 72.9141L242.755 79.103ZM349.519 252.974L243.664 73.9725L236.778 78.0446L342.633 257.046L349.519 252.974ZM345.375 251.057C345.263 251.086 345.144 251.118 345.029 251.15L347.123 258.87C347.221 258.844 347.325 258.816 347.439 258.786L345.375 251.057ZM346.213 250.823C346.027 250.882 345.755 250.955 345.375 251.057L347.439 258.786C347.765 258.699 348.226 258.576 348.617 258.453L346.213 250.823ZM343.415 163.331V254.638H351.415V163.331H343.415ZM332.726 160.91C336.844 163.88 341.518 166.022 346.476 167.22L348.354 159.443C344.396 158.487 340.676 156.779 337.404 154.421L332.726 160.91ZM322.478 149.905C325.123 154.202 328.607 157.941 332.726 160.91L337.404 154.421C334.134 152.063 331.378 149.102 329.29 145.711L322.478 149.905ZM317.321 135.868C318.078 140.837 319.832 145.607 322.478 149.905L329.29 145.711C327.203 142.321 325.824 138.566 325.23 134.663L317.321 135.868ZM318.069 120.961C316.818 125.832 316.563 130.899 317.321 135.868L325.23 134.663C324.635 130.76 324.834 126.78 325.818 122.951L318.069 120.961ZM318.184 120.425C318.143 120.594 318.056 120.947 317.997 121.304L325.89 122.608C325.889 122.616 325.892 122.597 325.905 122.537C325.919 122.476 325.935 122.407 325.961 122.299L318.184 120.425ZM318.255 120.116C318.256 120.108 318.254 120.127 318.24 120.187C318.226 120.248 318.21 120.317 318.184 120.426L325.962 122.298C326.002 122.13 326.089 121.777 326.148 121.42L318.255 120.116ZM239.214 78.5567L320.237 124.252L324.167 117.284L243.144 71.5885L239.214 78.5567ZM188.019 77.9343L188.977 78.8703L194.567 73.1468L193.608 72.2109L188.019 77.9343ZM111.754 124.181L192.776 78.558L188.851 71.5871L107.829 117.21L111.754 124.181ZM110.271 148.659C115.29 139.787 116.501 129.319 113.628 119.566L105.954 121.826C108.213 129.494 107.265 137.725 103.308 144.72L110.271 148.659ZM86.9416 166.857C96.8546 164.061 105.254 157.527 110.271 148.659L103.308 144.72C99.3486 151.718 92.6894 156.923 84.7695 159.158L86.9416 166.857ZM85.5264 167.205L86.8043 166.893L84.9068 159.121L83.6289 159.433L85.5264 167.205ZM88.5777 254.626V163.319H80.5777V254.626H88.5777ZM87.0091 251.13L85.5961 250.758L83.5593 258.494L84.9723 258.866L87.0091 251.13ZM188.403 73.9605L82.5477 252.962L89.4337 257.034L195.289 78.0326L188.403 73.9605ZM192.415 79.9566L192.488 79.9446L191.203 72.0485L191.129 72.0605L192.415 79.9566ZM222.377 86.1688L328.22 265.11L335.106 261.038L229.263 82.096L222.377 86.1688ZM205.238 87.9901C212.315 89.93 219.801 89.93 226.878 87.9901L224.763 80.2747C219.07 81.8352 213.046 81.8352 207.353 80.2747L205.238 87.9901ZM103.884 265.17L209.739 86.1685L202.853 82.0963L96.9976 261.098L103.884 265.17ZM114.166 278.82C112.323 271.725 108.548 265.247 103.175 260.215L97.7062 266.053C101.942 270.02 104.949 275.158 106.424 280.832L114.166 278.82ZM321.808 275.826H110.295V283.826H321.808V275.826ZM328.928 260.155C323.497 265.244 319.711 271.742 317.929 278.853L325.688 280.798C327.1 275.166 330.097 270.023 334.398 265.993L328.928 260.155ZM320.482 294.834L239.975 340.265L243.907 347.232L324.413 301.801L320.482 294.834ZM317.919 296.994C318.124 297.853 318.367 298.708 318.645 299.56L326.25 297.075C326.036 296.423 325.853 295.774 325.698 295.129L317.919 296.994ZM110.234 300.061H321.808V292.061H110.234V300.061ZM113.693 298.488L114.074 297.18L106.393 294.943L106.012 296.251L113.693 298.488ZM192.777 339.508L111.816 293.885L107.889 300.854L188.85 346.478L192.777 339.508ZM200.798 331.561C195.975 333.558 191.609 336.489 187.965 340.184L193.662 345.801C196.548 342.875 200.015 340.543 203.858 338.952L200.798 331.561ZM216.036 328.553C210.803 328.542 205.62 329.564 200.798 331.561L203.858 338.952C207.702 337.361 211.838 336.544 216.018 336.553L216.036 328.553ZM244.871 341.026C237.744 333.356 227.476 328.553 216.027 328.553V336.553C225.196 336.553 233.359 340.389 239.011 346.472L244.871 341.026Z" fill="#E535AB" mask="url(#path-2-outside-1_209_303)"/>
</g>
<defs>
<filter id="filter0_i_209_303" x="37" y="13" width="358" height="392" filterUnits="userSpaceOnUse" color-interpolation-filters="sRGB">
<feFlood flood-opacity="0" result="BackgroundImageFix"/>
<feBlend mode="normal" in="SourceGraphic" in2="BackgroundImageFix" result="shape"/>
<feColorMatrix in="SourceAlpha" type="matrix" values="0 0 0 0 0 0 0 0 0 0 0 0 0 0 0 0 0 0 127 0" result="hardAlpha"/>
<feOffset/>
<feGaussianBlur stdDeviation="14"/>
<feComposite in2="hardAlpha" operator="arithmetic" k2="-1" k3="1"/>
<feColorMatrix type="matrix" values="0 0 0 0 0.898039 0 0 0 0 0.207843 0 0 0 0 0.670588 0 0 0 1 0"/>
<feBlend mode="normal" in2="shape" result="effect1_innerShadow_209_303"/>
</filter>
</defs>
</svg>
