<svg width="279" height="399" viewBox="0 0 279 399" fill="none" xmlns="http://www.w3.org/2000/svg">
<mask id="mask0_199_87" style="mask-type:alpha" maskUnits="userSpaceOnUse" x="0" y="0" width="279" height="399">
<rect width="279" height="399" fill="#D9D9D9"/>
</mask>
<g mask="url(#mask0_199_87)">
<mask id="path-2-outside-1_199_87" maskUnits="userSpaceOnUse" x="3" y="1" width="332" height="399" fill="black">
<rect fill="white" x="3" y="1" width="332" height="399"/>
<path fill-rule="evenodd" clip-rule="evenodd" d="M84.1227 144.396H168.957H169.189H318.394L316.814 162.89L301.714 344.197L300.757 355.828L169.189 394.909V394.911L168.898 395L37.2012 355.828L28.1954 247.717H92.7334L97.309 302.642L168.898 323.341L168.957 323.323V323.319L169.189 323.252L240.67 302.597L248.116 213.269H169.189H168.957H25.3252L9.5391 23.494L8 5H168.957H169.189H330L328.461 23.494L325.528 58.4097L324.239 73.8733H169.189H168.957H78.2576L84.1227 144.396Z"/>
</mask>
<g filter="url(#filter0_i_199_87)">
<path fill-rule="evenodd" clip-rule="evenodd" d="M84.1227 144.396H168.957H169.189H318.394L316.814 162.89L301.714 344.197L300.757 355.828L169.189 394.909V394.911L168.898 395L37.2012 355.828L28.1954 247.717H92.7334L97.309 302.642L168.898 323.341L168.957 323.323V323.319L169.189 323.252L240.67 302.597L248.116 213.269H169.189H168.957H25.3252L9.5391 23.494L8 5H168.957H169.189H330L328.461 23.494L325.528 58.4097L324.239 73.8733H169.189H168.957H78.2576L84.1227 144.396Z" fill="#121212"/>
</g>
<path d="M84.1227 144.396L80.1365 144.727L80.4416 148.396H84.1227V144.396ZM318.394 144.396L322.38 144.736L322.751 140.396H318.394V144.396ZM316.814 162.89L312.828 162.549L312.827 162.558L316.814 162.89ZM301.714 344.197L297.728 343.865L297.727 343.869L301.714 344.197ZM300.757 355.828L301.896 359.663L304.519 358.884L304.744 356.156L300.757 355.828ZM169.189 394.909L168.05 391.074L165.189 391.924V394.909H169.189ZM169.189 394.911L170.359 398.736L173.189 397.87V394.911H169.189ZM168.898 395L167.757 398.834L168.914 399.178L170.068 398.825L168.898 395ZM37.2012 355.828L33.215 356.161L33.4418 358.883L36.0608 359.662L37.2012 355.828ZM28.1954 247.717V243.717H23.8483L24.2092 248.049L28.1954 247.717ZM92.7334 247.717L96.7196 247.385L96.414 243.717H92.7334V247.717ZM97.309 302.642L93.3228 302.974L93.5515 305.719L96.198 306.484L97.309 302.642ZM168.898 323.341L167.787 327.184L168.93 327.515L170.068 327.166L168.898 323.341ZM168.957 323.323L170.127 327.148L172.957 326.283V323.323H168.957ZM168.957 323.319L167.85 319.475L164.957 320.308V323.319H168.957ZM169.189 323.252L170.296 327.096L170.299 327.095L169.189 323.252ZM240.67 302.597L241.781 306.44L244.427 305.675L244.656 302.929L240.67 302.597ZM248.116 213.269L252.102 213.601L252.463 209.269H248.116V213.269ZM25.3252 213.269L21.339 213.6L21.6441 217.269H25.3252V213.269ZM9.5391 23.494L13.5253 23.1624L13.5253 23.1622L9.5391 23.494ZM8 5V1H3.65328L4.01378 5.33174L8 5ZM330 5L333.986 5.33173L334.347 1H330V5ZM328.461 23.494L332.447 23.8288L332.447 23.8257L328.461 23.494ZM325.528 58.4097L321.542 58.0749L321.542 58.0773L325.528 58.4097ZM324.239 73.8733V77.8733H327.919L328.225 74.2057L324.239 73.8733ZM78.2576 73.8733V69.8733H73.9111L74.2713 74.2049L78.2576 73.8733ZM168.957 140.396H84.1227V148.396H168.957V140.396ZM169.189 140.396H168.957V148.396H169.189V140.396ZM318.394 140.396H169.189V148.396H318.394V140.396ZM320.799 163.23L322.38 144.736L314.409 144.055L312.828 162.549L320.799 163.23ZM305.7 344.529L320.8 163.222L312.827 162.558L297.728 343.865L305.7 344.529ZM304.744 356.156L305.7 344.525L297.727 343.869L296.771 355.501L304.744 356.156ZM170.328 398.743L301.896 359.663L299.618 351.994L168.05 391.074L170.328 398.743ZM173.189 394.911V394.909H165.189V394.911H173.189ZM170.068 398.825L170.359 398.736L168.019 391.086L167.727 391.175L170.068 398.825ZM36.0608 359.662L167.757 398.834L170.038 391.166L38.3416 351.994L36.0608 359.662ZM24.2092 248.049L33.215 356.161L41.1874 355.496L32.1816 247.385L24.2092 248.049ZM92.7334 243.717H28.1954V251.717H92.7334V243.717ZM101.295 302.31L96.7196 247.385L88.7472 248.049L93.3228 302.974L101.295 302.31ZM170.009 319.499L98.4201 298.799L96.198 306.484L167.787 327.184L170.009 319.499ZM167.786 319.498L167.727 319.517L170.068 327.166L170.127 327.148L167.786 319.498ZM164.957 323.319V323.323H172.957V323.319H164.957ZM168.082 319.408L167.85 319.475L170.063 327.163L170.296 327.096L168.082 319.408ZM239.56 298.754L168.078 319.41L170.299 327.095L241.781 306.44L239.56 298.754ZM244.13 212.937L236.684 302.265L244.656 302.929L252.102 213.601L244.13 212.937ZM169.189 217.269H248.116V209.269H169.189V217.269ZM168.957 217.269H169.189V209.269H168.957V217.269ZM25.3252 217.269H168.957V209.269H25.3252V217.269ZM5.55287 23.8256L21.339 213.6L29.3114 212.937L13.5253 23.1624L5.55287 23.8256ZM4.01378 5.33174L5.55288 23.8257L13.5253 23.1622L11.9862 4.66826L4.01378 5.33174ZM168.957 1H8V9H168.957V1ZM169.189 1H168.957V9H169.189V1ZM330 1H169.189V9H330V1ZM332.447 23.8257L333.986 5.33173L326.014 4.66827L324.475 23.1622L332.447 23.8257ZM329.514 58.7445L332.447 23.8288L324.475 23.1592L321.542 58.0749L329.514 58.7445ZM328.225 74.2057L329.514 58.7421L321.542 58.0773L320.253 73.5409L328.225 74.2057ZM169.189 77.8733H324.239V69.8733H169.189V77.8733ZM168.957 77.8733H169.189V69.8733H168.957V77.8733ZM78.2576 77.8733H168.957V69.8733H78.2576V77.8733ZM88.109 144.064L82.2438 73.5418L74.2713 74.2049L80.1365 144.727L88.109 144.064Z" fill="#EA6101" mask="url(#path-2-outside-1_199_87)"/>
</g>
<defs>
<filter id="filter0_i_199_87" x="3.65332" y="1" width="330.693" height="398.178" filterUnits="userSpaceOnUse" color-interpolation-filters="sRGB">
<feFlood flood-opacity="0" result="BackgroundImageFix"/>
<feBlend mode="normal" in="SourceGraphic" in2="BackgroundImageFix" result="shape"/>
<feColorMatrix in="SourceAlpha" type="matrix" values="0 0 0 0 0 0 0 0 0 0 0 0 0 0 0 0 0 0 127 0" result="hardAlpha"/>
<feOffset/>
<feGaussianBlur stdDeviation="19"/>
<feComposite in2="hardAlpha" operator="arithmetic" k2="-1" k3="1"/>
<feColorMatrix type="matrix" values="0 0 0 0 0.917647 0 0 0 0 0.380392 0 0 0 0 0.00392157 0 0 0 1 0"/>
<feBlend mode="normal" in2="shape" result="effect1_innerShadow_199_87"/>
</filter>
</defs>
</svg>
