<svg width="269" height="367" viewBox="0 0 269 367" fill="none" xmlns="http://www.w3.org/2000/svg">
<mask id="mask0_199_230" style="mask-type:alpha" maskUnits="userSpaceOnUse" x="0" y="0" width="269" height="367">
<rect x="0.5" y="0.5" width="268" height="366" fill="#D9D9D9" stroke="#EFEFEF"/>
</mask>
<g mask="url(#mask0_199_230)">
<g filter="url(#filter0_i_199_230)">
<path d="M323.514 344.709L324.922 343.466L323.77 341.983L62.7548 5.77353L62.1543 5H61.175H12H10V7V240.744V242.744H12H51.3418H53.3418V240.744V62.8123L289.721 368.224L290.863 369.7L292.414 368.662C303.302 361.379 313.692 353.377 323.514 344.709Z" fill="url(#paint0_linear_199_230)" stroke="#EFEFEF" stroke-width="4"/>
<path d="M210.116 5H208.116V7V176V178H210.116H249.088H251.088V176V7V5H249.088H210.116Z" fill="url(#paint1_linear_199_230)" stroke="#EFEFEF" stroke-width="4"/>
</g>
</g>
<defs>
<filter id="filter0_i_199_230" x="8" y="3" width="319.653" height="369.4" filterUnits="userSpaceOnUse" color-interpolation-filters="sRGB">
<feFlood flood-opacity="0" result="BackgroundImageFix"/>
<feBlend mode="normal" in="SourceGraphic" in2="BackgroundImageFix" result="shape"/>
<feColorMatrix in="SourceAlpha" type="matrix" values="0 0 0 0 0 0 0 0 0 0 0 0 0 0 0 0 0 0 127 0" result="hardAlpha"/>
<feOffset/>
<feGaussianBlur stdDeviation="13"/>
<feComposite in2="hardAlpha" operator="arithmetic" k2="-1" k3="1"/>
<feColorMatrix type="matrix" values="0 0 0 0 0.981667 0 0 0 0 0.971032 0 0 0 0 0.971032 0 0 0 1 0"/>
<feBlend mode="normal" in2="shape" result="effect1_innerShadow_199_230"/>
</filter>
<linearGradient id="paint0_linear_199_230" x1="190.628" y1="209.986" x2="305.924" y2="352.888" gradientUnits="userSpaceOnUse">
<stop stop-color="#121212"/>
<stop offset="1" stop-color="#121212" stop-opacity="0"/>
</linearGradient>
<linearGradient id="paint1_linear_199_230" x1="229.601" y1="6.99973" x2="228.948" y2="178.726" gradientUnits="userSpaceOnUse">
<stop stop-color="#121212"/>
<stop offset="1" stop-color="#121212" stop-opacity="0"/>
</linearGradient>
</defs>
</svg>
