<svg width="319" height="348" viewBox="0 0 319 348" fill="none" xmlns="http://www.w3.org/2000/svg">
<mask id="mask0_199_148" style="mask-type:alpha" maskUnits="userSpaceOnUse" x="0" y="0" width="319" height="348">
<rect x="2" y="2" width="315" height="344" fill="#D9D9D9" stroke="#00D8FF" stroke-width="4"/>
</mask>
<g mask="url(#mask0_199_148)">
<mask id="path-2-outside-1_199_148" maskUnits="userSpaceOnUse" x="0" y="0" width="391" height="348" fill="black">
<rect fill="white" width="391" height="348"/>
<path d="M318.199 114.201C314.132 112.806 310.031 111.513 305.899 110.324C306.593 107.488 307.232 104.686 307.799 101.933C317.111 56.7313 311.024 20.3155 290.231 8.32574C270.295 -3.16847 237.692 8.81686 204.765 37.4733C201.52 40.3024 198.347 43.2132 195.249 46.2029C193.175 44.215 191.064 42.2656 188.918 40.3558C154.408 9.7155 119.818 -3.19832 99.0482 8.82582C79.1303 20.3559 73.2325 54.5892 81.6158 97.4283C82.4498 101.671 83.3916 105.892 84.4401 110.087C79.5438 111.478 74.8193 112.959 70.2977 114.535C29.8381 128.642 4 150.748 4 173.678C4 197.361 31.7384 221.115 73.8788 235.519C77.2953 236.681 80.7402 237.759 84.2102 238.75C83.0836 243.269 82.0831 247.817 81.2097 252.391C73.2175 294.487 79.4587 327.911 99.3228 339.368C119.839 351.2 154.274 339.04 187.803 309.729C190.522 307.346 193.18 304.896 195.777 302.381C199.132 305.618 202.577 308.761 206.107 311.806C238.586 339.753 270.663 351.038 290.507 339.55C311.004 327.684 317.667 291.777 309.018 248.092C308.336 244.67 307.572 241.264 306.726 237.879C309.144 237.162 311.518 236.425 313.832 235.657C357.641 221.143 386.145 197.677 386.145 173.678C386.145 150.664 359.473 128.409 318.199 114.201ZM308.698 220.163C306.606 220.853 304.467 221.522 302.279 222.17C297.443 206.859 290.916 190.579 282.929 173.757C290.551 157.337 296.826 141.264 301.527 126.053C305.436 127.185 309.23 128.378 312.887 129.636C348.25 141.811 369.82 159.809 369.82 173.678C369.82 188.45 346.524 207.628 308.698 220.163ZM293.003 251.263C296.828 270.579 297.373 288.044 294.839 301.698C292.564 313.967 287.988 322.146 282.327 325.423C270.285 332.394 244.531 323.333 216.755 299.431C213.471 296.599 210.267 293.678 207.146 290.668C217.915 278.892 228.676 265.202 239.179 249.997C257.653 248.358 275.107 245.677 290.934 242.018C291.716 245.165 292.405 248.246 293.003 251.263ZM134.282 324.218C122.516 328.372 113.144 328.492 107.479 325.226C95.4252 318.274 90.4141 291.436 97.2494 255.436C98.062 251.182 98.9923 246.952 100.039 242.749C115.692 246.213 133.019 248.703 151.536 250.204C162.111 265.083 173.183 278.758 184.341 290.733C181.97 293.027 179.542 295.263 177.061 297.438C162.233 310.398 147.376 319.593 134.282 324.218ZM79.1602 220.072C60.5261 213.702 45.1373 205.425 34.5895 196.392C25.1105 188.276 20.3263 180.216 20.3263 173.678C20.3263 159.763 41.0711 142.014 75.6716 129.951C79.8707 128.488 84.2654 127.107 88.8258 125.812C93.6086 141.366 99.8811 157.63 107.451 174.075C99.7826 190.764 93.4205 207.288 88.5914 223.026C85.424 222.118 82.2793 221.133 79.1602 220.072ZM97.6375 94.292C90.4559 57.5896 95.2252 29.9035 107.228 22.9547C120.012 15.5537 148.282 26.1059 178.079 52.5635C180.022 54.2926 181.934 56.0569 183.813 57.8553C172.71 69.778 161.739 83.3516 151.259 98.1418C133.286 99.8077 116.082 102.483 100.265 106.067C99.29 102.165 98.414 98.2379 97.6375 94.292ZM262.478 134.998C258.742 128.545 254.867 122.173 250.857 115.886C263.05 117.428 274.732 119.475 285.702 121.977C282.409 132.533 278.304 143.569 273.472 154.884C269.94 148.183 266.275 141.553 262.478 134.998ZM195.256 69.5242C202.786 77.6821 210.327 86.7894 217.745 96.6714C202.698 95.9607 187.626 95.9577 172.578 96.6625C180.003 86.8715 187.609 77.7762 195.256 69.5242ZM127.603 135.108C123.854 141.611 120.257 148.199 116.815 154.869C112.062 143.595 107.994 132.508 104.673 121.802C115.576 119.363 127.203 117.368 139.318 115.855C135.263 122.18 131.357 128.6 127.603 135.108ZM139.666 232.661C127.149 231.264 115.348 229.373 104.447 226.999C107.821 216.102 111.978 204.78 116.834 193.263C120.29 199.938 123.902 206.531 127.667 213.036C131.539 219.724 135.549 226.274 139.666 232.661ZM195.707 278.982C187.969 270.634 180.251 261.398 172.714 251.466C180.032 251.752 187.491 251.899 195.073 251.899C202.862 251.899 210.561 251.724 218.14 251.387C210.699 261.498 203.186 270.748 195.707 278.982ZM273.626 192.675C278.734 204.318 283.039 215.581 286.458 226.292C275.378 228.821 263.415 230.857 250.811 232.369C254.85 225.966 258.761 219.483 262.542 212.924C266.387 206.258 270.082 199.506 273.626 192.675ZM248.401 204.768C242.612 214.823 236.498 224.688 230.069 234.347C218.422 235.172 206.749 235.582 195.073 235.575C183.18 235.575 171.612 235.205 160.474 234.483C153.876 224.847 147.645 214.965 141.795 204.857C135.971 194.804 130.534 184.533 125.491 174.066C130.521 163.597 135.944 153.321 141.747 143.26L141.745 143.262C147.546 133.198 153.727 123.358 160.275 113.763C171.639 112.904 183.293 112.456 195.071 112.456C206.903 112.456 218.573 112.908 229.934 113.774C236.416 123.354 242.558 133.16 248.348 143.174C254.169 153.213 259.664 163.439 264.822 173.835C259.716 184.337 254.24 194.655 248.401 204.768ZM282.078 22.4666C294.874 29.8468 299.851 59.6078 291.811 98.6359C291.295 101.128 290.723 103.661 290.094 106.234C274.238 102.574 257.022 99.8525 238.997 98.1612C228.497 83.2083 217.616 69.6138 206.694 57.8449C209.556 55.0856 212.487 52.3979 215.483 49.784C243.696 25.2327 270.064 15.5387 282.078 22.4666ZM195.073 139.554C213.919 139.554 229.197 154.832 229.197 173.678C229.197 192.524 213.919 207.803 195.073 207.803C176.227 207.803 160.948 192.524 160.948 173.678C160.948 154.832 176.227 139.554 195.073 139.554Z"/>
</mask>
<g filter="url(#filter0_ii_199_148)">
<path d="M318.199 114.201C314.132 112.806 310.031 111.513 305.899 110.324C306.593 107.488 307.232 104.686 307.799 101.933C317.111 56.7313 311.024 20.3155 290.231 8.32574C270.295 -3.16847 237.692 8.81686 204.765 37.4733C201.52 40.3024 198.347 43.2132 195.249 46.2029C193.175 44.215 191.064 42.2656 188.918 40.3558C154.408 9.7155 119.818 -3.19832 99.0482 8.82582C79.1303 20.3559 73.2325 54.5892 81.6158 97.4283C82.4498 101.671 83.3916 105.892 84.4401 110.087C79.5438 111.478 74.8193 112.959 70.2977 114.535C29.8381 128.642 4 150.748 4 173.678C4 197.361 31.7384 221.115 73.8788 235.519C77.2953 236.681 80.7402 237.759 84.2102 238.75C83.0836 243.269 82.0831 247.817 81.2097 252.391C73.2175 294.487 79.4587 327.911 99.3228 339.368C119.839 351.2 154.274 339.04 187.803 309.729C190.522 307.346 193.18 304.896 195.777 302.381C199.132 305.618 202.577 308.761 206.107 311.806C238.586 339.753 270.663 351.038 290.507 339.55C311.004 327.684 317.667 291.777 309.018 248.092C308.336 244.67 307.572 241.264 306.726 237.879C309.144 237.162 311.518 236.425 313.832 235.657C357.641 221.143 386.145 197.677 386.145 173.678C386.145 150.664 359.473 128.409 318.199 114.201ZM308.698 220.163C306.606 220.853 304.467 221.522 302.279 222.17C297.443 206.859 290.916 190.579 282.929 173.757C290.551 157.337 296.826 141.264 301.527 126.053C305.436 127.185 309.23 128.378 312.887 129.636C348.25 141.811 369.82 159.809 369.82 173.678C369.82 188.45 346.524 207.628 308.698 220.163ZM293.003 251.263C296.828 270.579 297.373 288.044 294.839 301.698C292.564 313.967 287.988 322.146 282.327 325.423C270.285 332.394 244.531 323.333 216.755 299.431C213.471 296.599 210.267 293.678 207.146 290.668C217.915 278.892 228.676 265.202 239.179 249.997C257.653 248.358 275.107 245.677 290.934 242.018C291.716 245.165 292.405 248.246 293.003 251.263ZM134.282 324.218C122.516 328.372 113.144 328.492 107.479 325.226C95.4252 318.274 90.4141 291.436 97.2494 255.436C98.062 251.182 98.9923 246.952 100.039 242.749C115.692 246.213 133.019 248.703 151.536 250.204C162.111 265.083 173.183 278.758 184.341 290.733C181.97 293.027 179.542 295.263 177.061 297.438C162.233 310.398 147.376 319.593 134.282 324.218ZM79.1602 220.072C60.5261 213.702 45.1373 205.425 34.5895 196.392C25.1105 188.276 20.3263 180.216 20.3263 173.678C20.3263 159.763 41.0711 142.014 75.6716 129.951C79.8707 128.488 84.2654 127.107 88.8258 125.812C93.6086 141.366 99.8811 157.63 107.451 174.075C99.7826 190.764 93.4205 207.288 88.5914 223.026C85.424 222.118 82.2793 221.133 79.1602 220.072ZM97.6375 94.292C90.4559 57.5896 95.2252 29.9035 107.228 22.9547C120.012 15.5537 148.282 26.1059 178.079 52.5635C180.022 54.2926 181.934 56.0569 183.813 57.8553C172.71 69.778 161.739 83.3516 151.259 98.1418C133.286 99.8077 116.082 102.483 100.265 106.067C99.29 102.165 98.414 98.2379 97.6375 94.292ZM262.478 134.998C258.742 128.545 254.867 122.173 250.857 115.886C263.05 117.428 274.732 119.475 285.702 121.977C282.409 132.533 278.304 143.569 273.472 154.884C269.94 148.183 266.275 141.553 262.478 134.998ZM195.256 69.5242C202.786 77.6821 210.327 86.7894 217.745 96.6714C202.698 95.9607 187.626 95.9577 172.578 96.6625C180.003 86.8715 187.609 77.7762 195.256 69.5242ZM127.603 135.108C123.854 141.611 120.257 148.199 116.815 154.869C112.062 143.595 107.994 132.508 104.673 121.802C115.576 119.363 127.203 117.368 139.318 115.855C135.263 122.18 131.357 128.6 127.603 135.108ZM139.666 232.661C127.149 231.264 115.348 229.373 104.447 226.999C107.821 216.102 111.978 204.78 116.834 193.263C120.29 199.938 123.902 206.531 127.667 213.036C131.539 219.724 135.549 226.274 139.666 232.661ZM195.707 278.982C187.969 270.634 180.251 261.398 172.714 251.466C180.032 251.752 187.491 251.899 195.073 251.899C202.862 251.899 210.561 251.724 218.14 251.387C210.699 261.498 203.186 270.748 195.707 278.982ZM273.626 192.675C278.734 204.318 283.039 215.581 286.458 226.292C275.378 228.821 263.415 230.857 250.811 232.369C254.85 225.966 258.761 219.483 262.542 212.924C266.387 206.258 270.082 199.506 273.626 192.675ZM248.401 204.768C242.612 214.823 236.498 224.688 230.069 234.347C218.422 235.172 206.749 235.582 195.073 235.575C183.18 235.575 171.612 235.205 160.474 234.483C153.876 224.847 147.645 214.965 141.795 204.857C135.971 194.804 130.534 184.533 125.491 174.066C130.521 163.597 135.944 153.321 141.747 143.26L141.745 143.262C147.546 133.198 153.727 123.358 160.275 113.763C171.639 112.904 183.293 112.456 195.071 112.456C206.903 112.456 218.573 112.908 229.934 113.774C236.416 123.354 242.558 133.16 248.348 143.174C254.169 153.213 259.664 163.439 264.822 173.835C259.716 184.337 254.24 194.655 248.401 204.768ZM282.078 22.4666C294.874 29.8468 299.851 59.6078 291.811 98.6359C291.295 101.128 290.723 103.661 290.094 106.234C274.238 102.574 257.022 99.8525 238.997 98.1612C228.497 83.2083 217.616 69.6138 206.694 57.8449C209.556 55.0856 212.487 52.3979 215.483 49.784C243.696 25.2327 270.064 15.5387 282.078 22.4666ZM195.073 139.554C213.919 139.554 229.197 154.832 229.197 173.678C229.197 192.524 213.919 207.803 195.073 207.803C176.227 207.803 160.948 192.524 160.948 173.678C160.948 154.832 176.227 139.554 195.073 139.554Z" fill="#121212"/>
</g>
<path d="M318.199 114.201C314.132 112.806 310.031 111.513 305.899 110.324C306.593 107.488 307.232 104.686 307.799 101.933C317.111 56.7313 311.024 20.3155 290.231 8.32574C270.295 -3.16847 237.692 8.81686 204.765 37.4733C201.52 40.3024 198.347 43.2132 195.249 46.2029C193.175 44.215 191.064 42.2656 188.918 40.3558C154.408 9.7155 119.818 -3.19832 99.0482 8.82582C79.1303 20.3559 73.2325 54.5892 81.6158 97.4283C82.4498 101.671 83.3916 105.892 84.4401 110.087C79.5438 111.478 74.8193 112.959 70.2977 114.535C29.8381 128.642 4 150.748 4 173.678C4 197.361 31.7384 221.115 73.8788 235.519C77.2953 236.681 80.7402 237.759 84.2102 238.75C83.0836 243.269 82.0831 247.817 81.2097 252.391C73.2175 294.487 79.4587 327.911 99.3228 339.368C119.839 351.2 154.274 339.04 187.803 309.729C190.522 307.346 193.18 304.896 195.777 302.381C199.132 305.618 202.577 308.761 206.107 311.806C238.586 339.753 270.663 351.038 290.507 339.55C311.004 327.684 317.667 291.777 309.018 248.092C308.336 244.67 307.572 241.264 306.726 237.879C309.144 237.162 311.518 236.425 313.832 235.657C357.641 221.143 386.145 197.677 386.145 173.678C386.145 150.664 359.473 128.409 318.199 114.201ZM308.698 220.163C306.606 220.853 304.467 221.522 302.279 222.17C297.443 206.859 290.916 190.579 282.929 173.757C290.551 157.337 296.826 141.264 301.527 126.053C305.436 127.185 309.23 128.378 312.887 129.636C348.25 141.811 369.82 159.809 369.82 173.678C369.82 188.45 346.524 207.628 308.698 220.163ZM293.003 251.263C296.828 270.579 297.373 288.044 294.839 301.698C292.564 313.967 287.988 322.146 282.327 325.423C270.285 332.394 244.531 323.333 216.755 299.431C213.471 296.599 210.267 293.678 207.146 290.668C217.915 278.892 228.676 265.202 239.179 249.997C257.653 248.358 275.107 245.677 290.934 242.018C291.716 245.165 292.405 248.246 293.003 251.263ZM134.282 324.218C122.516 328.372 113.144 328.492 107.479 325.226C95.4252 318.274 90.4141 291.436 97.2494 255.436C98.062 251.182 98.9923 246.952 100.039 242.749C115.692 246.213 133.019 248.703 151.536 250.204C162.111 265.083 173.183 278.758 184.341 290.733C181.97 293.027 179.542 295.263 177.061 297.438C162.233 310.398 147.376 319.593 134.282 324.218ZM79.1602 220.072C60.5261 213.702 45.1373 205.425 34.5895 196.392C25.1105 188.276 20.3263 180.216 20.3263 173.678C20.3263 159.763 41.0711 142.014 75.6716 129.951C79.8707 128.488 84.2654 127.107 88.8258 125.812C93.6086 141.366 99.8811 157.63 107.451 174.075C99.7826 190.764 93.4205 207.288 88.5914 223.026C85.424 222.118 82.2793 221.133 79.1602 220.072ZM97.6375 94.292C90.4559 57.5896 95.2252 29.9035 107.228 22.9547C120.012 15.5537 148.282 26.1059 178.079 52.5635C180.022 54.2926 181.934 56.0569 183.813 57.8553C172.71 69.778 161.739 83.3516 151.259 98.1418C133.286 99.8077 116.082 102.483 100.265 106.067C99.29 102.165 98.414 98.2379 97.6375 94.292ZM262.478 134.998C258.742 128.545 254.867 122.173 250.857 115.886C263.05 117.428 274.732 119.475 285.702 121.977C282.409 132.533 278.304 143.569 273.472 154.884C269.94 148.183 266.275 141.553 262.478 134.998ZM195.256 69.5242C202.786 77.6821 210.327 86.7894 217.745 96.6714C202.698 95.9607 187.626 95.9577 172.578 96.6625C180.003 86.8715 187.609 77.7762 195.256 69.5242ZM127.603 135.108C123.854 141.611 120.257 148.199 116.815 154.869C112.062 143.595 107.994 132.508 104.673 121.802C115.576 119.363 127.203 117.368 139.318 115.855C135.263 122.18 131.357 128.6 127.603 135.108ZM139.666 232.661C127.149 231.264 115.348 229.373 104.447 226.999C107.821 216.102 111.978 204.78 116.834 193.263C120.29 199.938 123.902 206.531 127.667 213.036C131.539 219.724 135.549 226.274 139.666 232.661ZM195.707 278.982C187.969 270.634 180.251 261.398 172.714 251.466C180.032 251.752 187.491 251.899 195.073 251.899C202.862 251.899 210.561 251.724 218.14 251.387C210.699 261.498 203.186 270.748 195.707 278.982ZM273.626 192.675C278.734 204.318 283.039 215.581 286.458 226.292C275.378 228.821 263.415 230.857 250.811 232.369C254.85 225.966 258.761 219.483 262.542 212.924C266.387 206.258 270.082 199.506 273.626 192.675ZM248.401 204.768C242.612 214.823 236.498 224.688 230.069 234.347C218.422 235.172 206.749 235.582 195.073 235.575C183.18 235.575 171.612 235.205 160.474 234.483C153.876 224.847 147.645 214.965 141.795 204.857C135.971 194.804 130.534 184.533 125.491 174.066C130.521 163.597 135.944 153.321 141.747 143.26L141.745 143.262C147.546 133.198 153.727 123.358 160.275 113.763C171.639 112.904 183.293 112.456 195.071 112.456C206.903 112.456 218.573 112.908 229.934 113.774C236.416 123.354 242.558 133.16 248.348 143.174C254.169 153.213 259.664 163.439 264.822 173.835C259.716 184.337 254.24 194.655 248.401 204.768ZM282.078 22.4666C294.874 29.8468 299.851 59.6078 291.811 98.6359C291.295 101.128 290.723 103.661 290.094 106.234C274.238 102.574 257.022 99.8525 238.997 98.1612C228.497 83.2083 217.616 69.6138 206.694 57.8449C209.556 55.0856 212.487 52.3979 215.483 49.784C243.696 25.2327 270.064 15.5387 282.078 22.4666ZM195.073 139.554C213.919 139.554 229.197 154.832 229.197 173.678C229.197 192.524 213.919 207.803 195.073 207.803C176.227 207.803 160.948 192.524 160.948 173.678C160.948 154.832 176.227 139.554 195.073 139.554Z" stroke="#00D8FF" stroke-width="8" mask="url(#path-2-outside-1_199_148)"/>
</g>
<defs>
<filter id="filter0_ii_199_148" x="-2" y="0" width="392.146" height="348" filterUnits="userSpaceOnUse" color-interpolation-filters="sRGB">
<feFlood flood-opacity="0" result="BackgroundImageFix"/>
<feBlend mode="normal" in="SourceGraphic" in2="BackgroundImageFix" result="shape"/>
<feColorMatrix in="SourceAlpha" type="matrix" values="0 0 0 0 0 0 0 0 0 0 0 0 0 0 0 0 0 0 127 0" result="hardAlpha"/>
<feOffset/>
<feGaussianBlur stdDeviation="7"/>
<feComposite in2="hardAlpha" operator="arithmetic" k2="-1" k3="1"/>
<feColorMatrix type="matrix" values="0 0 0 0 0 0 0 0 0 0.847059 0 0 0 0 1 0 0 0 1 0"/>
<feBlend mode="normal" in2="shape" result="effect1_innerShadow_199_148"/>
<feColorMatrix in="SourceAlpha" type="matrix" values="0 0 0 0 0 0 0 0 0 0 0 0 0 0 0 0 0 0 127 0" result="hardAlpha"/>
<feOffset dx="-2"/>
<feGaussianBlur stdDeviation="8"/>
<feComposite in2="hardAlpha" operator="arithmetic" k2="-1" k3="1"/>
<feColorMatrix type="matrix" values="0 0 0 0 0 0 0 0 0 0.847059 0 0 0 0 1 0 0 0 1 0"/>
<feBlend mode="normal" in2="effect1_innerShadow_199_148" result="effect2_innerShadow_199_148"/>
</filter>
</defs>
</svg>
