<svg width="326" height="329" viewBox="0 0 326 329" fill="none" xmlns="http://www.w3.org/2000/svg">
<mask id="mask0_208_269" style="mask-type:alpha" maskUnits="userSpaceOnUse" x="0" y="0" width="326" height="329">
<rect width="326" height="329" fill="#D9D9D9"/>
</mask>
<g mask="url(#mask0_208_269)">
<g filter="url(#filter0_i_208_269)">
<path d="M256 9C190.852 9 150.348 41.585 134 107C158.4 74.415 186.948 62.165 219.4 70.25C237.944 74.905 251.364 88.38 266.004 103.325C289.916 127.825 317 156 378 156C443.148 156 483.652 123.415 500 58C475.6 90.585 447.052 102.835 414.6 94.75C396.056 90.095 382.88 76.62 367.996 61.675C344.084 37.175 317 9 256 9ZM134 156C68.852 156 28.348 188.585 12 254C36.4 221.415 64.948 209.165 97.4 217.25C115.944 221.905 129.12 235.38 144.004 250.325C167.916 274.825 195 303 256 303C321.148 303 361.652 270.415 378 205C353.6 237.585 325.052 249.835 292.6 241.75C274.056 237.095 260.88 223.62 245.996 208.675C222.084 184.175 195 156 134 156Z" fill="#121212"/>
</g>
<path d="M132.06 106.515L135.601 108.199C147.654 92.102 160.633 81.1614 174.471 75.2111C188.279 69.273 203.078 68.2451 218.915 72.1902C236.82 76.6854 249.859 89.7021 264.575 104.725L265.112 105.275C276.897 117.351 289.699 130.47 307.089 140.579C324.793 150.871 347.164 158 378 158C410.913 158 437.803 149.764 458.553 133.09C479.295 116.422 493.692 91.4899 501.94 58.4849L498.399 56.8012C486.346 72.898 473.367 83.8386 459.529 89.7889C445.721 95.727 430.922 96.7548 415.085 92.8098C397.401 88.37 384.711 75.6265 369.965 60.8174L369.427 60.2781L369.413 60.2637L368.888 59.7252C357.103 47.6492 344.301 34.5299 326.911 24.4209C309.207 14.1291 286.837 7 256 7C223.087 7 196.197 15.2363 175.447 31.9104C154.705 48.5784 140.308 73.5101 132.06 106.515ZM10.0597 253.515L13.6009 255.199C25.6544 239.102 38.6333 228.161 52.4706 222.211C66.2789 216.273 81.0772 215.245 96.9131 219.19C114.598 223.629 127.288 236.373 142.035 251.182L142.573 251.722L142.587 251.736L143.112 252.275C154.897 264.351 167.699 277.47 185.089 287.579C202.793 297.871 225.163 305 256 305C288.913 305 315.803 296.764 336.553 280.09C357.295 263.422 371.692 238.49 379.94 205.485L376.399 203.801C364.346 219.898 351.367 230.839 337.529 236.789C323.72 242.727 308.921 243.755 293.083 239.809C275.4 235.369 262.711 222.626 247.965 207.818L247.427 207.278L247.413 207.264L246.888 206.725C235.103 194.649 222.301 181.53 204.911 171.421C187.207 161.129 164.837 154 134 154C101.087 154 74.1969 162.236 53.4472 178.91C32.705 195.578 18.308 220.51 10.0597 253.515Z" stroke="#38BDF8" stroke-width="4"/>
</g>
<defs>
<filter id="filter0_i_208_269" x="8.11914" y="5" width="495.762" height="302" filterUnits="userSpaceOnUse" color-interpolation-filters="sRGB">
<feFlood flood-opacity="0" result="BackgroundImageFix"/>
<feBlend mode="normal" in="SourceGraphic" in2="BackgroundImageFix" result="shape"/>
<feColorMatrix in="SourceAlpha" type="matrix" values="0 0 0 0 0 0 0 0 0 0 0 0 0 0 0 0 0 0 127 0" result="hardAlpha"/>
<feOffset/>
<feGaussianBlur stdDeviation="20"/>
<feComposite in2="hardAlpha" operator="arithmetic" k2="-1" k3="1"/>
<feColorMatrix type="matrix" values="0 0 0 0 0.219608 0 0 0 0 0.741176 0 0 0 0 0.972549 0 0 0 1 0"/>
<feBlend mode="normal" in2="shape" result="effect1_innerShadow_208_269"/>
</filter>
</defs>
</svg>
