<svg width="28" height="30" viewBox="0 0 28 30" fill="none" xmlns="http://www.w3.org/2000/svg">
<path fill-rule="evenodd" clip-rule="evenodd" d="M14 0C14.6201 0.000130825 15.2147 0.243578 15.6531 0.676794L27.3437 12.2262C27.7696 12.6618 28.0052 13.2453 27.9999 13.8509C27.9946 14.4566 27.7487 15.0359 27.3152 15.4642C26.8817 15.8925 26.2952 16.1354 25.6822 16.1407C25.0691 16.1459 24.4785 15.9131 24.0376 15.4923L14 5.57604L3.96244 15.4923C3.52147 15.9131 2.93085 16.1459 2.31781 16.1407C1.70476 16.1354 1.11833 15.8925 0.684821 15.4642C0.251314 15.0359 0.00541561 14.4566 8.83868e-05 13.8509C-0.00523883 13.2453 0.230432 12.6618 0.656339 12.2262L12.3469 0.676794C12.7853 0.243578 13.3799 0.000130825 14 0ZM14 13.8593C14.6201 13.8594 15.2147 14.1028 15.6531 14.536L27.3437 26.0854C27.7696 26.5211 28.0052 27.1046 27.9999 27.7102C27.9946 28.3158 27.7487 28.8952 27.3152 29.3235C26.8817 29.7517 26.2952 29.9946 25.6822 29.9999C25.0691 30.0052 24.4785 29.7724 24.0376 29.3516L14 19.4353L3.96244 29.3516C3.52147 29.7724 2.93085 30.0052 2.31781 29.9999C1.70476 29.9946 1.11833 29.7517 0.684821 29.3235C0.251314 28.8952 0.00541561 28.3158 8.83868e-05 27.7102C-0.00523883 27.1046 0.230432 26.5211 0.656339 26.0854L12.3469 14.536C12.7853 14.1028 13.3799 13.8594 14 13.8593Z" fill="#F2F2F2"/>
</svg>
