<svg width="311" height="403" viewBox="0 0 311 403" fill="none" xmlns="http://www.w3.org/2000/svg">
<mask id="mask0_199_131" style="mask-type:alpha" maskUnits="userSpaceOnUse" x="0" y="0" width="311" height="403">
<rect width="311" height="403" fill="#D9D9D9"/>
</mask>
<g mask="url(#mask0_199_131)">
<mask id="path-2-outside-1_199_131" maskUnits="userSpaceOnUse" x="3" y="3" width="353" height="399" fill="black">
<rect fill="white" x="3" y="3" width="353" height="399"/>
<path fill-rule="evenodd" clip-rule="evenodd" d="M179.82 396.911L179.488 397L39.1482 357.829L29.5499 249.695H98.3342L103.211 304.619L179.51 325.342L179.57 325.324V325.296L255.98 304.574L263.965 215.268H179.396H179.394H104.05L102.675 199.783L99.5721 164.867L97.9317 146.395H179.394H179.396H270.057L276.308 75.8732H179.639H179.394H14.1403L12.7659 60.3873L9.64037 25.4716L8 7H179.394H179.639H351.188L349.548 25.4716L332.723 215.268H332.707L321.062 346.197L320.021 357.828L179.82 396.885V396.911Z"/>
</mask>
<g filter="url(#filter0_i_199_131)">
<path fill-rule="evenodd" clip-rule="evenodd" d="M179.82 396.911L179.488 397L39.1482 357.829L29.5499 249.695H98.3342L103.211 304.619L179.51 325.342L179.57 325.324V325.296L255.98 304.574L263.965 215.268H179.396H179.394H104.05L102.675 199.783L99.5721 164.867L97.9317 146.395H179.394H179.396H270.057L276.308 75.8732H179.639H179.394H14.1403L12.7659 60.3873L9.64037 25.4716L8 7H179.394H179.639H351.188L349.548 25.4716L332.723 215.268H332.707L321.062 346.197L320.021 357.828L179.82 396.885V396.911Z" fill="#121212"/>
</g>
<path d="M179.488 397L178.412 400.853L179.466 401.147L180.523 400.864L179.488 397ZM179.82 396.911L180.856 400.775L183.82 399.98V396.911H179.82ZM39.1482 357.829L35.1639 358.182L35.4084 360.938L38.0728 361.681L39.1482 357.829ZM29.5499 249.695V245.695H25.1791L25.5655 250.048L29.5499 249.695ZM98.3342 249.695L102.319 249.341L101.995 245.695H98.3342V249.695ZM103.211 304.619L99.2266 304.973L99.4731 307.749L102.163 308.48L103.211 304.619ZM179.51 325.342L178.461 329.202L179.54 329.495L180.615 329.186L179.51 325.342ZM179.57 325.324L180.675 329.169L183.57 328.337V325.324H179.57ZM179.57 325.296L178.523 321.436L175.57 322.237V325.296H179.57ZM255.98 304.574L257.027 308.435L259.716 307.705L259.964 304.93L255.98 304.574ZM263.965 215.268L267.949 215.625L268.339 211.268H263.965V215.268ZM104.05 215.268L100.065 215.622L100.389 219.268H104.05V215.268ZM102.675 199.783L106.66 199.429L106.66 199.428L102.675 199.783ZM99.5721 164.867L95.5877 165.221L95.5878 165.221L99.5721 164.867ZM97.9317 146.395V142.395H93.5607L93.9474 146.749L97.9317 146.395ZM270.057 146.395V150.395H273.718L274.041 146.748L270.057 146.395ZM276.308 75.8732L280.292 76.2264L280.678 71.8732H276.308V75.8732ZM14.1403 75.8732L10.1559 76.2268L10.4796 79.8732H14.1403V75.8732ZM12.7659 60.3873L16.7503 60.0337L16.75 60.0307L12.7659 60.3873ZM9.64037 25.4716L5.65605 25.8255L5.6563 25.8283L9.64037 25.4716ZM8 7V3H3.62904L4.01568 7.35383L8 7ZM351.188 7L355.172 7.35382L355.559 3L351.188 3V7ZM349.548 25.4716L345.563 25.1178L345.563 25.1184L349.548 25.4716ZM332.723 215.268V219.268H336.384L336.707 215.622L332.723 215.268ZM332.707 215.268V211.268H329.046L328.722 214.914L332.707 215.268ZM321.062 346.197L325.046 346.554L325.047 346.551L321.062 346.197ZM320.021 357.828L321.094 361.681L323.758 360.939L324.005 358.185L320.021 357.828ZM179.82 396.885L178.747 393.032L175.82 393.847V396.885H179.82ZM180.523 400.864L180.856 400.775L178.785 393.047L178.452 393.136L180.523 400.864ZM38.0728 361.681L178.412 400.853L180.563 393.147L40.2236 353.976L38.0728 361.681ZM25.5655 250.048L35.1639 358.182L43.1325 357.475L33.5342 249.341L25.5655 250.048ZM98.3342 245.695H29.5499V253.695H98.3342V245.695ZM107.195 304.266L102.319 249.341L94.3499 250.049L99.2266 304.973L107.195 304.266ZM180.558 321.481L104.259 300.759L102.163 308.48L178.461 329.202L180.558 321.481ZM178.465 321.48L178.405 321.497L180.615 329.186L180.675 329.169L178.465 321.48ZM175.57 325.296V325.324H183.57V325.296H175.57ZM254.933 300.714L178.523 321.436L180.617 329.157L257.027 308.435L254.933 300.714ZM259.981 214.912L251.996 304.218L259.964 304.93L267.949 215.625L259.981 214.912ZM179.396 219.268H263.965V211.268H179.396V219.268ZM179.394 219.268H179.396V211.268H179.394V219.268ZM104.05 219.268H179.394V211.268H104.05V219.268ZM98.6911 200.136L100.065 215.622L108.034 214.915L106.66 199.429L98.6911 200.136ZM95.5878 165.221L98.6911 200.137L106.66 199.428L103.556 164.513L95.5878 165.221ZM93.9474 146.749L95.5877 165.221L103.556 164.513L101.916 146.041L93.9474 146.749ZM179.394 142.395H97.9317V150.395H179.394V142.395ZM179.396 142.395H179.394V150.395H179.396V142.395ZM270.057 142.395H179.396V150.395H270.057V142.395ZM272.323 75.52L266.072 146.042L274.041 146.748L280.292 76.2264L272.323 75.52ZM179.639 79.8732H276.308V71.8732H179.639V79.8732ZM179.394 79.8732H179.639V71.8732H179.394V79.8732ZM14.1403 79.8732H179.394V71.8732H14.1403V79.8732ZM8.78158 60.7409L10.1559 76.2268L18.1246 75.5196L16.7503 60.0337L8.78158 60.7409ZM5.6563 25.8283L8.78185 60.7439L16.75 60.0307L13.6244 25.115L5.6563 25.8283ZM4.01568 7.35383L5.65605 25.8255L13.6247 25.1178L11.9843 6.64617L4.01568 7.35383ZM179.394 3H8V11H179.394V3ZM179.639 3H179.394V11H179.639V3ZM351.188 3H179.639V11H351.188V3ZM353.532 25.8255L355.172 7.35382L347.204 6.64618L345.563 25.1178L353.532 25.8255ZM336.707 215.622L353.532 25.8248L345.563 25.1184L328.739 214.915L336.707 215.622ZM332.707 219.268H332.723V211.268H332.707V219.268ZM325.047 346.551L336.691 215.623L328.722 214.914L317.078 345.842L325.047 346.551ZM324.005 358.185L325.046 346.554L317.078 345.84L316.037 357.471L324.005 358.185ZM180.894 400.738L321.094 361.681L318.947 353.975L178.747 393.032L180.894 400.738ZM183.82 396.911V396.885H175.82V396.911H183.82Z" fill="#33A9DC" mask="url(#path-2-outside-1_199_131)"/>
</g>
<defs>
<filter id="filter0_i_199_131" x="3.62891" y="3" width="351.93" height="398.147" filterUnits="userSpaceOnUse" color-interpolation-filters="sRGB">
<feFlood flood-opacity="0" result="BackgroundImageFix"/>
<feBlend mode="normal" in="SourceGraphic" in2="BackgroundImageFix" result="shape"/>
<feColorMatrix in="SourceAlpha" type="matrix" values="0 0 0 0 0 0 0 0 0 0 0 0 0 0 0 0 0 0 127 0" result="hardAlpha"/>
<feOffset/>
<feGaussianBlur stdDeviation="25"/>
<feComposite in2="hardAlpha" operator="arithmetic" k2="-1" k3="1"/>
<feColorMatrix type="matrix" values="0 0 0 0 0.2 0 0 0 0 0.662745 0 0 0 0 0.862745 0 0 0 1 0"/>
<feBlend mode="normal" in2="shape" result="effect1_innerShadow_199_131"/>
</filter>
</defs>
</svg>
