<svg width="286" height="378" viewBox="0 0 286 378" fill="none" xmlns="http://www.w3.org/2000/svg">
<mask id="mask0_211_312" style="mask-type:alpha" maskUnits="userSpaceOnUse" x="0" y="0" width="286" height="378">
<rect width="286" height="378" fill="#D9D9D9"/>
</mask>
<g mask="url(#mask0_211_312)">
<mask id="path-2-outside-1_211_312" maskUnits="userSpaceOnUse" x="1" y="26" width="348" height="349" fill="black">
<rect fill="white" x="1" y="26" width="348" height="349"/>
<path fill-rule="evenodd" clip-rule="evenodd" d="M247.317 371C251.65 370.739 255.721 368.832 258.693 365.669C261.667 362.506 263.318 358.326 263.311 353.985V310.768C263.958 301.142 262.686 291.484 259.567 282.354C294.958 274.527 344.641 249.516 344.641 163.251C344.72 143.042 338.798 123.264 327.626 106.423C326.686 105.012 326.035 103.427 325.714 101.762C325.393 100.097 325.406 98.3841 325.755 96.7242C329.207 78.3026 327.257 59.2756 320.14 41.9372C319.175 39.6328 317.714 37.5692 315.861 35.893C314.009 34.2169 311.81 32.9693 309.421 32.2389C303.806 30.3673 283.048 27.1345 243.744 52.6563C211.927 44.9999 178.748 44.9999 146.931 52.6563C107.627 27.1345 86.8692 30.5375 81.084 32.2389C78.6954 32.9693 76.4961 34.2169 74.6436 35.893C72.7911 37.5692 71.3301 39.6328 70.3653 41.9372C63.2618 59.2196 61.3126 78.1881 64.7501 96.5542C65.3995 100.224 64.6075 104.003 62.5381 107.103C51.3995 123.896 45.4786 143.61 45.5235 163.762C45.5235 248.835 95.5469 274.017 130.597 282.864C127.447 291.458 126.115 300.612 126.684 309.747C94.3555 315.873 77.3409 300.9 60.3262 283.885C51.0811 273.466 39.3858 265.513 26.2969 260.745C24.1299 260.187 21.8741 260.06 19.6573 260.374C17.4415 260.687 15.3086 261.434 13.3809 262.572C11.4532 263.709 9.76861 265.215 8.42388 267.004C7.07818 268.792 6.09771 270.828 5.53912 272.996C4.98052 275.163 4.85454 277.419 5.16802 279.635C5.4815 281.852 6.22759 283.984 7.36529 285.912C8.50298 287.839 10.0088 289.524 11.7979 290.87C13.586 292.215 15.6221 293.195 17.7901 293.754C25.2501 297.461 31.9463 302.541 37.5264 308.727C48.3838 321.585 62.251 331.561 77.8956 337.765C93.5391 343.969 110.475 346.21 127.194 344.287V353.985C127.194 358.498 128.986 362.826 132.178 366.017C135.368 369.207 139.696 371 144.209 371C148.721 371 153.049 369.207 156.239 366.017C159.431 362.826 161.223 358.498 161.223 353.985V308.216C160.864 303.385 161.511 298.532 163.121 293.964C164.731 289.396 167.272 285.211 170.581 281.673C172.651 279.42 174.076 276.651 174.705 273.657C175.334 270.662 175.144 267.554 174.154 264.659C173.103 261.675 171.24 259.043 168.775 257.06C166.311 255.076 163.342 253.819 160.202 253.429C112.221 247.304 80.2335 229.608 80.2335 163.422C80.2569 149.934 84.2198 136.746 91.6338 125.479C98.5577 115.072 101.18 102.388 98.9493 90.0886C97.3321 82.1736 97.3321 74.013 98.9493 66.098C111.837 70.3067 123.96 76.5694 134.851 84.6439C136.898 86.0971 139.239 87.0797 141.711 87.521C144.182 87.9621 146.72 87.8513 149.143 87.1961C179.849 78.5196 212.357 78.5196 243.064 87.1961C245.486 87.8513 248.024 87.9621 250.495 87.521C252.967 87.0797 255.31 86.0971 257.356 84.6439C268.18 76.6618 280.176 70.4056 292.916 66.098C294.45 74.0213 294.45 82.1653 292.916 90.0886C290.513 102.235 293.022 114.838 299.893 125.139C307.339 136.328 311.306 149.471 311.292 162.911C311.292 234.883 273.009 248.155 231.493 253.089C228.394 253.48 225.461 254.717 223.017 256.665C220.573 258.613 218.714 261.197 217.642 264.132C216.569 267.067 216.326 270.241 216.939 273.305C217.552 276.369 218.996 279.206 221.114 281.503C224.536 285.307 227.121 289.786 228.704 294.651C230.286 299.516 230.831 304.659 230.303 309.747V353.985C230.303 358.498 232.095 362.826 235.286 366.017C238.477 369.207 242.805 371 247.317 371Z"/>
</mask>
<g filter="url(#filter0_i_211_312)">
<path fill-rule="evenodd" clip-rule="evenodd" d="M247.317 371C251.65 370.739 255.721 368.832 258.693 365.669C261.667 362.506 263.318 358.326 263.311 353.985V310.768C263.958 301.142 262.686 291.484 259.567 282.354C294.958 274.527 344.641 249.516 344.641 163.251C344.72 143.042 338.798 123.264 327.626 106.423C326.686 105.012 326.035 103.427 325.714 101.762C325.393 100.097 325.406 98.3841 325.755 96.7242C329.207 78.3026 327.257 59.2756 320.14 41.9372C319.175 39.6328 317.714 37.5692 315.861 35.893C314.009 34.2169 311.81 32.9693 309.421 32.2389C303.806 30.3673 283.048 27.1345 243.744 52.6563C211.927 44.9999 178.748 44.9999 146.931 52.6563C107.627 27.1345 86.8692 30.5375 81.084 32.2389C78.6954 32.9693 76.4961 34.2169 74.6436 35.893C72.7911 37.5692 71.3301 39.6328 70.3653 41.9372C63.2618 59.2196 61.3126 78.1881 64.7501 96.5542C65.3995 100.224 64.6075 104.003 62.5381 107.103C51.3995 123.896 45.4786 143.61 45.5235 163.762C45.5235 248.835 95.5469 274.017 130.597 282.864C127.447 291.458 126.115 300.612 126.684 309.747C94.3555 315.873 77.3409 300.9 60.3262 283.885C51.0811 273.466 39.3858 265.513 26.2969 260.745C24.1299 260.187 21.8741 260.06 19.6573 260.374C17.4415 260.687 15.3086 261.434 13.3809 262.572C11.4532 263.709 9.76861 265.215 8.42388 267.004C7.07818 268.792 6.09771 270.828 5.53912 272.996C4.98052 275.163 4.85454 277.419 5.16802 279.635C5.4815 281.852 6.22759 283.984 7.36529 285.912C8.50298 287.839 10.0088 289.524 11.7979 290.87C13.586 292.215 15.6221 293.195 17.7901 293.754C25.2501 297.461 31.9463 302.541 37.5264 308.727C48.3838 321.585 62.251 331.561 77.8956 337.765C93.5391 343.969 110.475 346.21 127.194 344.287V353.985C127.194 358.498 128.986 362.826 132.178 366.017C135.368 369.207 139.696 371 144.209 371C148.721 371 153.049 369.207 156.239 366.017C159.431 362.826 161.223 358.498 161.223 353.985V308.216C160.864 303.385 161.511 298.532 163.121 293.964C164.731 289.396 167.272 285.211 170.581 281.673C172.651 279.42 174.076 276.651 174.705 273.657C175.334 270.662 175.144 267.554 174.154 264.659C173.103 261.675 171.24 259.043 168.775 257.06C166.311 255.076 163.342 253.819 160.202 253.429C112.221 247.304 80.2335 229.608 80.2335 163.422C80.2569 149.934 84.2198 136.746 91.6338 125.479C98.5577 115.072 101.18 102.388 98.9493 90.0886C97.3321 82.1736 97.3321 74.013 98.9493 66.098C111.837 70.3067 123.96 76.5694 134.851 84.6439C136.898 86.0971 139.239 87.0797 141.711 87.521C144.182 87.9621 146.72 87.8513 149.143 87.1961C179.849 78.5196 212.357 78.5196 243.064 87.1961C245.486 87.8513 248.024 87.9621 250.495 87.521C252.967 87.0797 255.31 86.0971 257.356 84.6439C268.18 76.6618 280.176 70.4056 292.916 66.098C294.45 74.0213 294.45 82.1653 292.916 90.0886C290.513 102.235 293.022 114.838 299.893 125.139C307.339 136.328 311.306 149.471 311.292 162.911C311.292 234.883 273.009 248.155 231.493 253.089C228.394 253.48 225.461 254.717 223.017 256.665C220.573 258.613 218.714 261.197 217.642 264.132C216.569 267.067 216.326 270.241 216.939 273.305C217.552 276.369 218.996 279.206 221.114 281.503C224.536 285.307 227.121 289.786 228.704 294.651C230.286 299.516 230.831 304.659 230.303 309.747V353.985C230.303 358.498 232.095 362.826 235.286 366.017C238.477 369.207 242.805 371 247.317 371Z" fill="#121212"/>
</g>
<path d="M247.317 371V375H247.438L247.557 374.993L247.317 371ZM258.693 365.669L255.779 362.93L255.779 362.93L258.693 365.669ZM263.311 353.985L259.311 353.985L259.311 353.993L263.311 353.985ZM263.311 310.768L259.32 310.5L259.311 310.634V310.768H263.311ZM259.567 282.354L258.704 278.448L254.337 279.414L255.782 283.647L259.567 282.354ZM344.641 163.251L340.641 163.236L340.641 163.244V163.251H344.641ZM327.626 106.423L330.959 104.211L330.955 104.204L327.626 106.423ZM325.714 101.762L329.641 101.004L329.641 101.004L325.714 101.762ZM325.755 96.7242L329.67 97.5464L329.678 97.5038L329.687 97.461L325.755 96.7242ZM320.14 41.9372L323.84 40.4183L323.835 40.4053L323.829 40.3924L320.14 41.9372ZM309.421 32.2389L308.156 36.0336L308.203 36.0494L308.251 36.064L309.421 32.2389ZM243.744 52.6563L242.808 56.5453L244.48 56.9477L245.923 56.0111L243.744 52.6563ZM146.931 52.6563L144.752 56.0111L146.195 56.9477L147.867 56.5453L146.931 52.6563ZM81.084 32.2389L79.9554 28.4014L79.9348 28.4074L79.9143 28.4137L81.084 32.2389ZM70.3653 41.9372L66.6756 40.3924L66.6706 40.4045L66.6656 40.4166L70.3653 41.9372ZM64.7501 96.5542L68.6889 95.8572L68.6854 95.8377L68.6818 95.8183L64.7501 96.5542ZM62.5381 107.103L59.2112 104.883L59.2048 104.892L62.5381 107.103ZM45.5235 163.762H49.5235L49.5235 163.753L45.5235 163.762ZM130.597 282.864L134.352 284.241L135.88 280.072L131.576 278.986L130.597 282.864ZM126.684 309.747L127.428 313.677L130.895 313.021L130.676 309.499L126.684 309.747ZM60.3262 283.885L57.3343 286.54L57.4134 286.629L57.4978 286.713L60.3262 283.885ZM26.2969 260.745L27.6661 256.987L27.4835 256.92L27.2954 256.872L26.2969 260.745ZM19.6573 260.374L20.2172 264.334L20.2173 264.334L19.6573 260.374ZM13.3809 262.572L15.4136 266.017L15.4139 266.016L13.3809 262.572ZM8.42388 267.004L11.6202 269.409L11.6211 269.407L8.42388 267.004ZM5.53912 272.996L9.41252 273.994L9.41255 273.994L5.53912 272.996ZM7.36529 285.912L3.92058 287.945L3.92059 287.945L7.36529 285.912ZM11.7979 290.87L14.2029 287.673L14.2024 287.673L11.7979 290.87ZM17.7901 293.754L19.5704 290.172L19.1946 289.985L18.7881 289.88L17.7901 293.754ZM37.5264 308.727L40.5827 306.146L40.5404 306.096L40.4965 306.047L37.5264 308.727ZM77.8956 337.765L79.3702 334.047L79.3701 334.047L77.8956 337.765ZM127.194 344.287H131.194V339.801L126.737 340.313L127.194 344.287ZM132.178 366.017L135.006 363.188L135.006 363.188L132.178 366.017ZM156.239 366.017L153.411 363.188L153.411 363.188L156.239 366.017ZM161.223 308.216H165.223V308.068L165.212 307.92L161.223 308.216ZM170.581 281.673L173.502 284.406L173.514 284.393L173.526 284.38L170.581 281.673ZM174.154 264.659L177.939 263.365L177.933 263.347L177.927 263.329L174.154 264.659ZM168.775 257.06L166.267 260.176L166.268 260.176L168.775 257.06ZM160.202 253.429L159.696 257.397L159.71 257.398L160.202 253.429ZM80.2335 163.422L76.2335 163.415V163.422H80.2335ZM91.6338 125.479L88.3036 123.263L88.298 123.272L88.2923 123.28L91.6338 125.479ZM98.9493 90.0886L102.885 89.3748L102.877 89.3313L102.868 89.2879L98.9493 90.0886ZM98.9493 66.098L100.191 62.2956L95.928 60.9034L95.0302 65.2973L98.9493 66.098ZM134.851 84.6439L132.468 87.8571L132.501 87.8816L132.535 87.9055L134.851 84.6439ZM141.711 87.521L142.414 83.5833L142.414 83.5832L141.711 87.521ZM149.143 87.1961L150.187 91.0575L150.209 91.0516L150.23 91.0454L149.143 87.1961ZM243.064 87.1961L241.976 91.0454L241.998 91.0516L242.019 91.0575L243.064 87.1961ZM250.495 87.521L249.792 83.5832L249.792 83.5833L250.495 87.521ZM257.356 84.6439L259.672 87.9049L259.701 87.8843L259.73 87.8632L257.356 84.6439ZM292.916 66.098L296.843 65.3376L295.973 60.8421L291.635 62.3087L292.916 66.098ZM292.916 90.0886L296.84 90.865L296.842 90.857L296.843 90.849L292.916 90.0886ZM299.893 125.139L303.223 122.923L303.22 122.919L299.893 125.139ZM311.292 162.911L307.292 162.907V162.911H311.292ZM231.493 253.089L231.021 249.117L231.007 249.118L230.992 249.12L231.493 253.089ZM223.017 256.665L220.524 253.537L220.523 253.538L223.017 256.665ZM217.642 264.132L221.399 265.504L221.399 265.504L217.642 264.132ZM216.939 273.305L220.862 272.521L220.862 272.52L216.939 273.305ZM221.114 281.503L224.088 278.828L224.072 278.81L224.055 278.792L221.114 281.503ZM228.704 294.651L232.508 293.414L232.508 293.413L228.704 294.651ZM230.303 309.747L226.324 309.334L226.303 309.54V309.747H230.303ZM235.286 366.017L238.115 363.188L238.114 363.188L235.286 366.017ZM247.557 374.993C252.909 374.671 257.936 372.316 261.608 368.409L255.779 362.93C253.505 365.349 250.392 366.808 247.077 367.007L247.557 374.993ZM261.608 368.409C265.281 364.502 267.32 359.34 267.311 353.978L259.311 353.993C259.317 357.313 258.053 360.51 255.779 362.93L261.608 368.409ZM267.311 353.985V310.768H259.311V353.985H267.311ZM267.302 311.037C267.985 300.882 266.642 290.693 263.353 281.061L255.782 283.647C258.729 292.275 259.932 301.403 259.32 310.5L267.302 311.037ZM260.431 286.259C278.578 282.246 300.705 273.763 318.297 254.949C335.959 236.061 348.641 207.2 348.641 163.251H340.641C340.641 205.567 328.481 232.344 312.454 249.485C296.357 266.699 275.947 274.635 258.704 278.448L260.431 286.259ZM348.641 163.267C348.723 142.266 342.569 121.713 330.959 104.211L324.293 108.634C335.027 124.815 340.717 143.818 340.641 163.236L348.641 163.267ZM330.955 104.204C330.308 103.235 329.862 102.147 329.641 101.004L321.786 102.52C322.208 104.707 323.063 106.788 324.298 108.641L330.955 104.204ZM329.641 101.004C329.421 99.8606 329.43 98.6852 329.67 97.5464L321.84 95.902C321.382 98.0831 321.364 100.333 321.786 102.52L329.641 101.004ZM329.687 97.461C333.281 78.2809 331.25 58.4705 323.84 40.4183L316.439 43.4562C323.263 60.0807 325.133 78.3243 321.823 95.9875L329.687 97.461ZM323.829 40.3924C322.638 37.5458 320.833 34.997 318.545 32.9269L313.178 38.8592C314.595 40.1414 315.712 41.7198 316.45 43.482L323.829 40.3924ZM318.545 32.9269C316.257 30.8566 313.541 29.3159 310.591 28.4137L308.251 36.064C310.079 36.6228 311.761 37.5772 313.178 38.8592L318.545 32.9269ZM310.686 28.4441C303.555 26.0675 281.523 23.3555 241.566 49.3016L245.923 56.0111C284.573 30.9135 304.056 34.667 308.156 36.0336L310.686 28.4441ZM244.68 48.7674C212.248 40.9629 178.427 40.9629 145.995 48.7674L147.867 56.5453C179.069 49.0369 211.606 49.0369 242.808 56.5453L244.68 48.7674ZM149.109 49.3016C109.081 23.3091 87.1219 26.2937 79.9554 28.4014L82.2126 36.0763C86.6164 34.7812 106.173 30.9599 144.752 56.0111L149.109 49.3016ZM79.9143 28.4137C76.9643 29.3159 74.2481 30.8566 71.9599 32.9269L77.3273 38.8592C78.7442 37.5772 80.4265 36.6228 82.2538 36.064L79.9143 28.4137ZM71.9599 32.9269C69.672 34.997 67.8675 37.5458 66.6756 40.3924L74.0549 43.482C74.7928 41.7198 75.9101 40.1414 77.3273 38.8592L71.9599 32.9269ZM66.6656 40.4166C59.2685 58.4131 57.2388 78.1654 60.8183 97.2901L68.6818 95.8183C65.3863 78.2108 67.255 60.026 74.065 43.4579L66.6656 40.4166ZM60.8112 97.2512C61.2811 99.9064 60.708 102.64 59.2112 104.883L65.8651 109.324C68.5069 105.366 69.5178 100.542 68.6889 95.8572L60.8112 97.2512ZM59.2048 104.892C47.6297 122.343 41.4768 142.83 41.5235 163.771L49.5235 163.753C49.4803 144.391 55.1692 125.449 65.8715 109.314L59.2048 104.892ZM41.5235 163.762C41.5235 207.143 54.3067 235.739 71.9966 254.632C89.6084 273.441 111.698 282.219 129.618 286.743L131.576 278.986C114.446 274.662 93.9986 266.425 77.8363 249.164C61.752 231.986 49.5235 205.454 49.5235 163.762H41.5235ZM126.841 281.488C123.501 290.601 122.089 300.308 122.691 309.996L130.676 309.499C130.142 300.916 131.393 292.315 134.352 284.241L126.841 281.488ZM125.939 305.817C110.576 308.728 99.1241 306.604 89.5218 301.901C79.7605 297.12 71.6662 289.568 63.1547 281.057L57.4978 286.713C66.0009 295.217 74.9212 303.658 86.0029 309.086C97.2437 314.591 110.463 316.892 127.428 313.677L125.939 305.817ZM63.3182 281.23C53.6321 270.314 41.379 261.982 27.6661 256.987L24.9278 264.504C37.3926 269.044 48.5301 276.618 57.3343 286.54L63.3182 281.23ZM27.2954 256.872C24.6198 256.182 21.8344 256.026 19.0972 256.413L20.2173 264.334C21.9138 264.094 23.6401 264.191 25.2985 264.619L27.2954 256.872ZM19.0974 256.413C16.3613 256.8 13.7279 257.722 11.3479 259.127L15.4139 266.016C16.8894 265.146 18.5216 264.574 20.2172 264.334L19.0974 256.413ZM11.3482 259.127C8.96788 260.531 6.88755 262.391 5.22671 264.6L11.6211 269.407C12.6497 268.039 13.9385 266.887 15.4136 266.017L11.3482 259.127ZM5.22755 264.599C3.56618 266.807 2.35549 269.321 1.66568 271.998L9.41255 273.994C9.83992 272.336 10.5902 270.778 11.6202 269.409L5.22755 264.599ZM1.66571 271.997C0.975916 274.674 0.820422 277.46 1.20745 280.196L9.12859 279.075C8.88867 277.379 8.98513 275.652 9.41252 273.994L1.66571 271.997ZM1.20745 280.196C1.59436 282.931 2.51539 285.564 3.92058 287.945L10.81 283.879C9.9398 282.404 9.36863 280.772 9.12859 279.075L1.20745 280.196ZM3.92059 287.945C5.32514 290.325 7.1844 292.405 9.39344 294.066L14.2024 287.673C12.8333 286.643 11.6808 285.354 10.81 283.879L3.92059 287.945ZM9.39288 294.066C11.6011 295.727 14.1154 296.937 16.7921 297.627L18.7881 289.88C17.1288 289.453 15.5709 288.703 14.2029 287.673L9.39288 294.066ZM16.0098 297.336C23.0203 300.82 29.3128 305.593 34.5563 311.406L40.4965 306.047C34.5798 299.488 27.4799 294.103 19.5704 290.172L16.0098 297.336ZM34.4702 311.307C45.7529 324.67 60.1634 335.036 76.421 341.483L79.3701 334.047C64.3386 328.086 51.0148 318.501 40.5827 306.146L34.4702 311.307ZM76.4209 341.483C92.6775 347.931 110.277 350.259 127.651 348.261L126.737 340.313C110.673 342.161 94.4007 340.008 79.3702 334.047L76.4209 341.483ZM123.194 344.287V353.985H131.194V344.287H123.194ZM123.194 353.985C123.194 359.559 125.408 364.904 129.35 368.845L135.006 363.188C132.565 360.747 131.194 357.437 131.194 353.985H123.194ZM129.349 368.845C133.29 372.786 138.636 375 144.209 375V367C140.757 367 137.446 365.629 135.006 363.188L129.349 368.845ZM144.209 375C149.782 375 155.127 372.786 159.068 368.845L153.411 363.188C150.971 365.629 147.66 367 144.209 367V375ZM159.068 368.845C163.01 364.904 165.223 359.559 165.223 353.985H157.223C157.223 357.437 155.852 360.747 153.411 363.188L159.068 368.845ZM165.223 353.985V308.216H157.223V353.985H165.223ZM165.212 307.92C164.894 303.64 165.467 299.341 166.894 295.294L159.349 292.634C157.555 297.724 156.834 303.13 157.234 308.512L165.212 307.92ZM166.894 295.294C168.32 291.247 170.57 287.54 173.502 284.406L167.66 278.941C163.973 282.882 161.143 287.544 159.349 292.634L166.894 295.294ZM173.526 284.38C176.083 281.598 177.843 278.177 178.62 274.479L170.791 272.835C170.31 275.125 169.22 277.243 167.636 278.967L173.526 284.38ZM178.62 274.479C179.397 270.78 179.161 266.941 177.939 263.365L170.369 265.952C171.126 268.167 171.272 270.544 170.791 272.835L178.62 274.479ZM177.927 263.329C176.628 259.644 174.328 256.394 171.283 253.943L166.268 260.176C168.153 261.693 169.577 263.706 170.382 265.988L177.927 263.329ZM171.283 253.944C168.239 251.493 164.572 249.941 160.695 249.459L159.71 257.398C162.111 257.697 164.382 258.658 166.267 260.176L171.283 253.944ZM160.709 249.461C136.953 246.429 118.039 240.611 104.998 228.066C92.075 215.634 84.2335 195.904 84.2335 163.422H76.2335C76.2335 197.126 84.3856 219.337 99.4516 233.831C114.399 248.211 135.47 254.304 159.696 257.397L160.709 249.461ZM84.2334 163.429C84.2555 150.72 87.9895 138.294 94.9753 127.678L88.2923 123.28C80.4501 135.198 76.2582 149.148 76.2335 163.415L84.2334 163.429ZM94.9641 127.695C102.461 116.427 105.3 102.692 102.885 89.3748L95.0135 90.8024C97.0593 102.083 94.6543 113.718 88.3036 123.263L94.9641 127.695ZM102.868 89.2879C101.359 81.9012 101.359 74.2854 102.868 66.8987L95.0302 65.2973C93.3051 73.7407 93.3051 82.4459 95.0302 90.8893L102.868 89.2879ZM97.7075 69.9004C110.186 73.9754 121.924 80.0391 132.468 87.8571L137.233 81.4307C125.996 73.0997 113.488 66.6381 100.191 62.2956L97.7075 69.9004ZM132.535 87.9055C135.062 89.6999 137.955 90.9136 141.008 91.4587L142.414 83.5832C140.524 83.2458 138.733 82.4944 137.166 81.3823L132.535 87.9055ZM141.008 91.4587C144.059 92.0036 147.194 91.8667 150.187 91.0575L148.099 83.3348C146.245 83.8359 144.304 83.9207 142.414 83.5833L141.008 91.4587ZM150.23 91.0454C180.225 82.5699 211.981 82.5699 241.976 91.0454L244.151 83.3469C212.734 74.4694 179.472 74.4694 148.055 83.3469L150.23 91.0454ZM242.019 91.0575C245.012 91.8667 248.147 92.0036 251.198 91.4587L249.792 83.5833C247.902 83.9207 245.961 83.8359 244.108 83.3348L242.019 91.0575ZM251.198 91.4587C254.251 90.9137 257.145 89.7002 259.672 87.9049L255.039 81.3829C253.475 82.4941 251.683 83.2457 249.792 83.5832L251.198 91.4587ZM259.73 87.8632C270.221 80.1265 281.849 74.0625 294.197 69.8873L291.635 62.3087C278.503 66.7487 266.138 73.1972 254.982 81.4246L259.73 87.8632ZM288.989 66.8584C290.426 74.2795 290.426 81.9071 288.989 89.3282L296.843 90.849C298.475 82.4234 298.475 73.7632 296.843 65.3376L288.989 66.8584ZM288.992 89.3122C286.383 102.497 289.107 116.178 296.565 127.358L303.22 122.919C296.936 113.499 294.642 101.973 296.84 90.865L288.992 89.3122ZM296.563 127.355C303.571 137.886 307.305 150.257 307.292 162.907L315.292 162.915C315.307 148.685 311.107 134.769 303.223 122.923L296.563 127.355ZM307.292 162.911C307.292 198.192 297.931 218.211 284.325 230.13C270.537 242.21 251.655 246.664 231.021 249.117L231.965 257.061C252.847 254.579 273.864 249.931 289.597 236.148C305.512 222.205 315.292 199.602 315.292 162.911H307.292ZM230.992 249.12C227.164 249.603 223.542 251.132 220.524 253.537L225.51 259.793C227.38 258.303 229.623 257.356 231.994 257.057L230.992 249.12ZM220.523 253.538C217.505 255.944 215.209 259.134 213.884 262.759L221.399 265.504C222.219 263.259 223.641 261.283 225.51 259.793L220.523 253.538ZM213.885 262.759C212.56 266.384 212.26 270.305 213.017 274.09L220.862 272.52C220.393 270.177 220.579 267.749 221.399 265.504L213.885 262.759ZM213.017 274.089C213.773 277.874 215.557 281.377 218.174 284.215L224.055 278.792C222.435 277.035 221.33 274.865 220.862 272.521L213.017 274.089ZM218.141 284.178C221.188 287.566 223.49 291.555 224.9 295.888L232.508 293.413C230.752 288.016 227.884 283.048 224.088 278.828L218.141 284.178ZM224.9 295.888C226.309 300.221 226.795 304.802 226.324 309.334L234.281 310.16C234.867 304.515 234.263 298.81 232.508 293.414L224.9 295.888ZM226.303 309.747V353.985H234.303V309.747H226.303ZM226.303 353.985C226.303 359.559 228.516 364.904 232.458 368.845L238.114 363.188C235.674 360.747 234.303 357.437 234.303 353.985H226.303ZM232.458 368.845C236.398 372.786 241.744 375 247.317 375V367C243.865 367 240.555 365.629 238.115 363.188L232.458 368.845Z" fill="#D2D2D2" mask="url(#path-2-outside-1_211_312)"/>
</g>
<defs>
<filter id="filter0_i_211_312" x="1" y="26.9973" width="347.642" height="348.003" filterUnits="userSpaceOnUse" color-interpolation-filters="sRGB">
<feFlood flood-opacity="0" result="BackgroundImageFix"/>
<feBlend mode="normal" in="SourceGraphic" in2="BackgroundImageFix" result="shape"/>
<feColorMatrix in="SourceAlpha" type="matrix" values="0 0 0 0 0 0 0 0 0 0 0 0 0 0 0 0 0 0 127 0" result="hardAlpha"/>
<feOffset/>
<feGaussianBlur stdDeviation="11"/>
<feComposite in2="hardAlpha" operator="arithmetic" k2="-1" k3="1"/>
<feColorMatrix type="matrix" values="0 0 0 0 1 0 0 0 0 1 0 0 0 0 1 0 0 0 1 0"/>
<feBlend mode="normal" in2="shape" result="effect1_innerShadow_211_312"/>
</filter>
</defs>
</svg>
