<svg width="254" height="350" viewBox="0 0 254 350" fill="none" xmlns="http://www.w3.org/2000/svg">
<mask id="mask0_199_241" style="mask-type:alpha" maskUnits="userSpaceOnUse" x="0" y="0" width="254" height="350">
<rect width="254" height="350" fill="#D9D9D9"/>
</mask>
<g mask="url(#mask0_199_241)">
<mask id="path-2-inside-1_199_241" fill="white">
<path d="M308.618 172.366C308.618 151.288 294.128 133.555 274.673 128.488L318.245 0H102.307L145.982 128.894C127.133 134.367 113.252 151.795 113.252 172.466C113.252 187.667 120.85 201.143 132.402 209.452C127.843 215.938 122.574 221.918 116.594 227.591C105.347 238.13 92.8834 246.235 79.4067 251.606C67.2459 243.399 61.9767 228.909 66.7402 215.938C85.2832 210.264 98.7599 192.936 98.7599 172.568C98.7599 147.539 78.3934 127.272 53.4647 127.272C28.4362 127.272 8.0697 147.64 8.0697 172.669C8.0697 185.031 13.136 196.382 21.242 204.488C20.5332 205.907 19.8245 207.324 19.114 208.845C12.324 222.829 4.62395 238.637 1.68396 256.37C-4.19254 291.835 5.4342 320.309 28.6392 336.422C41.7117 345.439 56.1002 350 71.6034 350C98.2542 350 125.309 336.625 151.452 323.654C170.099 314.433 189.35 304.806 208.299 300.144C215.292 298.422 222.588 297.409 230.29 296.294C245.895 294.065 262.007 291.734 276.497 283.323C293.419 273.495 304.971 257.079 308.315 238.231C310.848 223.741 308.315 209.149 301.83 196.381C306.187 189.388 308.618 181.181 308.618 172.366ZM288.859 172.366C288.859 186.45 277.409 197.9 263.323 197.9C249.239 197.9 237.789 186.45 237.789 172.366C237.789 167.806 239.003 163.448 241.131 159.7C241.96 158.27 242.91 156.913 243.97 155.645C244.983 154.431 246.199 153.316 247.515 152.303L247.617 152.201C248.427 151.592 249.34 150.985 250.252 150.376C250.252 150.376 250.354 150.376 250.354 150.274C250.758 150.073 251.164 149.769 251.568 149.566C251.67 149.566 251.771 149.464 251.873 149.464C252.279 149.261 252.784 149.06 253.292 148.857C253.798 148.654 254.305 148.451 254.709 148.248C254.811 148.248 254.912 148.146 255.014 148.146C255.42 148.047 255.824 147.844 256.23 147.742C256.332 147.742 256.535 147.64 256.636 147.64C257.142 147.539 257.548 147.438 258.054 147.336H258.155L259.676 147.033C259.777 147.033 259.979 147.033 260.08 146.932C260.486 146.932 260.892 146.83 261.296 146.83H261.804C262.31 146.83 262.817 146.729 263.424 146.729H264.742C265.148 146.729 265.451 146.729 265.857 146.83H266.06C266.87 146.932 267.68 147.033 268.491 147.235C280.042 149.667 288.859 160.003 288.859 172.366ZM130.578 20.2668H289.974L253.393 128.184C251.873 128.489 250.354 128.996 248.833 129.502L210.328 50.9705L171.719 128.996C170.2 128.488 168.578 128.184 166.957 127.881L130.578 20.2668ZM203.03 163.55C201.105 154.025 196.242 145.513 189.35 139.23L210.328 96.873L231.504 140.142C225.222 146.424 220.663 154.431 218.838 163.55H203.03ZM152.264 147.539C152.77 147.437 153.176 147.336 153.682 147.235H153.986C154.392 147.133 154.797 147.133 155.203 147.033H155.607C156.013 147.033 156.317 146.932 156.722 146.932H160.675C161.079 146.932 161.384 147.033 161.688 147.033C161.891 147.033 161.991 147.033 162.194 147.133C162.6 147.234 162.904 147.235 163.309 147.336C163.41 147.336 163.512 147.336 163.715 147.438C164.22 147.539 164.728 147.641 165.132 147.742H165.234C165.64 147.844 166.046 147.945 166.45 148.146C166.551 148.146 166.653 148.248 166.856 148.248C167.16 148.349 167.565 148.451 167.869 148.654C167.971 148.654 168.072 148.755 168.174 148.755C168.578 148.958 168.984 149.06 169.388 149.261H169.49C169.997 149.464 170.401 149.667 170.807 149.971H170.909C171.315 150.174 171.719 150.477 172.125 150.68C172.227 150.68 172.227 150.782 172.328 150.782C172.732 150.985 173.037 151.288 173.443 151.491L173.543 151.592C174.759 152.504 175.874 153.517 176.988 154.53L177.09 154.632C178.103 155.746 179.116 156.963 179.927 158.28C182.646 162.437 184.09 167.298 184.081 172.265C184.081 186.349 172.631 197.799 158.547 197.799C144.461 197.799 133.011 186.349 133.011 172.265C132.909 160.408 141.117 150.376 152.264 147.539ZM52.5529 146.83C66.6387 146.83 78.0889 158.281 78.0889 172.366C78.0889 186.45 66.6387 197.9 52.5529 197.9C38.4689 197.9 27.0169 186.45 27.0169 172.366C27.0169 158.281 38.4689 146.83 52.5529 146.83ZM288.252 234.684C286.022 247.655 278.016 259.004 266.261 265.794C255.217 272.178 241.639 274.204 227.35 276.23C219.548 277.345 211.341 278.561 203.436 280.486C182.359 285.654 162.092 295.787 142.435 305.515C117.305 317.979 93.5922 329.733 71.6034 329.733C60.1532 329.733 49.9192 326.49 40.1909 319.702C17.8977 304.299 19.0124 275.42 21.6479 259.613C24.0804 244.818 30.8687 230.935 37.3542 217.662C37.7584 216.85 38.0629 216.141 38.4689 215.331C40.7386 216.151 43.0789 216.761 45.4602 217.154C41.6102 238.637 52.553 260.829 73.833 271.772L77.6829 273.798L81.8374 272.279C99.5719 265.996 115.987 255.761 130.477 242.081C138.686 234.381 145.677 226.072 151.554 217.053C153.885 217.459 156.216 217.56 158.547 217.56C179.624 217.56 197.357 203.068 202.423 183.613H219.447C224.513 203.17 242.246 217.56 263.323 217.56C271.733 217.56 279.537 215.229 286.225 211.278C288.859 218.876 289.669 226.781 288.252 234.684Z"/>
</mask>
<g filter="url(#filter0_i_199_241)">
<path d="M308.618 172.366C308.618 151.288 294.128 133.555 274.673 128.488L318.245 0H102.307L145.982 128.894C127.133 134.367 113.252 151.795 113.252 172.466C113.252 187.667 120.85 201.143 132.402 209.452C127.843 215.938 122.574 221.918 116.594 227.591C105.347 238.13 92.8834 246.235 79.4067 251.606C67.2459 243.399 61.9767 228.909 66.7402 215.938C85.2832 210.264 98.7599 192.936 98.7599 172.568C98.7599 147.539 78.3934 127.272 53.4647 127.272C28.4362 127.272 8.0697 147.64 8.0697 172.669C8.0697 185.031 13.136 196.382 21.242 204.488C20.5332 205.907 19.8245 207.324 19.114 208.845C12.324 222.829 4.62395 238.637 1.68396 256.37C-4.19254 291.835 5.4342 320.309 28.6392 336.422C41.7117 345.439 56.1002 350 71.6034 350C98.2542 350 125.309 336.625 151.452 323.654C170.099 314.433 189.35 304.806 208.299 300.144C215.292 298.422 222.588 297.409 230.29 296.294C245.895 294.065 262.007 291.734 276.497 283.323C293.419 273.495 304.971 257.079 308.315 238.231C310.848 223.741 308.315 209.149 301.83 196.381C306.187 189.388 308.618 181.181 308.618 172.366ZM288.859 172.366C288.859 186.45 277.409 197.9 263.323 197.9C249.239 197.9 237.789 186.45 237.789 172.366C237.789 167.806 239.003 163.448 241.131 159.7C241.96 158.27 242.91 156.913 243.97 155.645C244.983 154.431 246.199 153.316 247.515 152.303L247.617 152.201C248.427 151.592 249.34 150.985 250.252 150.376C250.252 150.376 250.354 150.376 250.354 150.274C250.758 150.073 251.164 149.769 251.568 149.566C251.67 149.566 251.771 149.464 251.873 149.464C252.279 149.261 252.784 149.06 253.292 148.857C253.798 148.654 254.305 148.451 254.709 148.248C254.811 148.248 254.912 148.146 255.014 148.146C255.42 148.047 255.824 147.844 256.23 147.742C256.332 147.742 256.535 147.64 256.636 147.64C257.142 147.539 257.548 147.438 258.054 147.336H258.155L259.676 147.033C259.777 147.033 259.979 147.033 260.08 146.932C260.486 146.932 260.892 146.83 261.296 146.83H261.804C262.31 146.83 262.817 146.729 263.424 146.729H264.742C265.148 146.729 265.451 146.729 265.857 146.83H266.06C266.87 146.932 267.68 147.033 268.491 147.235C280.042 149.667 288.859 160.003 288.859 172.366ZM130.578 20.2668H289.974L253.393 128.184C251.873 128.489 250.354 128.996 248.833 129.502L210.328 50.9705L171.719 128.996C170.2 128.488 168.578 128.184 166.957 127.881L130.578 20.2668ZM203.03 163.55C201.105 154.025 196.242 145.513 189.35 139.23L210.328 96.873L231.504 140.142C225.222 146.424 220.663 154.431 218.838 163.55H203.03ZM152.264 147.539C152.77 147.437 153.176 147.336 153.682 147.235H153.986C154.392 147.133 154.797 147.133 155.203 147.033H155.607C156.013 147.033 156.317 146.932 156.722 146.932H160.675C161.079 146.932 161.384 147.033 161.688 147.033C161.891 147.033 161.991 147.033 162.194 147.133C162.6 147.234 162.904 147.235 163.309 147.336C163.41 147.336 163.512 147.336 163.715 147.438C164.22 147.539 164.728 147.641 165.132 147.742H165.234C165.64 147.844 166.046 147.945 166.45 148.146C166.551 148.146 166.653 148.248 166.856 148.248C167.16 148.349 167.565 148.451 167.869 148.654C167.971 148.654 168.072 148.755 168.174 148.755C168.578 148.958 168.984 149.06 169.388 149.261H169.49C169.997 149.464 170.401 149.667 170.807 149.971H170.909C171.315 150.174 171.719 150.477 172.125 150.68C172.227 150.68 172.227 150.782 172.328 150.782C172.732 150.985 173.037 151.288 173.443 151.491L173.543 151.592C174.759 152.504 175.874 153.517 176.988 154.53L177.09 154.632C178.103 155.746 179.116 156.963 179.927 158.28C182.646 162.437 184.09 167.298 184.081 172.265C184.081 186.349 172.631 197.799 158.547 197.799C144.461 197.799 133.011 186.349 133.011 172.265C132.909 160.408 141.117 150.376 152.264 147.539ZM52.5529 146.83C66.6387 146.83 78.0889 158.281 78.0889 172.366C78.0889 186.45 66.6387 197.9 52.5529 197.9C38.4689 197.9 27.0169 186.45 27.0169 172.366C27.0169 158.281 38.4689 146.83 52.5529 146.83ZM288.252 234.684C286.022 247.655 278.016 259.004 266.261 265.794C255.217 272.178 241.639 274.204 227.35 276.23C219.548 277.345 211.341 278.561 203.436 280.486C182.359 285.654 162.092 295.787 142.435 305.515C117.305 317.979 93.5922 329.733 71.6034 329.733C60.1532 329.733 49.9192 326.49 40.1909 319.702C17.8977 304.299 19.0124 275.42 21.6479 259.613C24.0804 244.818 30.8687 230.935 37.3542 217.662C37.7584 216.85 38.0629 216.141 38.4689 215.331C40.7386 216.151 43.0789 216.761 45.4602 217.154C41.6102 238.637 52.553 260.829 73.833 271.772L77.6829 273.798L81.8374 272.279C99.5719 265.996 115.987 255.761 130.477 242.081C138.686 234.381 145.677 226.072 151.554 217.053C153.885 217.459 156.216 217.56 158.547 217.56C179.624 217.56 197.357 203.068 202.423 183.613H219.447C224.513 203.17 242.246 217.56 263.323 217.56C271.733 217.56 279.537 215.229 286.225 211.278C288.859 218.876 289.669 226.781 288.252 234.684Z" fill="#121212"/>
</g>
<path d="M274.673 128.488L270.885 127.204L269.504 131.276L273.665 132.359L274.673 128.488ZM318.245 0L322.033 1.28458L323.825 -4H318.245V0ZM102.307 0V-4H96.7284L98.5188 1.28367L102.307 0ZM145.982 128.894L147.097 132.736L151.112 131.57L149.77 127.611L145.982 128.894ZM132.402 209.452L135.674 211.752L137.95 208.515L134.738 206.205L132.402 209.452ZM116.594 227.591L119.329 230.51L119.338 230.501L119.347 230.493L116.594 227.591ZM79.4067 251.606L77.169 254.922L78.9224 256.105L80.8875 255.322L79.4067 251.606ZM66.7402 215.938L65.5699 212.113L63.6702 212.694L62.9854 214.559L66.7402 215.938ZM21.242 204.488L24.8205 206.275L26.1079 203.697L24.0704 201.659L21.242 204.488ZM19.114 208.845L22.7122 210.592L22.7253 210.565L22.7379 210.538L19.114 208.845ZM1.68396 256.37L-2.26218 255.715L-2.26224 255.716L1.68396 256.37ZM28.6392 336.422L26.3578 339.707L26.3679 339.714L28.6392 336.422ZM151.452 323.654L149.679 320.068L149.675 320.071L151.452 323.654ZM208.299 300.144L209.255 304.028L209.256 304.028L208.299 300.144ZM230.29 296.294L229.724 292.334L229.717 292.335L230.29 296.294ZM276.497 283.323L278.505 286.783L278.506 286.782L276.497 283.323ZM308.315 238.231L312.254 238.93L312.256 238.92L308.315 238.231ZM301.83 196.381L298.435 194.266L297.242 196.181L298.264 198.193L301.83 196.381ZM241.131 159.7L237.671 157.693L237.662 157.709L237.653 157.725L241.131 159.7ZM243.97 155.645L247.039 158.209L247.041 158.207L243.97 155.645ZM247.515 152.303L249.955 155.472L250.161 155.314L250.344 155.131L247.515 152.303ZM247.617 152.201L245.213 149.003L244.988 149.173L244.788 149.373L247.617 152.201ZM250.252 150.376L250.252 146.376L249.039 146.376L248.03 147.05L250.252 150.376ZM250.354 150.274L248.571 146.693L246.354 147.797V150.274H250.354ZM251.568 149.566V145.566H250.62L249.773 145.991L251.568 149.566ZM251.873 149.464V153.464H252.817L253.662 153.042L251.873 149.464ZM253.292 148.857L254.777 152.571L254.782 152.569L253.292 148.857ZM254.709 148.248V144.248H253.762L252.914 144.673L254.709 148.248ZM255.014 148.146V152.146H255.498L255.968 152.031L255.014 148.146ZM256.23 147.742V143.742H255.738L255.26 143.861L256.23 147.742ZM256.636 147.64V151.64H257.034L257.423 151.562L256.636 147.64ZM258.054 147.336V143.336H257.656L257.267 143.414L258.054 147.336ZM258.155 147.336V151.336H258.549L258.936 151.259L258.155 147.336ZM259.676 147.033V143.033H259.282L258.895 143.11L259.676 147.033ZM260.08 146.932V142.932H258.423L257.252 144.103L260.08 146.932ZM265.857 146.83L264.887 150.711L265.365 150.83H265.857V146.83ZM266.06 146.83L266.557 142.861L266.309 142.83H266.06V146.83ZM268.491 147.235L267.526 151.117L267.596 151.134L267.666 151.149L268.491 147.235ZM130.578 20.2668V16.2668H125.004L126.789 21.5477L130.578 20.2668ZM289.974 20.2668L293.762 21.5508L295.553 16.2668H289.974V20.2668ZM253.393 128.184L254.179 132.106L256.441 131.653L257.182 129.468L253.393 128.184ZM248.833 129.502L245.241 131.263L246.78 134.4L250.095 133.297L248.833 129.502ZM210.328 50.9705L213.919 49.2095L210.344 41.9181L206.743 49.1965L210.328 50.9705ZM171.719 128.996L170.452 132.79L173.758 133.895L175.304 130.77L171.719 128.996ZM166.957 127.881L163.168 129.162L163.919 131.383L166.223 131.813L166.957 127.881ZM203.03 163.55L199.109 164.342L199.758 167.55H203.03V163.55ZM189.35 139.23L185.766 137.455L184.428 140.156L186.656 142.186L189.35 139.23ZM210.328 96.873L213.92 95.1146L210.349 87.8172L206.743 95.0978L210.328 96.873ZM231.504 140.142L234.333 142.97L236.353 140.95L235.097 138.383L231.504 140.142ZM218.838 163.55V167.55H222.117L222.76 164.335L218.838 163.55ZM152.264 147.539L151.477 143.617L151.377 143.637L151.278 143.663L152.264 147.539ZM153.682 147.235V143.235H153.285L152.895 143.313L153.682 147.235ZM153.986 147.235V151.235H154.479L154.957 151.115L153.986 147.235ZM155.203 147.033V143.033H154.719L154.248 143.149L155.203 147.033ZM162.194 147.133L160.43 150.723L160.811 150.91L161.224 151.014L162.194 147.133ZM163.309 147.336L162.335 151.216L162.814 151.336H163.309V147.336ZM163.715 147.438L161.926 151.015L162.404 151.254L162.928 151.359L163.715 147.438ZM165.132 147.742L164.158 151.622L164.638 151.742H165.132V147.742ZM165.234 147.742L166.204 143.861L165.726 143.742H165.234V147.742ZM166.45 148.146L164.667 151.727L165.509 152.146H166.45V148.146ZM166.856 148.248L168.121 144.453L167.505 144.248H166.856V148.248ZM167.869 148.654L165.65 151.982L166.658 152.654H167.869V148.654ZM168.174 148.755L169.969 145.181L169.122 144.755H168.174V148.755ZM169.388 149.261L167.606 152.842L168.448 153.261H169.388V149.261ZM169.49 149.261L170.975 145.547L170.26 145.261H169.49V149.261ZM170.807 149.971L168.407 153.171L169.474 153.971H170.807V149.971ZM170.909 149.971L172.698 146.394L171.853 145.971H170.909V149.971ZM172.125 150.68L170.336 154.258L171.181 154.68H172.125V150.68ZM172.328 150.782L174.123 147.207L173.276 146.782H172.328V150.782ZM173.443 151.491L176.296 148.687L175.828 148.211L175.232 147.913L173.443 151.491ZM173.543 151.592L170.69 154.396L170.902 154.611L171.143 154.793L173.543 151.592ZM176.988 154.53L179.817 151.702L179.749 151.634L179.679 151.57L176.988 154.53ZM177.09 154.632L180.05 151.941L179.986 151.871L179.918 151.803L177.09 154.632ZM179.927 158.28L176.519 160.376L176.549 160.423L176.579 160.47L179.927 158.28ZM184.081 172.265L180.081 172.258V172.265H184.081ZM133.011 172.265H137.011V172.248L137.011 172.23L133.011 172.265ZM288.252 234.684L284.314 233.978L284.312 233.992L284.309 234.006L288.252 234.684ZM266.261 265.794L264.26 262.33L264.259 262.33L266.261 265.794ZM227.35 276.23L226.788 272.27L226.784 272.271L227.35 276.23ZM203.436 280.486L202.49 276.6L202.484 276.602L203.436 280.486ZM142.435 305.515L140.661 301.93L140.657 301.932L142.435 305.515ZM40.1909 319.702L42.4799 316.422L42.4724 316.417L42.4648 316.411L40.1909 319.702ZM21.6479 259.613L25.5935 260.27L25.595 260.261L21.6479 259.613ZM37.3542 217.662L33.7734 215.879L33.7668 215.892L33.7602 215.906L37.3542 217.662ZM38.4689 215.331L39.8289 211.569L36.4855 210.36L34.8928 213.539L38.4689 215.331ZM45.4602 217.154L49.3975 217.86L50.113 213.867L46.1108 213.207L45.4602 217.154ZM73.833 271.772L75.6961 268.232L75.6792 268.223L75.6622 268.214L73.833 271.772ZM77.6829 273.798L75.8198 277.338L77.39 278.164L79.0565 277.555L77.6829 273.798ZM81.8374 272.279L80.5018 268.509L80.4828 268.515L80.4639 268.522L81.8374 272.279ZM130.477 242.081L127.74 239.164L127.731 239.172L130.477 242.081ZM151.554 217.053L152.24 213.112L149.642 212.659L148.203 214.869L151.554 217.053ZM202.423 183.613V179.613H199.331L198.552 182.605L202.423 183.613ZM219.447 183.613L223.319 182.61L222.543 179.613H219.447V183.613ZM286.225 211.278L290.005 209.968L288.402 205.345L284.191 207.834L286.225 211.278ZM312.618 172.366C312.618 149.412 296.844 130.129 275.681 124.618L273.665 132.359C291.412 136.981 304.618 153.163 304.618 172.366H312.618ZM278.462 129.773L322.033 1.28458L314.457 -1.28458L270.885 127.204L278.462 129.773ZM318.245 -4H102.307V4H318.245V-4ZM98.5188 1.28367L142.194 130.178L149.77 127.611L106.096 -1.28367L98.5188 1.28367ZM144.867 125.053C124.362 131.006 109.252 149.96 109.252 172.466H117.252C117.252 153.63 129.903 137.728 147.097 132.736L144.867 125.053ZM109.252 172.466C109.252 189.035 117.538 203.688 130.066 212.699L134.738 206.205C124.163 198.599 117.252 186.298 117.252 172.466H109.252ZM129.129 207.152C124.741 213.395 119.652 219.176 113.841 224.689L119.347 230.493C125.496 224.659 130.945 218.481 135.674 211.752L129.129 207.152ZM113.859 224.672C102.944 234.9 90.8982 242.721 77.9259 247.89L80.8875 255.322C94.8687 249.75 107.75 241.359 119.329 230.51L113.859 224.672ZM81.6444 248.291C70.8325 240.994 66.4365 228.368 70.495 217.317L62.9854 214.559C57.5169 229.45 63.6594 245.804 77.169 254.922L81.6444 248.291ZM67.9105 219.763C88.095 213.587 102.76 194.736 102.76 172.568H94.7599C94.7599 191.136 82.4714 206.942 65.5699 212.113L67.9105 219.763ZM102.76 172.568C102.76 145.324 80.5969 123.272 53.4647 123.272V131.272C76.19 131.272 94.7599 149.754 94.7599 172.568H102.76ZM53.4647 123.272C26.2269 123.272 4.0697 145.432 4.0697 172.669H12.0697C12.0697 149.849 30.6455 131.272 53.4647 131.272V123.272ZM4.0697 172.669C4.0697 186.132 9.58638 198.489 18.4135 207.316L24.0704 201.659C16.6855 194.274 12.0697 183.93 12.0697 172.669H4.0697ZM17.6634 202.7C16.9584 204.112 16.2262 205.576 15.49 207.152L22.7379 210.538C23.4227 209.072 24.108 207.701 24.8205 206.275L17.6634 202.7ZM15.5157 207.098C8.7608 221.01 0.787235 237.323 -2.26218 255.715L5.63009 257.024C8.46067 239.951 15.8871 224.649 22.7122 210.592L15.5157 207.098ZM-2.26224 255.716C-8.30979 292.214 1.51942 322.461 26.3578 339.707L30.9206 333.136C9.34898 318.158 -0.0753029 291.457 5.63015 257.024L-2.26224 255.716ZM26.3679 339.714C40.0879 349.179 55.2646 354 71.6034 354V346C56.9358 346 43.3355 341.7 30.9105 333.129L26.3679 339.714ZM71.6034 354C99.3728 354 127.313 340.096 153.23 327.237L149.675 320.071C123.305 333.154 97.1355 346 71.6034 346V354ZM153.226 327.239C171.982 317.964 190.816 308.565 209.255 304.028L207.344 296.26C187.885 301.048 168.216 310.902 149.679 320.068L153.226 327.239ZM209.256 304.028C216.019 302.363 223.1 301.377 230.863 300.253L229.717 292.335C222.077 293.441 214.566 294.482 207.343 296.26L209.256 304.028ZM230.856 300.254C246.349 298.04 263.239 295.644 278.505 286.783L274.489 279.864C260.775 287.824 245.441 290.089 229.724 292.334L230.856 300.254ZM278.506 286.782C296.426 276.375 308.7 258.96 312.254 238.93L304.377 237.532C301.242 255.197 290.413 270.616 274.488 279.864L278.506 286.782ZM312.256 238.92C314.946 223.523 312.248 208.058 305.396 194.57L298.264 198.193C304.383 210.241 306.749 223.959 304.375 237.542L312.256 238.92ZM305.225 198.497C309.978 190.869 312.618 181.929 312.618 172.366H304.618C304.618 180.433 302.397 187.908 298.435 194.266L305.225 198.497ZM284.859 172.366C284.859 184.241 275.2 193.9 263.323 193.9V201.9C279.618 201.9 292.859 188.66 292.859 172.366H284.859ZM263.323 193.9C251.448 193.9 241.789 184.241 241.789 172.366H233.789C233.789 188.659 247.03 201.9 263.323 201.9V193.9ZM241.789 172.366C241.789 168.517 242.814 164.837 244.61 161.675L237.653 157.725C235.192 162.059 233.789 167.095 233.789 172.366H241.789ZM244.591 161.707C245.307 160.473 246.126 159.303 247.039 158.209L240.9 153.081C239.694 154.523 238.614 156.067 237.671 157.693L244.591 161.707ZM247.041 158.207C247.823 157.27 248.811 156.353 249.955 155.472L245.075 149.133C243.588 150.278 242.142 151.591 240.898 153.083L247.041 158.207ZM250.344 155.131L250.445 155.029L244.788 149.373L244.687 149.474L250.344 155.131ZM250.02 155.399C250.723 154.87 251.533 154.33 252.474 153.702L248.03 147.05C247.147 147.639 246.131 148.314 245.213 149.003L250.02 155.399ZM250.252 150.376C250.252 154.376 250.254 154.376 250.256 154.376C250.257 154.376 250.259 154.376 250.26 154.376C250.263 154.376 250.265 154.376 250.268 154.376C250.273 154.376 250.278 154.376 250.284 154.376C250.295 154.376 250.306 154.375 250.317 154.375C250.339 154.375 250.362 154.374 250.386 154.374C250.434 154.372 250.486 154.369 250.541 154.365C250.651 154.358 250.78 154.344 250.926 154.32C251.197 154.275 251.62 154.177 252.092 153.941C252.579 153.697 253.188 153.269 253.666 152.552C254.161 151.809 254.354 151 254.354 150.274H246.354C246.354 149.6 246.534 148.828 247.01 148.114C247.469 147.425 248.052 147.016 248.514 146.785C248.96 146.562 249.358 146.471 249.611 146.429C249.746 146.406 249.868 146.393 249.972 146.386C250.024 146.382 250.074 146.379 250.12 146.378C250.143 146.377 250.166 146.377 250.188 146.376C250.199 146.376 250.21 146.376 250.221 146.376C250.226 146.376 250.231 146.376 250.237 146.376C250.239 146.376 250.242 146.376 250.244 146.376C250.246 146.376 250.248 146.376 250.248 146.376C250.25 146.376 250.252 146.376 250.252 150.376ZM252.136 153.855C252.542 153.653 252.911 153.419 253.082 153.312C253.191 153.244 253.254 153.205 253.31 153.171C253.363 153.139 253.376 153.134 253.363 153.14L249.773 145.991C249.373 146.192 249.007 146.425 248.84 146.529C248.606 146.675 248.569 146.694 248.571 146.693L252.136 153.855ZM251.568 153.566C251.914 153.566 252.217 153.522 252.461 153.469C252.703 153.416 252.903 153.35 253.049 153.295C253.194 153.24 253.31 153.188 253.38 153.155C253.447 153.124 253.505 153.095 253.509 153.092C253.53 153.082 253.497 153.099 253.456 153.118C253.411 153.139 253.321 153.18 253.201 153.225C253.081 153.27 252.906 153.328 252.69 153.376C252.47 153.424 252.194 153.464 251.873 153.464V145.464C251.526 145.464 251.224 145.507 250.98 145.561C250.738 145.614 250.538 145.68 250.392 145.735C250.247 145.789 250.131 145.841 250.061 145.874C249.994 145.905 249.936 145.935 249.931 145.937C249.911 145.947 249.944 145.931 249.984 145.912C250.029 145.891 250.12 145.849 250.24 145.804C250.36 145.759 250.535 145.701 250.751 145.654C250.97 145.606 251.247 145.566 251.568 145.566V153.566ZM253.662 153.042C253.886 152.929 254.216 152.795 254.777 152.571L251.806 145.143C251.353 145.324 250.671 145.593 250.084 145.886L253.662 153.042ZM254.782 152.569C255.235 152.387 255.918 152.117 256.504 151.822L252.914 144.673C252.692 144.785 252.36 144.921 251.802 145.145L254.782 152.569ZM254.709 152.248C255.056 152.248 255.358 152.204 255.602 152.151C255.844 152.098 256.044 152.032 256.19 151.977C256.335 151.923 256.451 151.87 256.521 151.837C256.588 151.806 256.646 151.777 256.651 151.775C256.671 151.764 256.638 151.781 256.597 151.8C256.553 151.821 256.462 151.863 256.342 151.907C256.222 151.953 256.047 152.011 255.831 152.058C255.612 152.106 255.335 152.146 255.014 152.146V144.146C254.668 144.146 254.366 144.19 254.121 144.243C253.879 144.296 253.679 144.362 253.533 144.417C253.388 144.471 253.272 144.524 253.202 144.557C253.136 144.588 253.078 144.617 253.073 144.619C253.052 144.63 253.085 144.613 253.126 144.594C253.171 144.573 253.261 144.531 253.381 144.487C253.501 144.441 253.676 144.383 253.893 144.336C254.112 144.288 254.389 144.248 254.709 144.248V152.248ZM255.968 152.031C256.439 151.915 256.862 151.752 257.026 151.69C257.273 151.598 257.258 151.608 257.2 151.623L255.26 143.861C254.797 143.977 254.376 144.14 254.219 144.199C253.977 144.29 253.995 144.278 254.06 144.262L255.968 152.031ZM256.23 151.742C256.4 151.742 256.548 151.732 256.668 151.719C256.788 151.706 256.893 151.69 256.979 151.675C257.147 151.645 257.285 151.61 257.375 151.585C257.467 151.56 257.544 151.536 257.593 151.52C257.64 151.505 257.684 151.491 257.698 151.486C257.722 151.478 257.716 151.48 257.706 151.483C257.695 151.487 257.654 151.5 257.597 151.515C257.542 151.53 257.438 151.557 257.301 151.582C257.23 151.595 257.139 151.609 257.033 151.62C256.928 151.631 256.794 151.64 256.636 151.64V143.64C256.466 143.64 256.318 143.651 256.199 143.663C256.078 143.676 255.973 143.692 255.887 143.708C255.719 143.738 255.581 143.773 255.492 143.797C255.399 143.823 255.322 143.847 255.274 143.862C255.226 143.877 255.183 143.892 255.168 143.897C255.145 143.904 255.15 143.903 255.16 143.899C255.171 143.896 255.212 143.883 255.27 143.867C255.324 143.852 255.429 143.825 255.566 143.801C255.637 143.788 255.727 143.774 255.833 143.763C255.938 143.752 256.073 143.742 256.23 143.742V151.742ZM257.423 151.562C257.723 151.502 257.99 151.443 258.214 151.393C258.446 151.341 258.635 151.299 258.841 151.258L257.267 143.414C256.967 143.474 256.7 143.534 256.476 143.584C256.244 143.635 256.055 143.677 255.849 143.719L257.423 151.562ZM258.054 151.336H258.155V143.336H258.054V151.336ZM258.936 151.259L260.457 150.956L258.895 143.11L257.374 143.413L258.936 151.259ZM259.676 151.033C259.703 151.033 260.092 151.04 260.539 150.966C260.899 150.905 261.976 150.693 262.909 149.76L257.252 144.103C257.692 143.663 258.149 143.422 258.468 143.291C258.786 143.16 259.055 143.103 259.217 143.076C259.513 143.026 259.75 143.033 259.676 143.033V151.033ZM260.08 150.932C260.574 150.932 261.025 150.87 261.186 150.85C261.433 150.819 261.386 150.83 261.296 150.83V142.83C260.803 142.83 260.351 142.892 260.192 142.912C259.947 142.943 259.992 142.932 260.08 142.932V150.932ZM261.296 150.83H261.804V142.83H261.296V150.83ZM261.804 150.83C262.286 150.83 262.744 150.782 262.956 150.761C263.224 150.736 263.332 150.729 263.424 150.729V142.729C262.91 142.729 262.461 142.772 262.196 142.798C262.046 142.812 261.965 142.82 261.889 142.825C261.821 142.83 261.799 142.83 261.804 142.83V150.83ZM263.424 150.729H264.742V142.729H263.424V150.729ZM264.742 150.729C264.795 150.729 264.835 150.729 264.873 150.729C264.911 150.729 264.939 150.729 264.961 150.73C265.007 150.731 265.019 150.732 265.014 150.731C265.006 150.731 264.984 150.729 264.954 150.724C264.924 150.719 264.901 150.714 264.887 150.711L266.827 142.95C265.893 142.716 265.144 142.729 264.742 142.729V150.729ZM265.857 150.83H266.06V142.83H265.857V150.83ZM265.563 150.799C266.409 150.905 266.984 150.982 267.526 151.117L269.455 143.352C268.377 143.085 267.332 142.958 266.557 142.861L265.563 150.799ZM267.666 151.149C277.414 153.201 284.859 161.941 284.859 172.366H292.859C292.859 158.064 282.671 146.133 269.315 143.32L267.666 151.149ZM130.578 24.2668H289.974V16.2668H130.578V24.2668ZM286.185 18.9827L249.605 126.9L257.182 129.468L293.762 21.5508L286.185 18.9827ZM252.608 124.262C250.801 124.624 249.041 125.217 247.571 125.706L250.095 133.297C251.667 132.775 252.945 132.353 254.179 132.106L252.608 124.262ZM252.424 127.741L213.919 49.2095L206.736 52.7315L245.241 131.263L252.424 127.741ZM206.743 49.1965L168.134 127.222L175.304 130.77L213.913 52.7445L206.743 49.1965ZM172.987 125.202C171.162 124.592 169.264 124.243 167.692 123.949L166.223 131.813C167.892 132.125 169.239 132.385 170.452 132.79L172.987 125.202ZM170.747 126.6L134.368 18.9858L126.789 21.5477L163.168 129.162L170.747 126.6ZM206.951 162.757C204.859 152.407 199.571 143.134 192.045 136.274L186.656 142.186C192.913 147.891 197.351 155.642 199.109 164.342L206.951 162.757ZM192.935 141.005L213.912 98.6482L206.743 95.0978L185.766 137.455L192.935 141.005ZM206.735 98.6314L227.912 141.9L235.097 138.383L213.92 95.1146L206.735 98.6314ZM228.676 137.313C221.876 144.114 216.907 152.817 214.916 162.765L222.76 164.335C224.42 156.044 228.568 148.735 234.333 142.97L228.676 137.313ZM218.838 159.55H203.03V167.55H218.838V159.55ZM153.052 151.461C153.351 151.401 153.618 151.341 153.842 151.291C154.074 151.24 154.263 151.198 154.469 151.156L152.895 143.313C152.595 143.373 152.328 143.432 152.104 143.482C151.872 143.534 151.683 143.576 151.477 143.617L153.052 151.461ZM153.682 151.235H153.986V143.235H153.682V151.235ZM154.957 151.115C154.887 151.132 154.853 151.132 155.088 151.103C155.251 151.082 155.688 151.033 156.157 150.918L154.248 143.149C154.312 143.133 154.343 143.134 154.102 143.164C153.931 143.185 153.492 143.235 153.016 143.354L154.957 151.115ZM155.203 151.033H155.607V143.033H155.203V151.033ZM155.607 151.033C156.132 151.033 156.574 150.965 156.731 150.942C156.931 150.914 156.843 150.932 156.722 150.932V142.932C156.197 142.932 155.754 143.001 155.599 143.023C155.401 143.051 155.488 143.033 155.607 143.033V151.033ZM156.722 150.932H160.675V142.932H156.722V150.932ZM160.675 150.932C160.548 150.932 160.466 150.914 160.61 150.936C160.655 150.943 160.816 150.969 160.972 150.988C161.144 151.009 161.394 151.033 161.688 151.033V143.033C161.83 143.033 161.927 143.045 161.945 143.047C161.945 143.047 161.947 143.047 161.828 143.029C161.642 143 161.206 142.932 160.675 142.932V150.932ZM161.688 151.033C161.758 151.033 161.722 151.034 161.673 151.032C161.605 151.029 161.467 151.022 161.291 150.993C160.885 150.926 160.582 150.798 160.43 150.723L163.958 143.543C163.603 143.369 163.149 143.191 162.591 143.099C162.132 143.023 161.711 143.033 161.688 143.033V151.033ZM161.224 151.014C161.652 151.121 162.019 151.17 162.186 151.194C162.373 151.221 162.359 151.222 162.335 151.216L164.283 143.456C163.854 143.349 163.486 143.299 163.318 143.275C163.13 143.248 163.142 143.247 163.164 143.252L161.224 151.014ZM163.309 151.336C163.353 151.336 163.052 151.343 162.689 151.271C162.329 151.199 162.066 151.085 161.926 151.015L165.504 143.86C165.16 143.688 164.745 143.524 164.258 143.426C163.769 143.329 163.366 143.336 163.309 143.336V151.336ZM162.928 151.359C163.467 151.467 163.867 151.549 164.158 151.622L166.106 143.862C165.588 143.732 164.974 143.611 164.502 143.516L162.928 151.359ZM165.132 151.742H165.234V143.742H165.132V151.742ZM164.264 151.623C164.37 151.649 164.443 151.668 164.512 151.686C164.578 151.703 164.621 151.716 164.652 151.725C164.711 151.744 164.705 151.746 164.667 151.727L168.233 144.565C167.381 144.142 166.561 143.951 166.204 143.861L164.264 151.623ZM166.45 152.146C166.128 152.146 165.854 152.106 165.646 152.061C165.443 152.017 165.285 151.965 165.196 151.934C165.15 151.918 165.113 151.904 165.09 151.895C165.067 151.886 165.051 151.879 165.049 151.878C165.047 151.877 165.047 151.877 165.05 151.879C165.052 151.879 165.059 151.882 165.064 151.884C165.077 151.89 165.101 151.9 165.129 151.911C165.246 151.957 165.482 152.048 165.788 152.121C166.104 152.197 166.462 152.248 166.856 152.248V144.248C167.148 144.248 167.418 144.286 167.655 144.342C167.881 144.397 168.047 144.462 168.1 144.483C168.113 144.488 168.121 144.492 168.119 144.491C168.117 144.49 168.117 144.49 168.111 144.487C168.106 144.485 168.099 144.482 168.09 144.479C168.062 144.467 167.972 144.43 167.859 144.39C167.743 144.349 167.56 144.29 167.33 144.24C167.096 144.19 166.798 144.146 166.45 144.146V152.146ZM165.591 152.042C165.658 152.065 165.721 152.085 165.769 152.1C165.794 152.108 165.818 152.116 165.839 152.122C165.861 152.129 165.879 152.135 165.897 152.14C165.932 152.151 165.957 152.159 165.978 152.166C165.998 152.173 166.009 152.177 166.014 152.179C166.019 152.18 166.015 152.179 166.004 152.174C165.992 152.17 165.971 152.161 165.942 152.148C165.913 152.134 165.873 152.115 165.825 152.088C165.777 152.062 165.718 152.027 165.65 151.982L170.088 145.326C169.541 144.961 169.015 144.756 168.711 144.647C168.548 144.588 168.4 144.541 168.303 144.511C168.181 144.472 168.156 144.465 168.121 144.453L165.591 152.042ZM167.869 152.654C167.548 152.654 167.272 152.614 167.052 152.566C166.836 152.518 166.661 152.46 166.541 152.415C166.421 152.37 166.331 152.329 166.286 152.308C166.245 152.289 166.212 152.272 166.233 152.282C166.237 152.285 166.295 152.314 166.362 152.345C166.432 152.378 166.548 152.43 166.693 152.485C166.839 152.539 167.039 152.606 167.281 152.658C167.525 152.712 167.827 152.755 168.174 152.755V144.755C168.495 144.755 168.771 144.795 168.99 144.843C169.207 144.891 169.382 144.949 169.502 144.994C169.622 145.039 169.712 145.08 169.757 145.101C169.798 145.12 169.831 145.137 169.81 145.127C169.806 145.124 169.747 145.095 169.681 145.064C169.611 145.031 169.495 144.979 169.35 144.924C169.204 144.87 169.004 144.803 168.762 144.751C168.518 144.697 168.215 144.654 167.869 144.654V152.654ZM166.379 152.33C166.8 152.542 167.198 152.687 167.377 152.754C167.61 152.841 167.619 152.848 167.606 152.842L171.171 145.68C170.753 145.472 170.357 145.328 170.185 145.263C169.959 145.178 169.951 145.172 169.969 145.181L166.379 152.33ZM169.388 153.261H169.49V145.261H169.388V153.261ZM168.004 152.975C168.174 153.043 168.262 153.085 168.312 153.112C168.354 153.134 168.38 153.151 168.407 153.171L173.207 146.771C172.426 146.185 171.676 145.828 170.975 145.547L168.004 152.975ZM170.807 153.971H170.909V145.971H170.807V153.971ZM169.12 153.549C169.107 153.543 169.12 153.549 169.173 153.58C169.228 153.613 169.291 153.652 169.399 153.719C169.569 153.825 169.934 154.057 170.336 154.258L173.914 147.103C173.927 147.109 173.914 147.103 173.861 147.072C173.806 147.039 173.743 147 173.635 146.933C173.465 146.827 173.1 146.595 172.698 146.394L169.12 153.549ZM172.125 154.68C171.798 154.68 171.445 154.638 171.08 154.536C170.901 154.486 170.73 154.424 170.567 154.353C170.405 154.282 170.259 154.205 170.128 154.126C169.867 153.97 169.676 153.814 169.561 153.712C169.503 153.661 169.459 153.619 169.433 153.594C169.41 153.572 169.392 153.553 169.398 153.56C169.399 153.56 169.406 153.567 169.414 153.575C169.423 153.584 169.436 153.597 169.453 153.613C169.484 153.644 169.535 153.692 169.6 153.749C169.729 153.863 169.934 154.03 170.21 154.196C170.349 154.279 170.504 154.361 170.675 154.436C170.846 154.511 171.027 154.576 171.216 154.629C171.6 154.737 171.976 154.782 172.328 154.782V146.782C172.655 146.782 173.009 146.824 173.373 146.926C173.552 146.976 173.724 147.038 173.886 147.109C174.048 147.18 174.195 147.257 174.326 147.336C174.586 147.492 174.777 147.648 174.892 147.75C174.95 147.801 174.994 147.843 175.02 147.868C175.043 147.89 175.062 147.909 175.055 147.902C175.054 147.902 175.047 147.895 175.039 147.887C175.03 147.878 175.017 147.865 175.001 147.849C174.969 147.818 174.918 147.77 174.854 147.713C174.725 147.599 174.519 147.432 174.243 147.266C174.104 147.183 173.949 147.101 173.778 147.026C173.607 146.951 173.427 146.886 173.237 146.833C172.853 146.725 172.478 146.68 172.125 146.68V154.68ZM170.533 154.356C170.416 154.297 170.349 154.241 170.563 154.393C170.707 154.496 171.129 154.806 171.654 155.068L175.232 147.913C175.351 147.972 175.417 148.029 175.206 147.879C175.066 147.779 174.645 147.469 174.123 147.207L170.533 154.356ZM170.59 154.294L170.69 154.396L176.396 148.788L176.296 148.687L170.59 154.294ZM171.143 154.793C172.184 155.572 173.161 156.457 174.298 157.49L179.679 151.57C178.587 150.577 177.334 149.435 175.942 148.391L171.143 154.793ZM174.16 157.359L174.262 157.46L179.918 151.803L179.817 151.702L174.16 157.359ZM174.13 157.322C175.078 158.365 175.9 159.368 176.519 160.376L183.334 156.185C182.333 154.557 181.129 153.128 180.05 151.941L174.13 157.322ZM176.579 160.47C178.871 163.974 180.088 168.071 180.081 172.258L188.081 172.272C188.091 166.525 186.42 160.9 183.274 156.091L176.579 160.47ZM180.081 172.265C180.081 184.14 170.422 193.799 158.547 193.799V201.799C174.84 201.799 188.081 188.558 188.081 172.265H180.081ZM158.547 193.799C146.67 193.799 137.011 184.139 137.011 172.265H129.011C129.011 188.558 142.252 201.799 158.547 201.799V193.799ZM137.011 172.23C136.926 162.298 143.808 153.818 153.251 151.415L151.278 143.663C138.426 146.933 128.893 158.519 129.011 172.299L137.011 172.23ZM52.5529 150.83C64.4296 150.83 74.0889 160.49 74.0889 172.366H82.0889C82.0889 156.071 68.8478 142.83 52.5529 142.83V150.83ZM74.0889 172.366C74.0889 184.241 64.4297 193.9 52.5529 193.9V201.9C68.8476 201.9 82.0889 188.66 82.0889 172.366H74.0889ZM52.5529 193.9C40.6777 193.9 31.0169 184.241 31.0169 172.366H23.0169C23.0169 188.66 36.2602 201.9 52.5529 201.9V193.9ZM31.0169 172.366C31.0169 160.49 40.6779 150.83 52.5529 150.83V142.83C36.26 142.83 23.0169 156.071 23.0169 172.366H31.0169ZM284.309 234.006C282.288 245.769 275.02 256.115 264.26 262.33L268.262 269.257C281.012 261.892 289.757 249.541 292.194 235.361L284.309 234.006ZM264.259 262.33C254.006 268.257 241.24 270.221 226.788 272.27L227.912 280.191C242.037 278.187 256.428 276.098 268.263 269.257L264.259 262.33ZM226.784 272.271C218.995 273.384 210.607 274.623 202.49 276.6L204.383 284.373C212.074 282.5 220.102 281.307 227.916 280.19L226.784 272.271ZM202.484 276.602C180.899 281.894 160.226 292.248 140.661 301.93L144.209 309.1C163.959 299.326 183.819 289.415 204.389 284.371L202.484 276.602ZM140.657 301.932C128.053 308.183 116.022 314.145 104.419 318.559C92.8203 322.972 81.9117 325.733 71.6034 325.733V333.733C83.284 333.733 95.2259 330.617 107.264 326.036C119.296 321.458 131.687 315.311 144.212 309.098L140.657 301.932ZM71.6034 325.733C60.9937 325.733 51.5549 322.754 42.4799 316.422L37.902 322.983C48.2835 330.227 59.3127 333.733 71.6034 333.733V325.733ZM42.4648 316.411C32.4044 309.46 27.535 299.446 25.4966 289.04C23.4462 278.573 24.3165 267.93 25.5935 260.27L17.7024 258.955C16.3439 267.103 15.3391 278.803 17.6458 290.578C19.9644 302.414 25.6842 314.541 37.9171 322.993L42.4648 316.411ZM25.595 260.261C27.9158 246.146 34.4136 232.792 40.9482 219.418L33.7602 215.906C27.3238 229.079 20.2451 243.49 17.7009 258.964L25.595 260.261ZM40.935 219.444C41.1632 218.986 41.3614 218.56 41.5353 218.188C41.7142 217.805 41.8701 217.472 42.0451 217.122L34.8928 213.539C34.6618 214 34.4625 214.426 34.2865 214.803C34.1057 215.19 33.9495 215.525 33.7734 215.879L40.935 219.444ZM37.109 219.092C39.609 219.996 42.1867 220.668 44.8096 221.101L46.1108 213.207C43.9711 212.855 41.8683 212.306 39.8289 211.569L37.109 219.092ZM41.5229 216.448C37.3469 239.751 49.2433 263.625 72.0037 275.329L75.6622 268.214C55.8626 258.033 45.8735 237.523 49.3975 217.86L41.5229 216.448ZM71.9698 275.311L75.8198 277.338L79.5461 270.258L75.6961 268.232L71.9698 275.311ZM79.0565 277.555L83.211 276.036L80.4639 268.522L76.3094 270.041L79.0565 277.555ZM83.1731 276.049C101.471 269.567 118.358 259.023 133.223 244.99L127.731 239.172C113.615 252.499 97.6732 262.426 80.5018 268.509L83.1731 276.049ZM133.213 244.998C141.647 237.088 148.847 228.535 154.905 219.236L148.203 214.869C142.508 223.609 135.725 231.674 127.74 239.164L133.213 244.998ZM150.868 220.993C153.522 221.456 156.112 221.56 158.547 221.56V213.56C156.32 213.56 154.247 213.461 152.24 213.112L150.868 220.993ZM158.547 221.56C181.5 221.56 200.783 205.784 206.294 184.622L198.552 182.605C193.931 200.352 177.748 213.56 158.547 213.56V221.56ZM202.423 187.613H219.447V179.613H202.423V187.613ZM215.575 184.617C221.087 205.894 240.379 221.56 263.323 221.56V213.56C244.113 213.56 227.939 200.445 223.319 182.61L215.575 184.617ZM263.323 221.56C272.486 221.56 280.987 219.018 288.26 214.721L284.191 207.834C278.086 211.44 270.981 213.56 263.323 213.56V221.56ZM282.446 212.587C284.878 219.604 285.599 226.814 284.314 233.978L292.189 235.39C293.739 226.747 292.84 218.148 290.005 209.968L282.446 212.587Z" fill="#99424F" mask="url(#path-2-inside-1_199_241)"/>
</g>
<defs>
<filter id="filter0_i_199_241" x="0" y="0" width="318.245" height="350" filterUnits="userSpaceOnUse" color-interpolation-filters="sRGB">
<feFlood flood-opacity="0" result="BackgroundImageFix"/>
<feBlend mode="normal" in="SourceGraphic" in2="BackgroundImageFix" result="shape"/>
<feColorMatrix in="SourceAlpha" type="matrix" values="0 0 0 0 0 0 0 0 0 0 0 0 0 0 0 0 0 0 127 0" result="hardAlpha"/>
<feOffset/>
<feGaussianBlur stdDeviation="11"/>
<feComposite in2="hardAlpha" operator="arithmetic" k2="-1" k3="1"/>
<feColorMatrix type="matrix" values="0 0 0 0 0.6 0 0 0 0 0.258824 0 0 0 0 0.309804 0 0 0 1 0"/>
<feBlend mode="normal" in2="shape" result="effect1_innerShadow_199_241"/>
</filter>
</defs>
</svg>
