<svg width="344" height="311" viewBox="0 0 344 311" fill="none" xmlns="http://www.w3.org/2000/svg">
<mask id="mask0_199_77" style="mask-type:alpha" maskUnits="userSpaceOnUse" x="-4" y="-2" width="348" height="317">
<path d="M336 0H4C0.686289 0 -2 2.6863 -2 6V307C-2 310.314 0.686291 313 4 313H336C339.314 313 342 310.314 342 307V6C342 2.68629 339.314 0 336 0Z" fill="#121212" stroke="#F5DE19" stroke-width="4"/>
</mask>
<g mask="url(#mask0_199_77)">
<g filter="url(#filter0_i_199_77)">
<path d="M272.435 213.822C277.897 224.892 286.372 234.197 296.885 240.666C307.398 247.136 319.524 250.508 331.868 250.395C356.784 250.395 372.716 237.937 372.716 220.679C372.716 200.106 356.35 192.746 328.919 180.745L313.878 174.299C270.446 155.806 241.645 132.65 241.645 83.6868C241.645 38.5865 275.933 4.2299 329.719 4.2299C347.13 2.97557 364.526 6.87372 379.736 15.4384C394.947 24.0031 407.3 36.8554 415.256 52.3932L368.236 82.4524C365.171 74.7491 359.838 68.1587 352.943 63.5542C346.048 58.9496 337.918 56.5481 329.628 56.6678C326.011 56.3057 322.358 56.7011 318.902 57.8287C315.446 58.9563 312.263 60.7915 309.555 63.2172C306.848 65.643 304.675 68.6062 303.176 71.9179C301.677 75.2297 300.884 78.8174 300.849 82.4524C300.849 100.488 312.026 107.803 337.834 119.026L352.875 125.473C403.987 147.394 432.881 169.727 432.881 219.948C432.881 274.1 390.341 303.771 333.217 303.771C310.961 305.174 288.775 300.115 269.328 289.201C249.882 278.288 234.005 261.986 223.609 242.258L272.435 213.822ZM59.9634 219.033C69.404 235.789 77.9989 249.961 98.6632 249.961C118.413 249.961 130.894 242.235 130.894 212.176V7.6587H191.035V212.976C191.035 275.243 154.461 303.588 101.223 303.588C82.405 304.616 63.7157 299.927 47.6125 290.135C31.5093 280.343 18.7458 265.908 11 248.727L59.9634 219.033Z" fill="#121212"/>
</g>
<path d="M274.229 212.937L273.281 211.015L271.429 212.093L222.602 240.529L220.946 241.494L221.84 243.19C232.415 263.259 248.567 279.843 268.35 290.945C288.114 302.037 310.661 307.185 333.279 305.771C362.138 305.76 387.511 298.261 405.718 283.729C423.991 269.145 434.881 247.603 434.881 219.948C434.881 194.394 427.506 175.749 413.508 160.734C399.597 145.813 379.268 134.616 353.663 123.634L353.663 123.634L338.632 117.192C338.63 117.192 338.629 117.191 338.627 117.19C325.695 111.566 316.751 107.046 311.011 101.816C305.434 96.7342 302.851 90.9484 302.849 82.463C302.883 79.1088 303.615 75.7985 304.998 72.7427C306.383 69.684 308.389 66.9472 310.89 64.7068C313.39 62.4664 316.33 60.7715 319.522 59.73C322.714 58.6886 326.088 58.3234 329.428 58.6579L329.542 58.6692L329.657 58.6676C337.541 58.5538 345.275 60.8379 351.832 65.2174C358.39 69.5969 363.462 75.8651 366.378 83.1919L367.273 85.4418L369.313 84.1375L416.334 54.0783L417.865 53.0994L417.037 51.4817C408.902 35.5944 396.27 22.453 380.718 13.6957C365.186 4.95014 347.426 0.963258 329.647 2.22992C302.356 2.24521 279.853 10.9754 264.15 25.5813C248.427 40.2055 239.645 60.6098 239.645 83.6868C239.645 108.611 246.995 127.127 259.979 141.747C272.902 156.299 291.285 166.853 313.095 176.139L328.117 182.577C328.119 182.578 328.121 182.579 328.122 182.579C341.919 188.616 352.594 193.351 359.868 199.07C363.466 201.898 366.156 204.913 367.956 208.371C369.752 211.82 370.716 215.814 370.716 220.679C370.716 228.627 367.073 235.479 360.443 240.404C353.774 245.357 344.013 248.395 331.868 248.395H331.859L331.85 248.396C319.882 248.505 308.126 245.236 297.933 238.963C287.741 232.691 279.524 223.669 274.229 212.937ZM61.7058 218.052L60.6921 216.252L58.9263 217.323L9.96292 247.017L8.44907 247.935L9.17672 249.549C17.0884 267.098 30.1253 281.842 46.5734 291.844C63.0059 301.836 82.0748 306.626 101.278 305.588C128.209 305.578 151.197 298.4 167.464 283.088C183.765 267.746 193.035 244.505 193.035 212.976V7.6587V5.6587H191.035H130.894H128.894V7.6587V212.176C128.894 226.997 125.806 235.801 120.758 240.939C115.729 246.059 108.337 247.961 98.6632 247.961C88.8737 247.961 82.0458 244.636 76.4847 239.333C70.8236 233.935 66.4496 226.471 61.7058 218.052Z" stroke="#F5DE19" stroke-width="4"/>
</g>
<defs>
<filter id="filter0_i_199_77" x="5.89844" y="0" width="430.982" height="308" filterUnits="userSpaceOnUse" color-interpolation-filters="sRGB">
<feFlood flood-opacity="0" result="BackgroundImageFix"/>
<feBlend mode="normal" in="SourceGraphic" in2="BackgroundImageFix" result="shape"/>
<feColorMatrix in="SourceAlpha" type="matrix" values="0 0 0 0 0 0 0 0 0 0 0 0 0 0 0 0 0 0 127 0" result="hardAlpha"/>
<feOffset/>
<feGaussianBlur stdDeviation="23"/>
<feComposite in2="hardAlpha" operator="arithmetic" k2="-1" k3="1"/>
<feColorMatrix type="matrix" values="0 0 0 0 0.960784 0 0 0 0 0.870588 0 0 0 0 0.0980392 0 0 0 1 0"/>
<feBlend mode="normal" in2="shape" result="effect1_innerShadow_199_77"/>
</filter>
</defs>
</svg>
