<svg width="344" height="303" viewBox="0 0 344 303" fill="none" xmlns="http://www.w3.org/2000/svg">
<mask id="mask0_199_136" style="mask-type:alpha" maskUnits="userSpaceOnUse" x="-4" y="-4" width="348" height="311">
<path d="M336 -2H4C0.686296 -2 -2 0.68628 -2 3.99999V299C-2 302.314 0.686291 305 4 305H336C339.314 305 342 302.314 342 299V4C342 0.686292 339.314 -2 336 -2Z" fill="#121212" stroke="#007ACC" stroke-width="4"/>
</mask>
<g mask="url(#mask0_199_136)">
<g filter="url(#filter0_i_199_136)">
<mask id="path-2-outside-1_199_136" maskUnits="userSpaceOnUse" x="6" y="0" width="434" height="288" fill="black">
<rect fill="white" x="6" width="434" height="288"/>
<path fill-rule="evenodd" clip-rule="evenodd" d="M404.282 28.1798C394.059 17.3049 380.845 9.70084 366.306 6.3269V6.42403C351.095 3.69222 335.559 3.26656 320.221 5.1614C287.102 11.4259 264.423 32.5504 257.965 62.8045C256.232 75.7277 256.593 88.8456 259.033 101.654C262.307 112.864 267.992 123.223 275.69 132.005C288.024 145.311 301.525 153.664 332.847 167.164C359.993 179.013 369.706 184.695 374.562 191.445C378.024 196.554 379.584 202.714 378.972 208.855C378.36 214.995 375.613 220.726 371.211 225.05C358.099 236.851 331.585 238.259 312.16 228.061C303.112 222.297 295.29 214.805 289.141 206.014L285.499 200.624L268.065 210.724L245.581 223.156C243.633 224.195 241.766 225.38 239.997 226.701C239.317 227.867 250.195 243.941 255.779 250.108C272.411 267.151 294.054 278.432 317.55 282.305C332.88 284.389 348.411 284.552 363.781 282.79C397.435 277.109 421.23 259.966 430.942 234.714C439.684 211.501 436.818 180.13 423.901 160.706C412.343 143.175 393.744 130.84 350.281 112.144C326.68 101.945 319.153 96.9436 315.122 88.5424C313.257 85.0535 312.352 81.1321 312.5 77.1789C312.403 61.2991 324.252 51.6352 342.657 52.8979C348.469 53.1147 354.132 54.8006 359.117 57.7983C364.102 60.7959 368.246 65.0076 371.163 70.0402C373.736 73.8766 376.067 76.4019 376.65 76.0134C392.627 66.1067 418.851 48.3816 418.851 47.6046C414.801 40.5622 409.909 34.0392 404.282 28.1798ZM223.825 56.6371V31.7734L223.534 6.76396H117.523C59.2488 6.76396 11.0753 6.76396 10.6868 7.20102C10.0508 15.5538 9.85625 23.9343 10.1041 32.3076V56.5886H89.1145V281.139H145.009V56.6371H223.825Z"/>
</mask>
<path fill-rule="evenodd" clip-rule="evenodd" d="M404.282 28.1798C394.059 17.3049 380.845 9.70084 366.306 6.3269V6.42403C351.095 3.69222 335.559 3.26656 320.221 5.1614C287.102 11.4259 264.423 32.5504 257.965 62.8045C256.232 75.7277 256.593 88.8456 259.033 101.654C262.307 112.864 267.992 123.223 275.69 132.005C288.024 145.311 301.525 153.664 332.847 167.164C359.993 179.013 369.706 184.695 374.562 191.445C378.024 196.554 379.584 202.714 378.972 208.855C378.36 214.995 375.613 220.726 371.211 225.05C358.099 236.851 331.585 238.259 312.16 228.061C303.112 222.297 295.29 214.805 289.141 206.014L285.499 200.624L268.065 210.724L245.581 223.156C243.633 224.195 241.766 225.38 239.997 226.701C239.317 227.867 250.195 243.941 255.779 250.108C272.411 267.151 294.054 278.432 317.55 282.305C332.88 284.389 348.411 284.552 363.781 282.79C397.435 277.109 421.23 259.966 430.942 234.714C439.684 211.501 436.818 180.13 423.901 160.706C412.343 143.175 393.744 130.84 350.281 112.144C326.68 101.945 319.153 96.9436 315.122 88.5424C313.257 85.0535 312.352 81.1321 312.5 77.1789C312.403 61.2991 324.252 51.6352 342.657 52.8979C348.469 53.1147 354.132 54.8006 359.117 57.7983C364.102 60.7959 368.246 65.0076 371.163 70.0402C373.736 73.8766 376.067 76.4019 376.65 76.0134C392.627 66.1067 418.851 48.3816 418.851 47.6046C414.801 40.5622 409.909 34.0392 404.282 28.1798ZM223.825 56.6371V31.7734L223.534 6.76396H117.523C59.2488 6.76396 11.0753 6.76396 10.6868 7.20102C10.0508 15.5538 9.85625 23.9343 10.1041 32.3076V56.5886H89.1145V281.139H145.009V56.6371H223.825Z" fill="black"/>
<path d="M366.306 6.3269L367.211 2.43044L362.306 1.29236V6.3269H366.306ZM404.282 28.1798L401.367 30.9195L401.382 30.935L401.397 30.9504L404.282 28.1798ZM366.306 6.42403L365.599 10.361L370.306 11.2064V6.42403H366.306ZM320.221 5.1614L319.731 1.19158L319.604 1.20729L319.478 1.2311L320.221 5.1614ZM257.965 62.8045L254.053 61.9694L254.021 62.1202L254 62.2731L257.965 62.8045ZM259.033 101.654L255.104 102.403L255.14 102.591L255.193 102.776L259.033 101.654ZM275.69 132.005L272.682 134.642L272.718 134.684L272.756 134.725L275.69 132.005ZM332.847 167.164L334.447 163.498L334.439 163.495L334.43 163.491L332.847 167.164ZM374.562 191.445L377.873 189.201L377.842 189.155L377.809 189.109L374.562 191.445ZM378.972 208.855L374.992 208.458L374.992 208.458L378.972 208.855ZM371.211 225.05L373.887 228.023L373.952 227.965L374.014 227.904L371.211 225.05ZM312.16 228.061L310.011 231.435L310.152 231.525L310.3 231.603L312.16 228.061ZM289.141 206.014L285.827 208.253L285.845 208.28L285.864 208.306L289.141 206.014ZM285.499 200.624L288.814 198.384L286.724 195.291L283.494 197.162L285.499 200.624ZM268.065 210.724L270.001 214.225L270.036 214.206L270.071 214.185L268.065 210.724ZM245.581 223.156L247.463 226.686L247.49 226.672L247.517 226.657L245.581 223.156ZM239.997 226.701L237.604 223.496L236.952 223.983L236.542 224.686L239.997 226.701ZM255.779 250.108L252.814 252.793L252.864 252.848L252.917 252.902L255.779 250.108ZM317.55 282.305L316.9 286.252L316.955 286.261L317.011 286.268L317.55 282.305ZM363.781 282.79L364.237 286.764L364.342 286.752L364.447 286.735L363.781 282.79ZM430.942 234.714L434.676 236.15L434.681 236.137L434.686 236.124L430.942 234.714ZM423.901 160.706L420.561 162.907L420.566 162.914L420.57 162.92L423.901 160.706ZM350.281 112.144L348.694 115.815L348.7 115.818L350.281 112.144ZM315.122 88.5424L318.728 86.8121L318.691 86.7336L318.65 86.6567L315.122 88.5424ZM312.5 77.1789L316.497 77.328L316.5 77.2412L316.5 77.1544L312.5 77.1789ZM342.657 52.8979L342.383 56.8885L342.445 56.8928L342.508 56.8951L342.657 52.8979ZM359.117 57.7983L357.056 61.2262L357.056 61.2262L359.117 57.7983ZM371.163 70.0402L367.702 72.0459L367.768 72.1596L367.841 72.2687L371.163 70.0402ZM376.65 76.0134L374.542 72.6139L374.486 72.6486L374.431 72.6852L376.65 76.0134ZM418.851 47.6046H422.851V46.5366L422.318 45.6107L418.851 47.6046ZM223.825 31.7734H227.825V31.7501L227.825 31.7268L223.825 31.7734ZM223.825 56.6371V60.6371H227.825V56.6371H223.825ZM223.534 6.76396L227.534 6.71736L227.488 2.76396H223.534V6.76396ZM10.6868 7.20102L7.69718 4.54356L6.8008 5.55198L6.69836 6.89731L10.6868 7.20102ZM10.1041 32.3076H14.1041V32.2484L14.1023 32.1893L10.1041 32.3076ZM10.1041 56.5886H6.10407V60.5886H10.1041V56.5886ZM89.1145 56.5886H93.1145V52.5886H89.1145V56.5886ZM89.1145 281.139H85.1145V285.139H89.1145V281.139ZM145.009 281.139V285.139H149.009V281.139H145.009ZM145.009 56.6371V52.6371H141.009V56.6371H145.009ZM365.402 10.2234C379.172 13.4187 391.686 20.6202 401.367 30.9195L407.196 25.4402C396.433 13.9895 382.519 5.98299 367.211 2.43044L365.402 10.2234ZM370.306 6.42403V6.3269H362.306V6.42403H370.306ZM320.711 9.13123C335.651 7.28562 350.783 7.70021 365.599 10.361L367.013 2.48701C351.407 -0.31578 335.467 -0.752493 319.731 1.19158L320.711 9.13123ZM261.876 63.6396C267.965 35.1206 289.262 15.0883 320.964 9.09171L319.478 1.2311C284.942 7.76354 260.882 29.9801 254.053 61.9694L261.876 63.6396ZM262.962 100.906C260.603 88.5191 260.254 75.8334 261.929 63.336L254 62.2731C252.211 75.6221 252.583 89.1722 255.104 102.403L262.962 100.906ZM278.698 129.369C271.384 121.025 265.983 111.183 262.873 100.533L255.193 102.776C258.631 114.545 264.6 125.421 272.682 134.642L278.698 129.369ZM334.43 163.491C303.256 150.055 290.38 141.969 278.623 129.286L272.756 134.725C285.669 148.654 299.793 157.273 331.264 170.838L334.43 163.491ZM377.809 189.109C374.92 185.094 370.746 181.646 364.077 177.761C357.432 173.889 348.032 169.428 334.447 163.498L331.247 170.83C344.808 176.75 353.838 181.054 360.05 184.673C366.238 188.278 369.347 191.046 371.315 193.781L377.809 189.109ZM382.952 209.251C383.657 202.18 381.86 195.085 377.873 189.201L371.251 193.689C374.187 198.023 375.511 203.249 374.992 208.458L382.952 209.251ZM374.014 227.904C379.084 222.924 382.247 216.323 382.952 209.251L374.992 208.458C374.472 213.667 372.143 218.528 368.408 222.197L374.014 227.904ZM310.3 231.603C320.709 237.067 332.918 239.385 344.259 238.8C355.546 238.217 366.441 234.724 373.887 228.023L368.535 222.077C362.869 227.177 353.951 230.289 343.847 230.81C333.796 231.329 323.036 229.253 314.019 224.519L310.3 231.603ZM285.864 208.306C292.314 217.528 300.519 225.388 310.011 231.435L314.309 224.688C305.705 219.206 298.266 212.081 292.419 203.721L285.864 208.306ZM282.185 202.863L285.827 208.253L292.456 203.774L288.814 198.384L282.185 202.863ZM270.071 214.185L287.504 204.085L283.494 197.162L266.06 207.263L270.071 214.185ZM247.517 226.657L270.001 214.225L266.13 207.224L243.646 219.656L247.517 226.657ZM242.39 229.906C243.997 228.706 245.693 227.63 247.463 226.686L243.699 219.627C241.573 220.761 239.535 222.054 237.604 223.496L242.39 229.906ZM258.744 247.423C256.144 244.552 252.154 239.178 248.854 234.291C247.215 231.863 245.805 229.643 244.862 227.996C244.382 227.157 244.077 226.561 243.923 226.202C243.838 226.008 243.857 226.016 243.891 226.161C243.908 226.232 243.962 226.467 243.966 226.803C243.969 227.084 243.949 227.865 243.452 228.717L236.542 224.686C236.002 225.611 235.961 226.493 235.967 226.904C235.972 227.37 236.049 227.762 236.11 228.016C236.231 228.528 236.419 229.007 236.579 229.375C236.91 230.143 237.387 231.042 237.919 231.97C238.999 233.858 240.53 236.26 242.224 238.768C245.589 243.751 249.83 249.497 252.814 252.793L258.744 247.423ZM318.201 278.358C295.546 274.624 274.678 263.747 258.642 247.315L252.917 252.902C270.144 270.555 292.562 282.24 316.9 286.252L318.201 278.358ZM363.326 278.816C348.286 280.54 333.089 280.38 318.089 278.341L317.011 286.268C332.671 288.397 348.536 288.564 364.237 286.764L363.326 278.816ZM427.209 233.278C418.136 256.868 395.78 273.331 363.115 278.846L364.447 286.735C399.09 280.886 424.324 263.064 434.676 236.15L427.209 233.278ZM420.57 162.92C432.711 181.178 435.529 211.184 427.199 233.304L434.686 236.124C443.838 211.819 440.926 179.083 427.232 158.491L420.57 162.92ZM348.7 115.818C392.135 134.502 409.715 146.455 420.561 162.907L427.24 158.504C414.972 139.894 395.353 127.178 351.862 108.469L348.7 115.818ZM311.516 90.2726C316.292 100.228 325.334 105.721 348.694 115.815L351.868 108.472C328.026 98.1697 322.013 93.6589 318.728 86.8121L311.516 90.2726ZM308.503 77.0297C308.329 81.6908 309.396 86.3145 311.594 90.428L318.65 86.6567C317.119 83.7926 316.376 80.5733 316.497 77.328L308.503 77.0297ZM342.931 48.9072C333.008 48.2265 324.36 50.4611 318.126 55.4988C311.818 60.5963 308.445 68.1967 308.5 77.2033L316.5 77.1544C316.458 70.2813 318.961 65.1098 323.154 61.7211C327.421 58.2726 333.9 56.3066 342.383 56.8885L342.931 48.9072ZM361.179 54.3704C355.615 51.0244 349.294 49.1427 342.806 48.9006L342.508 56.8951C347.645 57.0867 352.65 58.5768 357.056 61.2262L361.179 54.3704ZM374.623 68.0346C371.368 62.4173 366.742 57.7163 361.179 54.3703L357.056 61.2262C361.461 63.8756 365.124 67.598 367.702 72.0459L374.623 68.0346ZM374.431 72.6852C375.817 71.7613 377.166 72.0876 377.558 72.2116C377.805 72.2897 377.979 72.3775 378.066 72.4251C378.159 72.4758 378.213 72.5139 378.226 72.5227C378.245 72.5365 378.194 72.5015 378.067 72.3827C377.946 72.2701 377.789 72.1123 377.597 71.9029C376.803 71.0407 375.703 69.6284 374.484 67.8117L367.841 72.2687C369.196 74.2885 370.548 76.057 371.709 77.3194C372.267 77.926 372.914 78.5628 373.592 79.0443C373.913 79.2724 374.453 79.6202 375.147 79.8396C375.789 80.0424 377.337 80.3626 378.869 79.3416L374.431 72.6852ZM414.851 47.6046C414.851 46.4312 415.377 45.6333 415.437 45.5376C415.59 45.2916 415.732 45.1285 415.779 45.0757C415.883 44.9582 415.944 44.9092 415.888 44.9588C415.799 45.0386 415.598 45.2054 415.246 45.4773C414.562 46.0064 413.526 46.7647 412.185 47.7184C409.516 49.6168 405.769 52.1942 401.506 55.0688C392.978 60.8186 382.473 67.6964 374.542 72.6139L378.758 79.4129C386.804 74.4237 397.4 67.4857 405.978 61.7019C410.267 58.8098 414.075 56.191 416.822 54.238C418.189 53.2658 419.327 52.4345 420.139 51.8068C420.535 51.5003 420.913 51.197 421.216 50.927C421.356 50.8016 421.566 50.6078 421.77 50.377C421.867 50.2676 422.047 50.0557 422.226 49.7691C422.311 49.6328 422.851 48.8024 422.851 47.6046H414.851ZM401.397 30.9504C406.799 36.5755 411.495 42.8377 415.383 49.5985L422.318 45.6107C418.107 38.2867 413.019 31.5029 407.167 25.4092L401.397 30.9504ZM219.825 31.7734V56.6371H227.825V31.7734H219.825ZM219.534 6.81056L219.826 31.82L227.825 31.7268L227.534 6.71736L219.534 6.81056ZM117.523 10.764H223.534V2.76396H117.523V10.764ZM13.6765 9.85847C12.9934 10.627 12.2021 10.9009 12.1249 10.9302C11.8875 11.0204 11.6974 11.0653 11.6222 11.0823C11.5293 11.1033 11.4585 11.1153 11.4237 11.1209C11.3855 11.127 11.3594 11.1303 11.3499 11.1315C11.3327 11.1336 11.387 11.127 11.5572 11.1165C11.8776 11.0967 12.39 11.0757 13.1127 11.0551C14.5452 11.0143 16.6584 10.9788 19.3939 10.9481C24.8576 10.8868 32.7228 10.8459 42.4091 10.8186C61.7784 10.764 88.3837 10.764 117.523 10.764V2.76396C88.3884 2.76396 61.7697 2.76396 42.3865 2.81861C32.6966 2.84593 24.8034 2.88694 19.3042 2.9486C16.5582 2.97939 14.3889 3.01553 12.8849 3.05838C12.1394 3.07962 11.5201 3.10349 11.0637 3.13171C10.8455 3.14519 10.6001 3.16342 10.3743 3.19117C10.273 3.20361 10.0792 3.22925 9.85751 3.27939C9.75306 3.30301 9.53949 3.3546 9.28442 3.45148C9.18946 3.48754 8.38634 3.76825 7.69718 4.54356L13.6765 9.85847ZM14.1023 32.1893C13.8587 23.9567 14.0499 15.7171 14.6753 7.50473L6.69836 6.89731C6.05163 15.3905 5.85384 23.9119 6.10582 32.4259L14.1023 32.1893ZM14.1041 56.5886V32.3076H6.10407V56.5886H14.1041ZM89.1145 52.5886H10.1041V60.5886H89.1145V52.5886ZM93.1145 281.139V56.5886H85.1145V281.139H93.1145ZM145.009 277.139H89.1145V285.139H145.009V277.139ZM141.009 56.6371V281.139H149.009V56.6371H141.009ZM223.825 52.6371H145.009V60.6371H223.825V52.6371Z" fill="#007ACC" mask="url(#path-2-outside-1_199_136)"/>
</g>
</g>
<defs>
<filter id="filter0_i_199_136" x="6" y="0" width="433.965" height="288" filterUnits="userSpaceOnUse" color-interpolation-filters="sRGB">
<feFlood flood-opacity="0" result="BackgroundImageFix"/>
<feBlend mode="normal" in="SourceGraphic" in2="BackgroundImageFix" result="shape"/>
<feColorMatrix in="SourceAlpha" type="matrix" values="0 0 0 0 0 0 0 0 0 0 0 0 0 0 0 0 0 0 127 0" result="hardAlpha"/>
<feOffset/>
<feGaussianBlur stdDeviation="25"/>
<feComposite in2="hardAlpha" operator="arithmetic" k2="-1" k3="1"/>
<feColorMatrix type="matrix" values="0 0 0 0 0 0 0 0 0 0.478431 0 0 0 0 0.8 0 0 0 1 0"/>
<feBlend mode="normal" in2="shape" result="effect1_innerShadow_199_136"/>
</filter>
</defs>
</svg>
